<?xml version="1.0" standalone="no"?>
<!DOCTYPE svg PUBLIC "-//W3C//DTD SVG 1.1//EN" "http://www.w3.org/Graphics/SVG/1.1/DTD/svg11.dtd" >
<svg>
<metadata>
Created by FontForge 20090914 at Tue Jun 23 08:35:09 2015
 By www-data
Copyright(C) 2012 Rahul.V, All rights reserved.Mob:+91-99464 29992, 88910 29992. Email: rahul@kaumudi.com, rahulv@kimo.com; Kaumudi font Licensed under the GNU GENERAL PUBLIC LICENSE Version 3. As a special exception, if you create a document which uses this font, and embed this font or unaltered portions of this font into the document, this font does not by itself cause the resulting document to be covered by the GNU General Public License. This exception does not however invalidate any other reasons why the document might be covered by the GNU General Public License. www.keralakaumudi.com. 
Special Thanks To Amjith Sher
.
</metadata>
<defs>
<font id="Kaumudi" horiz-adv-x="1139" >
  <font-face 
    font-family="Kaumudi"
    font-weight="400"
    font-stretch="normal"
    units-per-em="2048"
    panose-1="2 0 0 0 0 0 0 0 0 0"
    ascent="1638"
    descent="-410"
    x-height="1062"
    cap-height="1466"
    bbox="-1472 -957 13061 1810"
    underline-thickness="70"
    underline-position="-204"
    unicode-range="U+0020-U+EBA0"
  />
<missing-glyph horiz-adv-x="1294" 
d="M897 584c-22.667 -20.667 -44.998 -39.999 -66.998 -57.999c-54.667 -44.667 -82 -91 -82 -139v-83h-109v90c0 59.333 26 112.666 78 159.999v-1l35.5 29l34.5 31v-1c53.333 45.333 80 93 80 143c0 49.333 -15 87 -45 113c-30.667 26.667 -74.334 40 -131.001 40
c-57.333 0 -98.333 -16.667 -123 -50s-37 -81.666 -37 -144.999h-102c0.666992 94.667 24.167 166.5 70.5 215.5s113.166 73.5 200.499 73.5c86 0 153.667 -21.667 203 -65c50 -44 75 -101 75 -171c0 -70.667 -27 -131.334 -81 -182.001zM748.002 233.001v-128h-109v128h109
zM1198 1329v-1528h-975v1528h975zM335.002 1208v-1294h756v1294h-756z" />
    <glyph glyph-name="ml_lla_uni0D2F.pstf" unicode="&#xd33;&#xd4d;&#xd2f;" horiz-adv-x="2400" 
d="M753 548c0 144 -57.998 215.999 -173.998 215.999c-57.333 0 -104.333 -15.333 -141 -46c-37.333 -31.333 -56 -69 -56 -113c0 -36.667 4.66699 -70.167 14 -100.5s22.666 -57.166 39.999 -80.499c30.667 -44.667 75 -67 133 -67c59.333 0 104.666 22 135.999 66
c32 44 48 85.667 48 125zM831.002 178.999l16.9941 0.000976562c296 0 449.333 70 460 210c0 33.333 -9.33301 64.333 -28 93c-34.667 44.667 -74.334 67 -119.001 67c-24 0 -48.5 -0.166992 -73.5 -0.5s-49.5 -0.5 -73.5 -0.5c0 21.333 -0.333008 42 -1 62s-1 40.667 -1 62
c50.667 0.666992 88.667 1 114 1h42c76.667 21.333 115 72.666 115 153.999c0 57.333 -34.333 111.333 -103 162c-92 58 -201.667 89 -329 93c-5.33301 0 -10.166 0.166992 -14.499 0.5s-9.16602 0.5 -14.499 0.5c-28.667 0 -57.667 -1.83301 -87 -5.5
s-59 -9.16699 -89 -16.5c-21.333 -6 -41.5 -13.667 -60.5 -23s-38.167 -20.666 -57.5 -33.999c-64 -51.333 -98.667 -101.333 -104 -150c44.667 21.333 96.334 32 155.001 32c112.667 0 201.334 -30.667 266.001 -92c63.333 -61.333 95 -139.333 95 -234
c0 -45.333 -9 -87.833 -27 -127.5s-44 -74.5 -78 -104.5c-37.333 -30 -78.166 -53 -122.499 -69s-92.166 -24 -143.499 -24c-102.667 0 -190.667 31.667 -264 95c-72.667 62 -109 158.667 -109 290v21c0 149.333 48.333 278.666 145 387.999c102 114 266.333 171 493 171h6
c184.667 0 331.667 -31 441 -93c118.667 -62.667 178 -160.334 178 -293.001c0 -40.667 -11.333 -79.667 -34 -117c-22.667 -35.333 -46.667 -61.333 -72 -78c94.667 -58.667 142 -140 142 -244c-1.33301 -79.333 -33.333 -152.333 -96 -219
c-68 -72 -193.667 -109.667 -377 -113h-444c-139.333 -3.33301 -209 -43 -209 -119c2.66699 -92 72.334 -138 209.001 -138h883v-150h-845c-272.667 0 -409.667 88.667 -411 266c1.33301 142.667 67 228.334 197 257.001c57.333 12.667 145.333 19 264 19zM1629 -259
c-8 13.333 -15.0029 27.5029 -21.0029 42.5029s-11.667 30.5 -17 46.5c21.333 16 43.166 31.333 65.499 46s44.5 30 66.5 46c5.33301 -19.333 10.833 -36.333 16.5 -51s11.834 -27.667 18.501 -39c9.33301 -18 20.333 -34.667 33 -50s26.667 -28.333 42 -39
c31.333 -22.667 77.666 -34 138.999 -34c62 0 111.667 24.333 149 73c34.667 51.333 51.334 110.666 50 177.999c-0.666992 32 -10.5 70.5 -29.5 115.5s-44.833 92.167 -77.5 141.5c-68.667 105.333 -120.834 206.5 -156.501 303.5s-54.167 188.167 -55.5 273.5
c-4 58 6 126.667 30 206c12 39.333 29.333 78.166 52 116.499s50.334 76.166 83.001 113.499l78 -25l78 -26c-15.333 -15.333 -29.333 -30.5 -42 -45.5s-23.667 -30.5 -33 -46.5h1c-51.333 -71.333 -77.666 -183.666 -78.999 -336.999
c-1.33301 -152 53.667 -306 165.001 -462c33.333 -44 58.833 -78.833 76.5 -104.5s28.167 -41.5 31.5 -47.5c35.333 -66 53 -141.667 53 -227c0 -86.667 -32.333 -165 -97 -235c-65.333 -70 -148.666 -105 -249.999 -105
c-179.333 -0.666992 -302.666 56.666 -369.999 171.999z" />
    <glyph glyph-name=".notdef" horiz-adv-x="1294" 
d="M897 584c-22.667 -20.667 -44.998 -39.999 -66.998 -57.999c-54.667 -44.667 -82 -91 -82 -139v-83h-109v90c0 59.333 26 112.666 78 159.999v-1l35.5 29l34.5 31v-1c53.333 45.333 80 93 80 143c0 49.333 -15 87 -45 113c-30.667 26.667 -74.334 40 -131.001 40
c-57.333 0 -98.333 -16.667 -123 -50s-37 -81.666 -37 -144.999h-102c0.666992 94.667 24.167 166.5 70.5 215.5s113.166 73.5 200.499 73.5c86 0 153.667 -21.667 203 -65c50 -44 75 -101 75 -171c0 -70.667 -27 -131.334 -81 -182.001zM748.002 233.001v-128h-109v128h109
zM1198 1329v-1528h-975v1528h975zM335.002 1208v-1294h756v1294h-756z" />
    <glyph glyph-name="space" unicode=" " horiz-adv-x="600" 
 />
    <glyph glyph-name="exclam" unicode="!" horiz-adv-x="569" 
d="M234 365l-27.5 389l-27.5 389v325h218v-325l-26 -389l-26 -389h-111zM187 0v202h202v-202h-202z" />
    <glyph glyph-name="quotedbl" unicode="&#x22;" horiz-adv-x="350" 
d="M134 951l-20.5 121.5l-20.5 122.5v219h179v-219l-21.5 -121.5l-21.5 -122.5h-95z" />
    <glyph glyph-name="numbersign" unicode="#" 
d="M105 -25l88 428h-170v145h200l74 368h-274v146h304l87 431h145l-87 -431h322l87 431h146l-88 -431h174v-146h-204l-75 -368h279v-145h-309l-87 -428h-145l86 428h-321l-87 -428h-145zM367 548h322l75 368h-322z" />
    <glyph glyph-name="dollar" unicode="$" horiz-adv-x="1078" 
d="M499 -206l-0.000976562 173.996c-48 5.33301 -89.833 13 -125.5 23s-66.834 21.667 -93.501 35c-52.667 26.667 -98.334 71.334 -137.001 134.001c-20 31.333 -35.667 65.5 -47 102.5s-18.333 75.833 -21 116.5l79.5 15l79.5 15
c12.667 -89.333 36.667 -156.666 72 -201.999c25.333 -31.333 53.5 -56.166 84.5 -74.499s67.167 -29.5 108.5 -33.5v572c-77.333 14 -152.666 41.667 -225.999 83c-54 30.667 -95.5 72.667 -124.5 126s-43.5 114.333 -43.5 183c0 122 43 220.333 129 295
c58 51.333 146.333 83 265 95v82h84v-82c104.667 -10 186.334 -39.667 245.001 -89c74.667 -61.333 119.334 -144 134.001 -248c-25.333 -3.33301 -52.333 -7.33301 -81 -12l-82 -13c-10 66 -32.167 117.667 -66.5 155s-84.166 63 -149.499 77v-520
c47.333 -11.333 85.666 -21.166 114.999 -29.499s51.333 -16.166 66 -23.499c78 -34 136.5 -80.833 175.5 -140.5s58.5 -130.834 58.5 -213.501c0 -120 -38 -219.667 -114 -299c-74.667 -78.667 -175 -120.667 -301 -126v-177h-84zM498.999 1323
c-77.333 -12 -136.332 -40.3359 -176.999 -85.0029c-20.667 -23.333 -35.834 -48.5 -45.501 -75.5s-14.5 -55.5 -14.5 -85.5c0 -31.333 4 -59.666 12 -84.999s21.333 -48.666 40 -69.999s42.5 -40.166 71.5 -56.499s66.833 -31.5 113.5 -45.5v503zM583 98.9932
c77.333 10 138.667 41 184 93c22 25.333 39 54.333 51 87s18 67.667 18 105c0 64 -16.667 116 -50 156c-32 40.667 -99.667 77.667 -203 111v-552z" />
    <glyph glyph-name="percent" unicode="%" horiz-adv-x="1821" 
d="M121 1116c0 106 26 195 78 267c52.667 73.333 128.667 110 228 110c91.333 0 167 -33 227 -99c60 -64 90 -160.333 90 -289c0 -124.667 -30.333 -220.334 -91 -287.001c-60 -66 -134.667 -99 -224 -99c-88 0 -161.667 32.667 -221 98c-58 64.667 -87 164.334 -87 299.001
zM272 1098c0 -93.333 15.333 -160.333 46 -201c32 -38.667 70 -58 114 -58c46 0 84 19.667 114 59c14.667 21.333 26.167 49.833 34.5 85.5s12.5 78.5 12.5 128.5c0 47.333 -4.16699 87.833 -12.5 121.5s-19.833 60.167 -34.5 79.5c-30 39.333 -68 59 -114 59
s-84.333 -19.667 -115 -59c-30 -40 -45 -111.667 -45 -215zM438 -54l401 773.5l401 773.5h139l-399.5 -774l-399.5 -773h-142zM1072 343c0 106.667 26.333 195.666 79 266.999c52 73.333 128 110 228 110c92 0 167.667 -33 227 -99c60.667 -63.333 91 -159.666 91 -288.999
c0 -124.667 -30.667 -220.334 -92 -287.001c-60 -66 -135 -99 -225 -99c-44 0 -84.167 8.33301 -120.5 25s-69.5 41 -99.5 73c-28 33.333 -49.667 75.333 -65 126s-23 108.334 -23 173.001zM1385 598.999c-48 0 -86.667 -19.666 -116 -58.999c-30 -40 -45 -111.667 -45 -215
c0 -92.667 15.333 -159.334 46 -200.001c29.333 -39.333 67.333 -59 114 -59s85 19.667 115 59c14.667 21.333 26 49.833 34 85.5s12 78.5 12 128.5c0 47.333 -4 87.833 -12 121.5s-19.333 60.167 -34 79.5c-30 39.333 -68 59 -114 59z" />
    <glyph glyph-name="ampersand" unicode="&#x26;" horiz-adv-x="1366" 
d="M964 179c-119.333 -132 -258.336 -197.999 -417.003 -197.999c-72.667 0 -138.667 13 -198 39s-110.666 62.667 -153.999 110c-34 40 -60 83.333 -78 130s-27 94.667 -27 144c0 178 118.333 323.333 355 436c-69.333 79.333 -115.333 143.666 -138 192.999
c-21.333 45.333 -32 89.666 -32 132.999c0 86.667 33.333 161.667 100 225c68 64 153.333 96 256 96c98.667 0 178.667 -30 240 -90c62 -60.667 93 -133 93 -217c0 -136.667 -93.667 -255 -281 -355l278 -355c18.667 36.667 34.167 72 46.5 106s22.5 69 30.5 105l84.5 -19
l84.5 -19c-31.333 -121.333 -74.666 -224.333 -129.999 -309c72.667 -94 148.334 -170.333 227.001 -229l-55.5 -64.5l-54.5 -65.5c-34 22 -69.333 49.833 -106 83.5s-74.667 73.834 -114 120.501h-10zM600.997 928.001c82.667 50 136.333 92.668 161 128.001
c24 36 36 75.667 36 119c0 53.333 -17.333 96 -52 128c-32 34 -73.333 51 -124 51c-50 0 -92.667 -16.667 -128 -50c-34.667 -32 -52 -72.333 -52 -121c0 -22 6.16699 -46.333 18.5 -73s30.5 -54.334 54.5 -83.001zM525.996 736.002
c-50.667 -30.667 -93.002 -60.165 -127.002 -88.498s-60.333 -55.5 -79 -81.5c-35.333 -50.667 -53 -101 -53 -151c0 -61.333 24.333 -125 73 -191c48.667 -66.667 118.334 -100 209.001 -100c28.667 0 57.167 4.33301 85.5 13s57.166 21.667 86.499 39
c30.667 17.333 57.834 37.166 81.501 59.499s44.834 48.166 63.501 77.499z" />
    <glyph glyph-name="quotesingle" unicode="'" horiz-adv-x="350" 
d="M134 951l-20.5 121.5l-20.5 122.5v219h179v-219l-21.5 -121.5l-21.5 -122.5h-95z" />
    <glyph glyph-name="parenleft" unicode="(" horiz-adv-x="682" 
d="M481 -433c-48 61.333 -93.334 129.167 -136.001 203.5s-81 153.5 -115 237.5c-68.667 168 -103 342.333 -103 523c0 78.667 6.5 156.334 19.5 233.001s32.167 151.334 57.5 224.001c14.667 40 31.834 81.5 51.501 124.5s41.5 86.167 65.5 129.5s49.5 86.166 76.5 128.499
s54.833 83.166 83.5 122.499h124c-40.667 -69.333 -74 -128.5 -100 -177.5s-45.667 -88.167 -59 -117.5c-19.333 -44.667 -37.333 -92 -54 -142s-30.667 -99.667 -42 -149c-14 -62 -24.833 -124.667 -32.5 -188s-11.5 -126.333 -11.5 -189c0 -162 24.833 -322.5 74.5 -481.5
s124.5 -319.5 224.5 -481.5h-124z" />
    <glyph glyph-name="parenright" unicode=")" horiz-adv-x="682" 
d="M129 -433c198.667 322 298.001 642.995 298.001 962.995c0 61.333 -3.66699 123.833 -11 187.5s-18 125.834 -32 186.501c-11.333 48.667 -25.333 98.167 -42 148.5s-34.667 97.5 -54 141.5c-13.333 30.667 -33.166 70.834 -59.499 120.501s-59.5 109.167 -99.5 178.5
h123c62 -82.667 116.167 -166.167 162.5 -250.5s84.5 -169.166 114.5 -254.499c25.333 -73.333 44.666 -147.833 57.999 -223.5s20 -153.5 20 -233.5c0 -90.667 -8.83301 -179.167 -26.5 -265.5s-43.834 -172.166 -78.501 -257.499
c-34 -83.333 -72.167 -162.166 -114.5 -236.499s-87.5 -142.5 -135.5 -204.5h-123z" />
    <glyph glyph-name="asterisk" unicode="*" horiz-adv-x="797" 
d="M112 1339c51.333 -17.333 96.501 -34.4971 135.501 -51.4971s71.5 -32.833 97.5 -47.5c-13.333 119.333 -20.333 203.666 -21 252.999h140c-2 -64.667 -10 -148.334 -24 -251.001c68 34.667 147.333 67 238 97l45 -138c-42 -14 -84.333 -25.833 -127 -35.5
s-84.334 -16.834 -125.001 -21.501c23.333 -20 49.5 -45.5 78.5 -76.5s61.5 -68.5 97.5 -112.5l-59.5 -42.5l-58.5 -41.5c-18 24.667 -38.333 55.334 -61 92.001l-76 127c-25.333 -48.667 -49 -91.5 -71 -128.5s-42 -67.167 -60 -90.5l-57 41.5l-57 42.5
c38 47.333 70.833 86.666 98.5 117.999s50.167 55 67.5 71l-125.5 26.5c-41 9 -80.833 19.167 -119.5 30.5z" />
    <glyph glyph-name="plus" unicode="+" horiz-adv-x="1196" 
d="M517 238v403h-401v165h401v401h164v-401h401v-165h-401v-403h-164z" />
    <glyph glyph-name="comma" unicode="," horiz-adv-x="569" 
d="M380 -32c-36.667 -78.667 -94.332 -151.334 -172.999 -218.001c-22.667 29.333 -51.334 52.666 -86.001 69.999c78.667 97.333 118 212 118 344c0 10.667 -0.666992 23.334 -2 38.001c-0.666992 8.66699 -1.66699 18.334 -3 29.001l201 -2
c-0.666992 -96.667 -19 -183.667 -55 -261z" />
    <glyph glyph-name="hyphen" unicode="-" horiz-adv-x="682" 
d="M68 442v177h549v-177h-549z" />
    <glyph glyph-name="period" unicode="." horiz-adv-x="569" 
d="M189 0v202h200v-202h-200z" />
    <glyph glyph-name="slash" unicode="/" horiz-adv-x="705" 
d="M143 -25l426 1518h168l-425 -1518h-169z" />
    <glyph glyph-name="zero" unicode="0" 
d="M87 724c0 85.333 4.49902 163.165 13.499 233.498s22.167 131.833 39.5 184.5c18.667 50 41.5 96.333 68.5 139s57.167 78 90.5 106c72 58 160.333 87 265 87c78.667 0 147.5 -15.833 206.5 -47.5s107.5 -77.5 145.5 -137.5c20 -30 37.5 -63.167 52.5 -99.5
s28.167 -76.166 39.5 -119.499c22 -85.333 33 -200.666 33 -345.999c0 -85.333 -4.5 -163 -13.5 -233s-22.167 -131.667 -39.5 -185c-17.333 -50.667 -39.666 -97.167 -66.999 -139.5s-58 -77.5 -92 -105.5c-70.667 -57.333 -159 -86 -265 -86
c-68.667 0 -131.167 13.167 -187.5 39.5s-104.5 63.5 -144.5 111.5c-48 61.333 -84.167 142 -108.5 242s-36.5 218.667 -36.5 356zM860.999 723.999c0 117.333 -7.49902 216.834 -22.499 298.501s-36.167 143.5 -63.5 185.5c-28.667 39.333 -60.834 69.166 -96.501 89.499
s-74.5 30.5 -116.5 30.5c-85.333 0 -152.333 -35.333 -201 -106c-62.667 -90.667 -94 -256.667 -94 -498c0 -242 28.333 -403.333 85 -484c58.667 -80.667 129.334 -121 212.001 -121c83.333 0 153.666 40.667 210.999 122c29.333 40.667 51 101.167 65 181.5
s21 180.833 21 301.5z" />
    <glyph glyph-name="one" unicode="1" horiz-adv-x="1044" 
d="M762 0l-174.999 -0.000976562v1151c-45.333 -43.333 -104 -85.666 -176 -126.999c-36 -20.667 -69 -38.667 -99 -54s-58.667 -28 -86 -38v169c50 23.333 97 49.5 141 78.5s85 60.5 123 94.5c38 33.333 70.667 66.333 98 99s48.666 64.667 63.999 96h110v-1469z" />
    <glyph glyph-name="two" unicode="2" 
d="M1044 170l0.000976562 -169.997h-967c-0.666992 17.333 1.33301 37.666 6 60.999s9.66699 43.666 15 60.999c13.333 32 30.166 65.167 50.499 99.5s42.833 66.5 67.5 96.5c26.667 30.667 59.667 64.667 99 102s85.333 77.333 138 120c79.333 66 146 124.667 200 176
s95.333 96.666 124 135.999c56.667 78.667 85 151.667 85 219c0 71.333 -26 132 -78 182s-119.333 75 -202 75c-87.333 0 -157.666 -26.333 -210.999 -79c-52 -52 -78.667 -124 -80 -216l-89.5 9.5l-90.5 9.5c6 68.667 21.167 129.334 45.5 182.001
s56.666 96.667 96.999 132s88.5 62.166 144.5 80.499s118.667 27.5 188 27.5c140 0 251 -39 333 -117c82 -77.333 123 -174 123 -290c0 -58.667 -12 -116.5 -36 -173.5s-64 -116.5 -120 -178.5c-25.333 -30 -61.833 -66.833 -109.5 -110.5l-168.5 -147.5l-127.5 -110.5
c-37 -32.333 -64.167 -57.833 -81.5 -76.5c-15.333 -16 -30 -32.833 -44 -50.5s-25.667 -34.167 -35 -49.5h724z" />
    <glyph glyph-name="three" unicode="3" 
d="M264 408c10 -51.333 23.9941 -95.166 41.9941 -131.499s39.167 -66.166 63.5 -89.499s52 -40.5 83 -51.5s64.833 -16.5 101.5 -16.5c86.667 0 159 30 217 90c59.333 59.333 89 132.666 89 219.999c0 83.333 -27.333 151.666 -82 204.999
c-54.667 55.333 -124.334 83 -209.001 83c-17.333 0 -36.166 -1.66699 -56.499 -5s-42.833 -8 -67.5 -14l10 76.5l10 76.5c0.666992 0 1.33398 -0.166992 2.00098 -0.5s1.33398 -0.5 2.00098 -0.5c3.33301 -0.666992 7.16602 -1 11.499 -1h10.5c78 0 148 20 210 60
c62 42 93 104.667 93 188c0 67.333 -22.667 122.666 -68 165.999c-23.333 22 -49.5 38.5 -78.5 49.5s-61.5 16.5 -97.5 16.5c-71.333 0 -130.666 -22 -177.999 -66s-77.666 -110.333 -90.999 -199l-87.5 15.5l-87.5 15.5c11.333 58 29.833 110.833 55.5 158.5
s57.167 87.5 94.5 119.5c78.667 67.333 175.334 101 290.001 101c80 0 153.667 -17.667 221 -53c66 -33.333 116.667 -79.666 152 -138.999c36.667 -58.667 55 -121.667 55 -189c0 -64 -17.333 -122 -52 -174s-86.334 -93.667 -155.001 -125c44 -10 83.333 -25.667 118 -47
s63.834 -47.333 87.501 -78s41.834 -66 54.501 -106s19 -83.333 19 -130c0 -128.667 -46.667 -237.667 -140 -327c-92 -88 -209.667 -132 -353 -132c-129.333 0 -236 38 -320 114c-40.667 37.333 -73.167 81.5 -97.5 132.5s-40.166 105.833 -47.499 164.5z" />
    <glyph glyph-name="four" unicode="4" horiz-adv-x="1150" 
d="M737 0v352h-639v164l-1 -1l335.5 476l335.5 477h143v-954h199v-162h-199v-352h-174zM737 514v673l-468 -673h468z" />
    <glyph glyph-name="five" unicode="5" 
d="M271 399c6.66699 -46 18.498 -86.499 35.498 -121.499s38 -64.167 63 -87.5s53.333 -40.833 85 -52.5s65.834 -17.5 102.501 -17.5c88 0 162.333 33.333 223 100c60.667 65.333 91 153 91 263c0 50 -7.83301 95.833 -23.5 137.5s-37.167 77.5 -64.5 107.5
c-28 28 -61.833 50.167 -101.5 66.5s-82.167 24.5 -127.5 24.5c-28.667 0 -56.167 -3.66699 -82.5 -11s-51.166 -17.333 -74.499 -30s-44.5 -27.667 -63.5 -45s-35.5 -36.333 -49.5 -57c-28 3.33301 -55.5 7 -82.5 11s-54.5 7.66699 -82.5 11l72 377.5l71 376.5h726v-169
h-588l-80 -405c90.667 64.667 184.667 97 282 97c127.333 0 235 -44.667 323 -134c88 -88 132 -202 132 -342c0 -133.333 -38.667 -248.333 -116 -345c-94 -119.333 -222 -179 -384 -179c-64.667 0 -124.667 9.66699 -180 29s-104 46.666 -146 81.999
c-40 38 -72.5 82 -97.5 132s-40.5 104.667 -46.5 164z" />
    <glyph glyph-name="six" unicode="6" 
d="M855 1097c-16 69.333 -39.002 120.668 -69.002 154.001c-50 52 -111 78 -183 78c-28.667 0 -56 -4.16699 -82 -12.5s-49.667 -20.166 -71 -35.499c-28 -20.667 -53.667 -46.834 -77 -78.501s-43 -66.5 -59 -104.5c-15.333 -40 -27.5 -89.5 -36.5 -148.5
s-13.833 -126.5 -14.5 -202.5c46 68.667 100.333 119.834 163 153.501s128.334 50.5 197.001 50.5c120 0 221.667 -44.333 305 -133c84.667 -86.667 127 -200.667 127 -342c0 -92.667 -20 -178.334 -60 -257.001c-19.333 -39.333 -42.666 -74 -69.999 -104
s-58.333 -55.667 -93 -77c-68 -42 -146.333 -63 -235 -63c-149.333 0 -271.333 55 -366 165c-94.667 109.333 -142 291.666 -142 546.999c0 284 52.333 490.333 157 619c92 112 214.667 168 368 168c114.667 0 208.667 -32.667 282 -98c74 -64 118.333 -152.333 133 -265z
M290.998 475.002c0 -63.333 13 -123.331 39 -179.998c26.667 -56.667 64.334 -100.334 113.001 -131.001c23.333 -14.667 47.666 -25.834 72.999 -33.501s51.333 -11.5 78 -11.5c76 0 142.333 31.333 199 94c55.333 61.333 83 145.333 83 252c0 100 -27.333 180.333 -82 241
c-26.667 28.667 -57.667 50.667 -93 66s-73.333 23 -114 23c-81.333 0 -151.333 -29.667 -210 -89c-57.333 -59.333 -86 -136.333 -86 -231z" />
    <glyph glyph-name="seven" unicode="7" 
d="M94 1308l-0.999023 159.001h952l-4 -129l1 1c-47.333 -51.333 -93.5 -111.5 -138.5 -180.5s-90.5 -145.833 -136.5 -230.5c-21.333 -38.667 -42 -79.667 -62 -123s-39.167 -87.5 -57.5 -132.5s-35.5 -89.833 -51.5 -134.5s-30 -87 -42 -127
c-17.333 -62.667 -31.833 -128.167 -43.5 -196.5s-20.167 -139.833 -25.5 -214.5h-180c2 116 24.667 257.333 68 424c43.333 166 105.666 326.333 186.999 481c41.333 78.667 83 151.667 125 219s86 128.666 132 183.999h-723z" />
    <glyph glyph-name="eight" unicode="8" 
d="M363 798c-74.667 27.333 -129.834 66.166 -165.501 116.499s-53.5 110.833 -53.5 181.5c0 106.667 38.333 196.334 115 269.001s178.334 109 305.001 109c127.333 0 230 -37.333 308 -112c78 -73.333 117 -163.666 117 -270.999c0 -68 -18.167 -127.167 -54.5 -177.5
s-91.833 -89.5 -166.5 -117.5c92.667 -30 162.667 -77.667 210 -143s71 -143.333 71 -234c0 -126.667 -44.333 -232.334 -133 -317.001s-205 -127 -349 -127c-70.667 0 -135.5 11.167 -194.5 33.5s-110.5 53.5 -154.5 93.5c-44 42.667 -77.167 91 -99.5 145
s-33.5 113 -33.5 177c0 95.333 24 175 72 239s116.667 107.667 206 131v4zM323 1102c0 -70.667 22.667 -127.667 68 -171c46 -45.333 105 -68 177 -68c69.333 0 127 22.333 173 67c45.333 43.333 68 97.333 68 162c0 66.667 -23.333 122.667 -70 168
c-46 46 -103.667 69 -173 69c-35.333 0 -67.333 -5.66699 -96 -17s-54.667 -28 -78 -50c-46 -44 -69 -97.333 -69 -160zM265 423c0 -52.667 11.999 -102.999 35.999 -150.999c25.333 -48.667 62.333 -86.334 111 -113.001s101 -40 157 -40c44 0 83.833 7.16699 119.5 21.5
s67.834 35.5 96.501 63.5c56.667 54.667 85 125.667 85 213c0 86.667 -29.333 158.667 -88 216c-57.333 58 -130.333 87 -219 87c-86 0 -157.333 -28.667 -214 -86c-56 -58 -84 -128.333 -84 -211z" />
    <glyph glyph-name="nine" unicode="9" 
d="M282 352c15.333 -82 43.833 -141.335 85.5 -178.002s95.5 -55 161.5 -55c56.667 0 106.167 12.833 148.5 38.5s76.833 59.834 103.5 102.501c25.333 41.333 47.666 99.333 66.999 174c18 72 27 145.333 27 220c0 4 -0.166992 10.833 -0.5 20.5s-0.833008 18.5 -1.5 26.5
c-19.333 -32 -41.833 -60.5 -67.5 -85.5s-53.5 -46.167 -83.5 -63.5c-31.333 -17.333 -63.833 -30.5 -97.5 -39.5s-68.5 -13.5 -104.5 -13.5c-121.333 0 -223.666 43.667 -306.999 131c-84 88 -126 204.333 -126 349c0 72.667 11.333 139.5 34 200.5s55 113.833 97 158.5
c43.333 43.333 92.833 76.833 148.5 100.5s115.834 35.5 180.501 35.5c47.333 0 92.5 -6.66699 135.5 -20s84.5 -32.666 124.5 -57.999c77.333 -50.667 137.333 -124 180 -220c41.333 -96 62 -233.333 62 -412c0 -188 -20.333 -337.667 -61 -449
c-21.333 -55.333 -46.833 -104 -76.5 -146s-64.834 -77.667 -105.501 -107c-80 -58 -173.667 -87 -281 -87c-57.333 0 -109.166 8.16699 -155.499 24.5s-87.833 39.833 -124.5 70.5c-34.667 32 -63.334 70.333 -86.001 115s-37.667 95 -45 151zM569 1328
c-80.667 0 -151.333 -33 -212 -99c-60 -67.333 -90 -152.666 -90 -255.999c0 -92.667 28.333 -169.334 85 -230.001c58 -59.333 128.667 -89 212 -89c40.667 0 79 8 115 24s67 37.667 93 65c26 30 46.167 65.833 60.5 107.5s21.5 87.5 21.5 137.5c0 102 -28 184.667 -84 248
c-55.333 61.333 -122.333 92 -201 92z" />
    <glyph glyph-name="colon" unicode=":" horiz-adv-x="569" 
d="M188 809v222h212v-222h-212zM188 -6v230h212v-230h-212z" />
    <glyph glyph-name="semicolon" unicode=";" horiz-adv-x="569" 
d="M380 -32c-36.667 -78.667 -94.332 -151.334 -172.999 -218.001c-22.667 29.333 -51.334 52.666 -86.001 69.999c78.667 97.333 118 212 118 344c0 10.667 -0.666992 23.334 -2 38.001c-0.666992 8.66699 -1.66699 18.334 -3 29.001l201 -2
c-0.666992 -96.667 -19 -183.667 -55 -261zM389.502 1046.5c23.667 -23.667 35.5 -52.5 35.5 -86.5c0 -33.333 -11.833 -62 -35.5 -86s-52.167 -36 -85.5 -36c-34 0 -62.833 12 -86.5 36s-35.5 52.667 -35.5 86c0 34 11.833 62.833 35.5 86.5s52.5 35.5 86.5 35.5
c33.333 0 61.833 -11.833 85.5 -35.5z" />
    <glyph glyph-name="less" unicode="&#x3c;" horiz-adv-x="1196" 
d="M114 642v167l485 204.5l484 204.5v-189l-776 -304l388 -161l388 -160v-175z" />
    <glyph glyph-name="equal" unicode="=" horiz-adv-x="1196" 
d="M1082 865h-966v165h966v-165zM1082 419h-966v164h966v-164z" />
    <glyph glyph-name="greater" unicode="&#x3e;" horiz-adv-x="1196" 
d="M1083 642l-484 -206.5l-485 -206.5v175l775 321l-387.5 159l-387.5 159v175l484.5 -204.5l484.5 -204.5v-167z" />
    <glyph glyph-name="question" unicode="?" 
d="M476 362c-0.666992 12 -0.999023 22.333 -0.999023 31v22c0 70 10 130.667 30 182c7.33301 20 16.833 40 28.5 60s25.5 39.333 41.5 58c12 14.667 28.667 32.167 50 52.5s48 44.5 80 72.5v-1c32 28 58.167 53.167 78.5 75.5s35.166 41.833 44.499 58.5
c18.667 32.667 28 68.667 28 108c0 70.667 -27.667 132.667 -83 186c-56 54 -124 81 -204 81c-78 0 -143 -24 -195 -72s-86 -123.333 -102 -226c-30 3.33301 -59.833 7 -89.5 11s-59.834 7.66699 -90.501 11c16.667 136.667 65.834 241 147.501 313s190.5 108 326.5 108
c142.667 0 256.667 -39 342 -117s128 -172.333 128 -283c0 -63.333 -15 -122.333 -45 -177c-31.333 -55.333 -90 -121 -176 -197v1c-29.333 -25.333 -53.333 -47.833 -72 -67.5s-33 -36.167 -43 -49.5c-9.33301 -13.333 -17.5 -27 -24.5 -41s-12.833 -28.667 -17.5 -44
c-9.33301 -32 -14.333 -84 -15 -156h-167zM465.001 0v202h199v-202h-199z" />
    <glyph glyph-name="at" unicode="@" horiz-adv-x="2079" 
d="M1161 163c-43.333 -50.667 -91.6699 -90.998 -145.003 -120.998s-107 -45 -161 -45c-29.333 0 -58.5 4.5 -87.5 13.5s-56.833 22.333 -83.5 40s-51.667 39.667 -75 66s-44 57.166 -62 92.499c-34.667 72.667 -52 151.667 -52 237c0 104.667 27 210.667 81 318
c54.667 106.667 122.334 186.667 203.001 240c81.333 53.333 159.333 80 234 80c58 0 113.333 -15.667 166 -47s98.667 -79.333 138 -144c5.33301 26 11.333 53.167 18 81.5s12.667 55.166 18 80.499h174l-145 -672c-20 -93.333 -30 -145 -30 -155
c0 -18.667 7 -34.667 21 -48s31.333 -20 52 -20c18 0 39.167 5.33301 63.5 16s50.5 25.667 78.5 45c38 26.667 72.333 58.334 103 95.001s57 77 79 121c21.333 44 37.833 90 49.5 138s17.5 95.333 17.5 142c0 112 -28.667 216.667 -86 314c-58 96.667 -144 174.667 -258 234
c-114 58 -239.667 87 -377 87c-157.333 0 -300.666 -36.667 -429.999 -110c-66 -38 -124.167 -83 -174.5 -135s-93.5 -112.667 -129.5 -182c-70.667 -135.333 -106 -282 -106 -440c0 -164.667 35.333 -306.334 106 -425.001c36 -59.333 79.833 -111 131.5 -155
s111.834 -80 180.501 -108c134 -56.667 283.667 -85 449 -85c176.667 0 324 29.333 442 88c58.667 29.333 110.167 62 154.5 98s81.5 75 111.5 117h177c-17.333 -34 -40.833 -68.667 -70.5 -104s-64.167 -71 -103.5 -107c-42 -36.667 -87.5 -69.5 -136.5 -98.5
s-101.833 -53.5 -158.5 -73.5c-113.333 -43.333 -251 -65 -413 -65c-148.667 0 -285.167 19.167 -409.5 57.5s-231.166 95.833 -320.499 172.5c-43.333 38 -81.5 79.167 -114.5 123.5s-60.833 90.833 -83.5 139.5c-28 63.333 -49.167 129.166 -63.5 197.499
s-21.5 138.833 -21.5 211.5c0 162 33.667 317.333 101 466c81.333 180.667 196.833 319.167 346.5 415.5s331.167 144.5 544.5 144.5c166 0 314.667 -34.333 446 -103c63.333 -32 121.5 -74.167 174.5 -126.5s98.5 -110.833 136.5 -175.5
c31.333 -56.667 55.333 -117 72 -181s25 -129 25 -195c0 -194.667 -67.667 -366.667 -203 -516c-120.667 -134.667 -253.334 -202 -398.001 -202c-45.333 0 -81.833 7 -109.5 21s-48.5 33.667 -62.5 59c-8.66699 16.667 -15 45.334 -19 86.001zM674.996 434.002
c0 -91.333 22.002 -163 66.002 -215c43.333 -51.333 93.666 -77 150.999 -77c38 0 77.833 11.667 119.5 35s81.5 56.333 119.5 99c19.333 22.667 37 48 53 76s30 58.667 42 92c24 68 36 136.333 36 205c0 90.667 -23 161.667 -69 213s-101.667 77 -167 77
c-43.333 0 -84 -11 -122 -33s-75 -57.333 -111 -106c-36.667 -50 -65.334 -108.667 -86.001 -176c-21.333 -70 -32 -133.333 -32 -190z" />
    <glyph glyph-name="A" unicode="A" horiz-adv-x="1366" 
d="M0 0l282 733l282 733h203l300.5 -733l300.5 -733h-215l-171 445h-621l-39.5 -108.5l-41 -114l-41 -114l-39.5 -108.5h-200zM416 600h506.999l-155 410c-23.333 60.667 -43.5 116.5 -60.5 167.5s-31.5 97.167 -43.5 138.5l-6 -1
c-9.33301 -47.333 -20.666 -94.5 -33.999 -141.5s-28.333 -93.5 -45 -139.5z" />
    <glyph glyph-name="B" unicode="B" horiz-adv-x="1366" 
d="M152 0l0.000976562 1466h549c56 0 106.167 -3.66699 150.5 -11s83.666 -18.5 117.999 -33.5s64.333 -33.833 90 -56.5s48.167 -49.334 67.5 -80.001c38.667 -61.333 58 -125.666 58 -192.999c0 -62.667 -17.167 -121.834 -51.5 -177.501s-86.5 -100.834 -156.5 -135.501
c90 -26.667 159 -71 207 -133s72 -136 72 -222c0 -67.333 -14.667 -131 -44 -191c-28 -58.667 -63.333 -104 -106 -136s-96 -56.167 -160 -72.5s-142.667 -24.5 -236 -24.5h-558zM341.001 848.002l321.001 0.000976562c42.667 0 79.667 1.5 111 4.5s56.333 7.16699 75 12.5
c50 15.333 87.833 40.166 113.5 74.499s38.5 77.5 38.5 129.5c0 48.667 -12 91.5 -36 128.5s-58 62.833 -102 77.5c-21.333 7.33301 -50.833 12.833 -88.5 16.5s-82.834 5.5 -135.501 5.5h-297v-449zM341.002 169.003l369.001 -0.00195312c31.333 0 58.166 0.5 80.499 1.5
s39.833 2.83301 52.5 5.5c44.667 8.66699 82.334 22.334 113.001 41.001s56 46 76 82c19.333 36.667 29 78.334 29 125.001c0 26.667 -3.83301 52 -11.5 76s-18.667 46 -33 66s-31.5 37.5 -51.5 52.5s-42 26.833 -66 35.5c-24.667 8 -55.334 14.167 -92.001 18.5
s-77.667 6.5 -123 6.5h-343v-510z" />
    <glyph glyph-name="C" unicode="C" horiz-adv-x="1479" 
d="M1398 462c-39.333 -155.333 -112.666 -275.998 -219.999 -361.998c-105.333 -83.333 -234 -125 -386 -125c-78.667 0 -149.834 8.16699 -213.501 24.5s-120.5 40.333 -170.5 72s-93.833 70.834 -131.5 117.501s-69.5 100.667 -95.5 162
c-51.333 122.667 -77 253.667 -77 393c0 152.667 29 285.667 87 399c30 56.667 65.833 106.667 107.5 150s88.5 79.666 140.5 108.999c53.333 28 110.333 49.833 171 65.5s122.334 23.5 185.001 23.5c146.667 0 269.667 -37.333 369 -112
c99.333 -74 168.666 -178.333 207.999 -313l-93.5 -21.5l-92.5 -21.5c-34 106 -83.667 183.5 -149 232.5s-147.333 73.5 -246 73.5c-114 0 -209.333 -27.333 -286 -82c-75.333 -54 -128.666 -127 -159.999 -219c-30.667 -90 -46 -184.333 -46 -283
c0 -62.667 4.5 -121.667 13.5 -177s22.667 -105.833 41 -151.5s41.666 -86.334 69.999 -122.001s61.833 -64.834 100.5 -87.501c77.333 -46.667 161.333 -70 252 -70c54.667 0 105.334 7.83301 152.001 23.5s88.5 39.167 125.5 70.5s68.667 70.333 95 117
s46.166 100.667 59.499 162z" />
    <glyph glyph-name="D" unicode="D" horiz-adv-x="1479" 
d="M160 0v1466h504c113.333 0 200 -7 260 -21c42 -9.33301 80.833 -22.666 116.5 -39.999s68.5 -39 98.5 -65c77.333 -66 135.166 -149.5 173.499 -250.5s57.5 -217.167 57.5 -348.5c0 -84.667 -7.66699 -161.334 -23 -230.001s-35.666 -129.667 -60.999 -183
s-54.333 -99 -87 -137s-66.667 -69 -102 -93c-48 -32 -106 -56.333 -174 -73s-146.333 -25 -235 -25h-528zM349 169l317 0.000976562c98 0 174 9.33301 228 28c56 18 100.667 43.667 134 77c46.667 46.667 82.834 108.667 108.501 186s38.5 172 38.5 284
c0 153.333 -25.333 271.666 -76 354.999c-24.667 39.333 -52.834 73.5 -84.501 102.5s-65.5 50.5 -101.5 64.5c-51.333 20.667 -135.333 31 -252 31h-312v-1128z" />
    <glyph glyph-name="E" unicode="E" horiz-adv-x="1366" 
d="M164 0v1466h1057v-169h-868v-455h813v-168h-813v-505h902v-169h-1091z" />
    <glyph glyph-name="F" unicode="F" horiz-adv-x="1251" 
d="M171 0v1466h985v-169h-797v-460h690v-169h-690v-668h-188z" />
    <glyph glyph-name="G" unicode="G" horiz-adv-x="1593" 
d="M848 577v168.001c104 0 206.833 0.166992 308.5 0.5s204.5 0.5 308.5 0.5v-542c-95.333 -74.667 -193.833 -131.5 -295.5 -170.5s-205.167 -58.5 -310.5 -58.5c-70.667 0 -139 7.83301 -205 23.5s-128.667 38.5 -188 68.5c-55.333 30 -105.833 68 -151.5 114
s-83.5 97.333 -113.5 154c-28.667 58 -50.834 120.167 -66.501 186.5s-23.5 134.5 -23.5 204.5c0 69.333 7.83301 138 23.5 206s37.5 132.333 65.5 193c30 59.333 67 112.833 111 160.5s92.667 86.167 146 115.5c55.333 28.667 116 50.834 182 66.501s134.333 23.5 205 23.5
c107.333 0 203 -17.333 287 -52c84.667 -34 152 -81.333 202 -142c23.333 -30 44.333 -65.333 63 -106s34.334 -85 47.001 -133l-85 -23l-86 -23c-20.667 70.667 -48 128.667 -82 174c-17.333 21.333 -37.666 40.833 -60.999 58.5s-50 32.834 -80 45.501
c-61.333 26 -129.333 39 -204 39c-68.667 0 -129.334 -8 -182.001 -24s-98.667 -37.5 -138 -64.5s-72.333 -58.333 -99 -94s-48 -72.834 -64 -111.501c-37.333 -92 -56 -191 -56 -297c0 -64 6.16699 -123.333 18.5 -178s30 -104.334 53 -149.001s50.833 -83.667 83.5 -117
s69.667 -61 111 -83c86.667 -43.333 178.667 -65 276 -65c86 0 168.667 16.333 248 49c40 16.667 75.333 33.667 106 51s56.667 35.666 78 54.999v276h-432z" />
    <glyph glyph-name="H" unicode="H" horiz-adv-x="1479" 
d="M166 0v1466h189v-604h770v604h189v-1466h-189v693h-770v-693h-189z" />
    <glyph glyph-name="I" unicode="I" horiz-adv-x="569" 
d="M194 0v1466h189v-1466h-189z" />
    <glyph glyph-name="J" unicode="J" horiz-adv-x="1024" 
d="M247 436c5.33301 -110.667 26.665 -186.668 63.998 -228.001c38 -42.667 90.667 -64 158 -64c50 0 92.833 11.333 128.5 34s60.167 53.334 73.5 92.001c13.333 40 20 101.667 20 185v1011h189v-1000c0 -122 -15 -217 -45 -285c-29.333 -68 -76 -119 -140 -153
c-64.667 -35.333 -139.667 -53 -225 -53c-62.667 0 -118.167 9.83301 -166.5 29.5s-89.166 48.167 -122.499 85.5s-58.666 83.333 -75.999 138s-26.333 116.667 -27 186z" />
    <glyph glyph-name="K" unicode="K" horiz-adv-x="1366" 
d="M152 0v1466h189v-733l112 112.5l124 124l130 129.5l130.5 130l124.5 124l113 113h258l-615 -594l321 -435.5l322 -436.5h-252l-524 745l-244 -238v-507h-189z" />
    <glyph glyph-name="L" unicode="L" 
d="M153 0v1466h188v-1297h724v-169h-912z" />
    <glyph glyph-name="M" unicode="M" horiz-adv-x="1706" 
d="M154 0v1466h287l174 -520l174 -520l43 -131.5l30 -94.5l34 103.5l47 140.5l176 511l176 511h256v-1466h-181v1229l-6 1l-214 -615l-214 -615h-169l-425 1251l-6 -1v-1250h-182z" />
    <glyph glyph-name="N" unicode="N" horiz-adv-x="1479" 
d="M158 0v1466h196l776 -1160v1160h181v-1466h-196l-776 1161v-1161h-181z" />
    <glyph glyph-name="O" unicode="O" horiz-adv-x="1593" 
d="M101 714c0 244.667 65.333 435.335 196 572.002c131.333 137.333 299.666 206 504.999 206c134.667 0 256.334 -32.333 365.001 -97c108 -64.667 190.667 -155 248 -271s86 -247 86 -393c0 -149.333 -30 -282.333 -90 -399c-30 -58 -66.667 -109.5 -110 -154.5
s-91.333 -82.5 -144 -112.5c-54 -28.667 -111.333 -50.834 -172 -66.501s-122 -23.5 -184 -23.5c-137.333 0 -260.333 33.333 -369 100c-54 34 -101.5 73.667 -142.5 119s-75.833 96.666 -104.5 153.999c-56 114.667 -84 236.667 -84 366zM296 711.001
c0 -178 47.667 -317.996 143 -419.996c96.667 -102.667 217 -154 361 -154c148 0 269 52 363 156c95.333 103.333 143 249.666 143 438.999c0 58.667 -5.5 114.167 -16.5 166.5s-26.667 100.666 -47 144.999s-45.333 84.166 -75 119.499s-63.167 65.666 -100.5 90.999
c-77.333 50 -165.333 75 -264 75c-68 0 -132.333 -12.5 -193 -37.5s-115.667 -60.5 -165 -106.5c-46.667 -48 -83.167 -112 -109.5 -192s-39.5 -174 -39.5 -282z" />
    <glyph glyph-name="P" unicode="P" horiz-adv-x="1366" 
d="M160 0v1466h552c48 0 90.667 -1.16699 128 -3.5s69 -5.83301 95 -10.5c72 -12 131.833 -34.833 179.5 -68.5s86.5 -80.834 116.5 -141.501c15.333 -30.667 26.833 -62.5 34.5 -95.5s11.5 -67.5 11.5 -103.5c0 -124 -39.667 -229.667 -119 -317
c-79.333 -85.333 -222.333 -128 -429 -128h-380v-598h-189zM349 767.001l382.999 -0.000976562c126.667 0 216.667 23.667 270 71s80 113.666 80 198.999c0 62.667 -15.667 115.834 -47 159.501s-72.666 72.834 -123.999 87.501c-32.667 8.66699 -93.667 13 -183 13h-379
v-530z" />
    <glyph glyph-name="Q" unicode="Q" horiz-adv-x="1593" 
d="M1269 153c44.667 -30.667 87.499 -57 128.499 -79s80.833 -40.667 119.5 -56l-27.5 -65.5l-27.5 -65.5c-102.667 36.667 -207 96.667 -313 180c-108.667 -61.333 -229.334 -92 -362.001 -92c-132 0 -252 32 -360 96c-54 32 -101.667 70.667 -143 116
s-77 96.666 -107 153.999c-27.333 56.667 -48.666 118.667 -63.999 186s-23 136 -23 206c0 145.333 29.333 277 88 395c30 58.667 66 110.834 108 156.501s89 83.834 141 114.501c54 30 111.667 53 173 69s125 24 191 24c134.667 0 256.334 -32.333 365.001 -97
c108 -64 190.667 -154 248 -270s86 -246.333 86 -391c0 -242.667 -73.667 -435.334 -221 -578.001v-3zM845.999 401c110 -30.667 201.667 -77.333 275 -140c116 106 174 263.667 174 473c0 58 -5.5 113.167 -16.5 165.5s-26.667 100.5 -47 144.5s-45.333 83.667 -75 119
s-63.167 65.666 -100.5 90.999c-77.333 50 -165.333 75 -264 75c-145.333 0 -266.333 -50.333 -363 -151c-96 -100 -144 -248.333 -144 -445c0 -191.333 47.333 -338.333 142 -441c95.333 -103.333 217 -155 365 -155c68.667 0 136 13.667 202 41
c-64 40.667 -128.667 69.334 -194 86.001z" />
    <glyph glyph-name="R" unicode="R" horiz-adv-x="1479" 
d="M163 0l0.00292969 1466h649c131.333 0 230.666 -13.333 297.999 -40c66 -24.667 119.667 -70.667 161 -138c41.333 -68.667 62 -142.334 62 -221.001c0 -104 -33.667 -191.667 -101 -263c-33.333 -35.333 -76.333 -64.5 -129 -87.5s-115.667 -39.167 -189 -48.5
c28 -13.333 52.167 -26.333 72.5 -39s37.166 -24.667 50.499 -36c26 -24.667 53.167 -54.167 81.5 -88.5s54.5 -70.166 78.5 -107.499l127 -198.5l127 -198.5h-238l-193 305c-28.667 45.333 -54.5 84.5 -77.5 117.5s-44.167 61.5 -63.5 85.5s-37 43.833 -53 59.5
s-31.5 28.667 -46.5 39s-29.667 18.5 -44 24.5s-29.5 11 -45.5 15c-20.667 4.66699 -57.334 7 -110.001 7h-228v-653h-189zM352.003 817l420.999 -0.00292969c44.667 0 84.334 2.16699 119.001 6.5s65.167 11.333 91.5 21s48.833 21.834 67.5 36.501
s34.667 32.334 48 53.001c26 40.667 39 85 39 133c0 68.667 -25.667 126 -77 172c-25.333 22.667 -58.5 39.834 -99.5 51.501s-88.167 17.5 -141.5 17.5h-468v-491z" />
    <glyph glyph-name="S" unicode="S" horiz-adv-x="1366" 
d="M272 484c4 -36.667 11.001 -69.833 21.001 -99.5s23.333 -56.5 40 -80.5s37.167 -45.5 61.5 -64.5s53.5 -35.833 87.5 -50.5c66.667 -29.333 142.334 -44 227.001 -44c57.333 -0.666992 109 5.66602 155 18.999s85 31.5 117 54.5s56.333 50 73 81
s24.334 63.5 23.001 97.5c0 46 -14.333 86.667 -43 122s-72.334 64.666 -131.001 87.999c-21.333 7.33301 -54 17.166 -98 29.499s-98.667 26.166 -164 41.499c-68.667 16.667 -126.334 32.5 -173.001 47.5s-83.667 29.833 -111 44.5c-70 36 -122 81.167 -156 135.5
s-51 115.166 -51 182.499c0 72 21.333 141 64 207s103.334 114.667 182.001 146c82 33.333 171.667 50 269 50c108 0 203.333 -17.333 286 -52s146.334 -86 191.001 -154c45.333 -69.333 69.333 -145.666 72 -228.999c-30.667 -2 -60.667 -4.33301 -90 -7s-59.333 -5 -90 -7
c-10.667 92.667 -45.334 162.834 -104.001 210.501s-144.334 71.5 -257.001 71.5c-119.333 0 -206 -22 -260 -66s-81 -96.333 -81 -157c0 -26 5 -50 15 -72s24.333 -41.667 43 -59c19.333 -17.333 53.666 -35 102.999 -53s113 -36 191 -54
c77.333 -17.333 143.5 -33.833 198.5 -49.5s97.5 -30.167 127.5 -43.5c83.333 -40 145.666 -90 186.999 -150s62 -129 62 -207c0 -77.333 -22.667 -150.666 -68 -219.999c-22.667 -35.333 -49.667 -66.166 -81 -92.499s-68 -49.166 -110 -68.499
c-83.333 -38 -177.333 -57 -282 -57c-133.333 0 -244.333 19.167 -333 57.5s-159 96.5 -211 174.5h1c-26 39.333 -45.667 80.5 -59 123.5s-20.666 88.833 -21.999 137.5z" />
    <glyph glyph-name="T" unicode="T" horiz-adv-x="1251" 
d="M535 0v1297h-485v169h1159v-169h-486v-1297h-188z" />
    <glyph glyph-name="U" unicode="U" horiz-adv-x="1479" 
d="M1125 1466l189.001 -0.000976562v-847c0 -147.333 -17 -264.333 -51 -351c-16.667 -44 -40 -83.333 -70 -118s-66.667 -66 -110 -94c-87.333 -54 -201 -81 -341 -81c-67.333 0 -128.666 6.33301 -183.999 19s-104.833 31 -148.5 55s-81.334 53 -113.001 87
s-57.167 72.333 -76.5 115c-18.667 45.333 -32.834 98.833 -42.501 160.5s-14.5 130.834 -14.5 207.501v847h189v-846c0 -127.333 11.667 -222 35 -284c23.333 -60 64.333 -106.667 123 -140c58 -33.333 129.667 -50 215 -50c144 0 246.667 33 308 99
c61.333 65.333 92 190.333 92 375v846z" />
    <glyph glyph-name="V" unicode="V" horiz-adv-x="1366" 
d="M581 0l-284.501 733l-284.5 733h204l382 -1067c15.333 -42.667 29.833 -85.834 43.5 -129.501s25.834 -84.5 36.501 -122.5c11.333 40.667 24 82.834 38 126.501s28.667 85.5 44 125.5l199 533.5l198 533.5h192l-287.5 -733l-287.5 -733h-193z" />
    <glyph glyph-name="W" unicode="W" horiz-adv-x="1933" 
d="M417 0l-195.002 732.998l-194 733h192l224 -962c12 -50.667 23.167 -101 33.5 -151s19.833 -100 28.5 -150h6c36.667 155.333 58.667 245.666 66 270.999l140.5 496l139.5 496h229l210 -743c26.667 -93.333 49.5 -183 68.5 -269s34.5 -169.667 46.5 -251h6
c9.33301 46.667 20 96.5 32 149.5s25.667 109.833 41 170.5l115 471.5l115 471.5h189l-201 -733l-201 -733h-182l-310 1119c-13.333 46.667 -23.666 84.334 -30.999 113.001s-12.333 48.667 -15 60h-6c-7.33301 -33.333 -14.666 -64.666 -21.999 -93.999
s-14.333 -55.666 -21 -78.999l-155 -559.5l-157 -559.5h-192z" />
    <glyph glyph-name="X" unicode="X" horiz-adv-x="1366" 
d="M12 0l567.999 764.001l-250.5 351l-250.5 351h227l132.5 -188l133.5 -188l69 -102c20.667 -32 37.667 -60 51 -84l58 89.5c19.333 29 39.333 56.833 60 83.5l148 194.5l147 194.5h207l-516 -691l278 -387.5l278 -387.5h-236l-184.5 261.5l-184.5 261.5
c-10.667 15.333 -21.5 32.166 -32.5 50.499l-33.5 53.5l-42.5 -69.5c-12.333 -20.333 -22.166 -35.833 -29.499 -46.5l-184.5 -255.5l-183.5 -255.5h-229z" />
    <glyph glyph-name="Y" unicode="Y" horiz-adv-x="1366" 
d="M575 0v621l-283 422l-283 423h231l144 -221l145 -221l78.5 -127l73.5 -127c21.333 38 46 79.667 74 125l89 140l142.5 215.5l141.5 215.5h221l-586 -845v-621h-188z" />
    <glyph glyph-name="Z" unicode="Z" horiz-adv-x="1251" 
d="M43 0v178l-1 -1l753 942c26.667 34 53 65.667 79 95l77 83h-822v169h1046v-171l1 1l-412 -510l-413 -510l-92 -107h940v-169h-1156z" />
    <glyph glyph-name="bracketleft" unicode="[" horiz-adv-x="569" 
d="M142 -409v1877h392v-146h-217v-1585h217v-146h-392z" />
    <glyph glyph-name="backslash" unicode="\" horiz-adv-x="569" 
d="M429 -25l-212.5 759l-213.5 759h139l425 -1518h-138z" />
    <glyph glyph-name="bracketright" unicode="]" horiz-adv-x="569" 
d="M434 -409h-392v146h218v1585h-218v146h392v-1877z" />
    <glyph glyph-name="asciicircum" unicode="^" horiz-adv-x="961" 
d="M236 693h-179l177 400l177 400h139l178 -400l178 -400h-175l-251 605z" />
    <glyph glyph-name="underscore" unicode="_" 
d="M-29 -409v127h1191v-127h-1191z" />
    <glyph glyph-name="grave" unicode="`" horiz-adv-x="682" 
d="M461 1199h-139l-114.5 138l-113.5 139h234z" />
    <glyph glyph-name="a" unicode="a" 
d="M828 131c-34 -28.667 -66.8359 -53.001 -98.5029 -73.001s-63.167 -35.667 -94.5 -47c-62 -23.333 -127.667 -35 -197 -35c-116.667 0 -206 28 -268 84c-62.667 56 -94 129 -94 219c0 40 6.83301 76.667 20.5 110s32.167 63 55.5 89s50.5 47.833 81.5 65.5
s64.167 30.834 99.5 39.501c17.333 4.66699 39.833 9.16699 67.5 13.5s58.5 8.83301 92.5 13.5c71.333 8.66699 134.666 18.167 189.999 28.5s100.333 22.166 135 35.499c0.666992 12.667 1 23 1 31v17c0 72.667 -17.333 124.667 -52 156
c-23.333 20 -52.666 35.5 -87.999 46.5s-75.333 16.5 -120 16.5c-41.333 0 -78.333 -4.33301 -111 -13s-59.334 -19.667 -80.001 -33c-40.667 -29.333 -70.667 -81.333 -90 -156c-28.667 4 -57 7.66699 -85 11s-56.667 7 -86 11c16 73.333 42.5 133.5 79.5 180.5
s89.5 82.5 157.5 106.5c70 25.333 150.333 38 241 38s164.334 -10.667 221.001 -32s98 -48 124 -80c12.667 -14.667 23.834 -33 33.501 -55s17.167 -44.333 22.5 -67c2.66699 -16 4.83398 -38.167 6.50098 -66.5s2.5 -61.5 2.5 -99.5v-241c0 -84.667 1 -153.334 3 -206.001
s4.66699 -90.667 8 -114c3.33301 -21.333 8.83301 -42.666 16.5 -63.999s16.834 -41.666 27.501 -60.999h-182c-8.66699 17.333 -16 37.5 -22 60.5s-10.333 45.833 -13 68.5zM817.997 536.999c-34.667 -14 -76.832 -26.834 -126.499 -38.501
s-106.834 -22.167 -171.501 -31.5c-76.667 -11.333 -129.667 -23.333 -159 -36c-30.667 -13.333 -55 -33.666 -73 -60.999h1c-17.333 -25.333 -26 -54 -26 -86c0 -24 4.66699 -46.5 14 -67.5s23.166 -39.167 41.499 -54.5s41 -27.333 68 -36s58.5 -13 94.5 -13
c35.333 0 68.833 4 100.5 12s60.667 19.5 87 34.5s49.833 33 70.5 54s37.334 44.833 50.001 71.5c19.333 42 29 102.667 29 182v70z" />
    <glyph glyph-name="b" unicode="b" 
d="M298 0h-161.998v1468h175v-530c78.667 98.667 177 148 295 148c66 0 127.833 -13 185.5 -39s105.167 -63 142.5 -111c38 -48 67.667 -105.5 89 -172.5s32 -139.167 32 -216.5c0 -183.333 -45 -324.333 -135 -423c-90.667 -98.667 -198.334 -148 -323.001 -148
c-62.667 0 -118.834 13.5 -168.501 40.5s-93.167 68.167 -130.5 123.5v-140zM296.002 539c0 -127.333 17.332 -220.001 51.999 -278.001c29.333 -46 63.5 -81 102.5 -105s82.833 -36 131.5 -36c80.667 0 149.667 34.667 207 104c58 70 87 172.667 87 308
c0 138.667 -28 241.667 -84 309c-55.333 67.333 -122.666 101 -201.999 101s-148.333 -35 -207 -105c-58 -69.333 -87 -168.666 -87 -297.999z" />
    <glyph glyph-name="c" unicode="c" horiz-adv-x="1024" 
d="M1005 363c-18.667 -120 -68.3369 -214.666 -149.004 -283.999c-78.667 -68.667 -176 -103 -292 -103c-145.333 0 -262 47 -350 141c-88 94.667 -132 231.334 -132 410.001c0 57.333 4.66699 111.333 14 162s23.5 97.167 42.5 139.5s42.833 79.666 71.5 111.999
s62.334 59.166 101.001 80.499c78.667 43.333 163.334 65 254.001 65c56.667 0 108.5 -7.5 155.5 -22.5s88.5 -36.833 124.5 -65.5s66.167 -63.667 90.5 -105s41.833 -88.333 52.5 -141c-29.333 -4.66699 -58 -8.83398 -86 -12.501s-56.333 -7.83398 -85 -12.501
c-17.333 70.667 -47.166 124.167 -89.499 160.5s-94.166 54.5 -155.499 54.5c-46 0 -87.333 -8.33301 -124 -25s-70 -41.667 -100 -75c-57.333 -65.333 -86 -168.666 -86 -309.999c0 -143.333 27.667 -247.666 83 -312.999c56 -66 128.333 -99 217 -99
c72 0 132 21.833 180 65.5s78.333 110.5 91 200.5z" />
    <glyph glyph-name="d" unicode="d" 
d="M829 0l-0.000976562 143.001c-70 -111.333 -170.333 -167 -301 -167c-84.667 0 -162.334 23.333 -233.001 70c-69.333 45.333 -124.333 110.333 -165 195c-38.667 83.333 -58 179.666 -58 288.999c0 105.333 17.667 201.333 53 288c36.667 86.667 89.667 153 159 199
c70.667 46 149.334 69 236.001 69c64 0 121.333 -14 172 -42s92.334 -64.667 125.001 -110v534h174v-1468h-162zM251.999 530.001c0 -136.667 28.999 -239 86.999 -307c58.667 -68.667 127.334 -103 206.001 -103c80 0 147.667 32.667 203 98c56 66 84 165 84 297
c0 146 -28.333 253.333 -85 322c-57.333 69.333 -127.333 104 -210 104c-80.667 0 -148.667 -33.333 -204 -100c-54 -66 -81 -169.667 -81 -311z" />
    <glyph glyph-name="e" unicode="e" 
d="M1047 316c-30 -108.667 -84.168 -192.5 -162.501 -251.5s-179.166 -88.5 -302.499 -88.5c-155.333 0 -278.333 47.333 -369 142c-90.667 95.333 -136 230 -136 404c0 91.333 11.5 171.166 34.5 239.499s57.5 127.5 103.5 177.5c90.667 98 209.667 147 357 147
c142 0 257.667 -48 347 -144c90 -97.333 135 -233.666 135 -408.999v-19c0 -7.33301 -0.333008 -16.333 -1 -27h-795c6.66699 -118.667 40 -209.334 100 -272.001c60 -63.333 135 -95 225 -95c66.667 0 123.667 17.833 171 53.5s85 90.834 113 165.501zM868.999 631
c-8 90.667 -31 159 -69 205c-58.667 70.667 -134 106 -226 106c-42 0 -80.333 -7.16699 -115 -21.5s-67 -35.5 -97 -63.5c-56.667 -54.667 -88 -130 -94 -226h601z" />
    <glyph glyph-name="f" unicode="f" horiz-adv-x="569" 
d="M181 0l-0.000976562 925h-160v137h160v115c0 69.333 6.33301 122.333 19 159c8.66699 22 20.834 42.5 36.501 61.5s34.667 35.667 57 50s48.333 25.5 78 33.5s63.5 12 101.5 12c25.333 0 51.666 -1.33301 78.999 -4s56.333 -7 87 -13c-4.66699 -26 -9 -51.833 -13 -77.5
s-8.33301 -51.167 -13 -76.5c-17.333 3.33301 -35.166 5.66602 -53.499 6.99902s-35.5 2 -51.5 2c-54.667 0 -94 -12 -118 -36c-23.333 -23.333 -35 -67.666 -35 -132.999v-100h207v-137h-207v-925h-174z" />
    <glyph glyph-name="g" unicode="g" 
d="M274 -118c6.66699 -54 27.334 -93.666 62.001 -118.999c45.333 -33.333 107.333 -50 186 -50c84.667 0 150 16.667 196 50s77 80.666 93 141.999c4 17.333 7.16699 42.666 9.5 75.999s3.5 75.666 3.5 126.999v37c-82 -96.667 -181.333 -145 -298 -145
c-145.333 0 -258 52.667 -338 158c-80 104 -120 230.333 -120 379c0 50 4.5 98.5 13.5 145.5s22.833 91.833 41.5 134.5c38.667 86.667 91.667 153 159 199c34.667 22.667 72.667 40 114 52s85 18 131 18c125.333 0 230 -52.667 314 -158v134h161v-919
c0 -166 -17 -283.333 -51 -352c-34.667 -69.333 -87.667 -123.666 -159 -162.999c-72.667 -40.667 -162.334 -61 -269.001 -61c-126 0 -228 29 -306 87c-38.667 28.667 -67.5 63.834 -86.5 105.501s-27.833 91.167 -26.5 148.5zM248 550.001
c0 -140 28.002 -242.334 84.002 -307.001c28 -32.667 59.667 -57 95 -73s74 -24 116 -24c84.667 0 155 32 211 96c56.667 64.667 85 165.334 85 302.001c0 64.667 -7.66699 121.667 -23 171s-37 91 -65 125c-28.667 32.667 -60.834 57.667 -96.501 75
s-73.834 26 -114.501 26c-80.667 0 -149.667 -33.333 -207 -100c-56.667 -65.333 -85 -162.333 -85 -291z" />
    <glyph glyph-name="h" unicode="h" 
d="M137 0l0.00292969 1468h175v-533c87.333 100.667 194.666 151 321.999 151c78.667 0 146.667 -15.5 204 -46.5s98.666 -73.833 123.999 -128.5c25.333 -56 38 -135 38 -237v-674h-175v674c0 90.667 -19.833 156.834 -59.5 198.501s-95.834 62.5 -168.501 62.5
c-54 0 -105 -14.333 -153 -43h1c-48.667 -27.333 -83 -65 -103 -113c-20 -47.333 -30 -113.333 -30 -198v-581h-175z" />
    <glyph glyph-name="i" unicode="i" horiz-adv-x="455" 
d="M139 1264v204h175v-204h-175zM139 0v1062h175v-1062h-175z" />
    <glyph glyph-name="j" unicode="j" horiz-adv-x="455" 
d="M137 1262v206h175v-206h-175zM-58 -265c16.667 -4 31.999 -7.16797 45.999 -9.50098s26.333 -3.5 37 -3.5c38 0 66 12.667 84 38c18.667 26.667 28 88 28 184v1118h175v-1122c0 -131.333 -17 -222.333 -51 -273c-42.667 -66.667 -114 -100 -214 -100
c-23.333 0 -46.666 1.33301 -69.999 4s-46.333 7.33398 -69 14.001z" />
    <glyph glyph-name="k" unicode="k" horiz-adv-x="1024" 
d="M138 0v1468h175v-844l215.5 218.5l216.5 219.5h228l-406 -393l224 -334.5l224 -334.5h-217l-353 547l-132 -126v-421h-175z" />
    <glyph glyph-name="l" unicode="l" horiz-adv-x="455" 
d="M134 0v1468h175v-1468h-175z" />
    <glyph glyph-name="m" unicode="m" horiz-adv-x="1706" 
d="M137 0l-0.00195312 1062h155v-158c36 55.333 81.833 99.5 137.5 132.5s118.834 49.5 189.501 49.5c78 0 142.167 -16.667 192.5 -50s86.166 -80.333 107.499 -141c85.333 127.333 195.333 191 330 191c105.333 0 186 -28.833 242 -86.5s84 -147.5 84 -269.5v-730h-173
v670c0 72.667 -6 124.667 -18 156c-11.333 31.333 -33 57.333 -65 78c-15.333 9.33301 -32.166 16.666 -50.499 21.999s-38.166 8 -59.499 8c-76.667 0 -139.667 -25.667 -189 -77c-50 -50 -75 -130 -75 -240v-617h-175v691c0 80.667 -14.833 141.334 -44.5 182.001
s-78.5 61 -146.5 61c-52.667 0 -100.667 -13.667 -144 -41c-44 -27.333 -75.333 -66.666 -94 -117.999c-19.333 -52 -29 -126.667 -29 -224v-551h-175z" />
    <glyph glyph-name="n" unicode="n" 
d="M137 0v1062h157v-159c80.667 122 194.667 183 342 183c63.333 0 122 -11.667 176 -35c53.333 -22.667 93.333 -52.334 120 -89.001c12.667 -17.333 23.834 -38 33.501 -62s17.167 -47.667 22.5 -71c3.33301 -16.667 5.83301 -39.667 7.5 -69s2.5 -65 2.5 -107v-653h-175
v646c0 36 -1.83301 68.167 -5.5 96.5s-8.83398 51.5 -15.501 69.5c-7.33301 17.333 -17.5 33.666 -30.5 48.999s-28.167 28.333 -45.5 39s-37 19 -59 25s-45 9 -69 9c-76.667 0 -144 -25 -202 -75c-56 -50 -84 -143 -84 -279v-580h-175z" />
    <glyph glyph-name="o" unicode="o" 
d="M70 531c0 96.667 14.333 181.667 43 255s69 134 121 182c45.333 38 96.166 67.167 152.499 87.5s116.5 30.5 180.5 30.5c144.667 0 263.667 -47.667 357 -143c92.667 -94.667 139 -227 139 -397c0 -136 -20.667 -243.667 -62 -323
c-41.333 -80 -100.666 -140.667 -177.999 -182c-78.667 -43.333 -164 -65 -256 -65c-147.333 0 -267.333 47.333 -360 142c-91.333 95.333 -137 233 -137 413zM567 120c91.333 0 166.668 34.667 226.001 104c60 68.667 90 173 90 313c0 64.667 -8 122.334 -24 173.001
s-38.333 93 -67 127c-30 34 -63.833 59.833 -101.5 77.5s-78.834 26.5 -123.501 26.5c-90.667 0 -166.334 -34.333 -227.001 -103c-60 -68 -90 -170.333 -90 -307s30 -239.334 90 -308.001c60.667 -68.667 136.334 -103 227.001 -103z" />
    <glyph glyph-name="p" unicode="p" 
d="M137 -409l0.00195312 1471h159v-145c40 56.667 84.667 99 134 127s108.666 42 177.999 42c44.667 0 87 -6.16699 127 -18.5s76.833 -30 110.5 -53s64 -51 91 -84s49.5 -70.5 67.5 -112.5c17.333 -42 30.5 -86.5 39.5 -133.5s13.5 -95.5 13.5 -145.5
c0 -108 -19.667 -206 -59 -294c-40.667 -87.333 -97.334 -154 -170.001 -200c-74 -46 -151.667 -69 -233 -69c-60 0 -114.167 13.167 -162.5 39.5s-88.5 59.5 -120.5 99.5v-524h-175zM583.002 120c80 0 149.334 34.332 208.001 102.999c58 68.667 87 174.334 87 317.001
c0 136.667 -28.333 238.667 -85 306c-56.667 68.667 -124 103 -202 103c-38.667 0 -75.334 -9.33301 -110.001 -28s-67 -46 -97 -82c-28.667 -36 -50.667 -80.5 -66 -133.5s-23 -113.167 -23 -180.5c0 -137.333 28 -239 84 -305c57.333 -66.667 125.333 -100 204 -100z" />
    <glyph glyph-name="q" unicode="q" 
d="M817 -409v528c-32 -44 -72.667 -78.667 -122 -104c-51.333 -26 -104.666 -39 -159.999 -39c-126.667 0 -235 50 -325 150c-90.667 100.667 -136 239 -136 415c0 107.333 18.333 203 55 287c38.667 86 92.334 150 161.001 192c70 44 147 66 231 66
c65.333 0 124.166 -14.167 176.499 -42.5s98.166 -71.833 137.499 -130.5v149h157v-1471h-175zM254 534c0 -136.667 29 -240.001 87 -310.001c57.333 -69.333 127 -104 209 -104c78 0 145 33 201 99s84 165.667 84 299c0 68.667 -7.66699 130.334 -23 185.001
s-37.333 100 -66 136c-29.333 35.333 -61.333 62.333 -96 81s-72 28 -112 28c-78.667 0 -146 -34 -202 -102c-54.667 -66.667 -82 -170.667 -82 -312z" />
    <glyph glyph-name="r" unicode="r" horiz-adv-x="682" 
d="M136 0l-0.000976562 1062h156v-161l5 -1c40.667 75.333 79 125.333 115 150c34.667 24 72.667 36 114 36c30 0 59.833 -4.66699 89.5 -14s60.5 -23.666 92.5 -42.999l-60 -163c-21.333 11.333 -43.166 20.333 -65.499 27s-44.166 10 -65.499 10
c-40.667 0 -76.834 -11.833 -108.501 -35.5s-54.5 -56.834 -68.5 -99.501c-20 -64 -30 -134.667 -30 -212v-556h-174z" />
    <glyph glyph-name="s" unicode="s" horiz-adv-x="1024" 
d="M238 342c10 -72 38.1709 -127.003 84.5039 -165.003s111.166 -57 194.499 -57s145.666 17 186.999 51c40.667 34.667 61 75 61 121c0 42 -18 74.667 -54 98c-12.667 8.66699 -34.334 18 -65.001 28s-71 21.333 -121 34c-132.667 33.333 -224.667 62 -276 86
c-24 11.333 -45.667 25.666 -65 42.999s-35.666 36.333 -48.999 57c-26.667 44 -40 91.667 -40 143c0 47.333 10.833 91 32.5 131s51.167 73.333 88.5 100c14 10 30.667 19.5 50 28.5s40.666 16.833 63.999 23.5s48 12 74 16s53 6 81 6c84 0 157.167 -11.833 219.5 -35.5
s108.5 -56.167 138.5 -97.5c13.333 -18.667 25.333 -43 36 -73s19 -60 25 -90c-28.667 -4 -57 -7.66699 -85 -11s-56.333 -7 -85 -11c-8.66699 54.667 -32.5 97.334 -71.5 128.001s-93.833 46 -164.5 46c-84 0 -144 -14 -180 -42s-54 -60.667 -54 -98
c0 -23.333 7.66699 -44.666 23 -63.999s38.666 -35.666 69.999 -48.999c9.33301 -3.33301 27.333 -8.83301 54 -16.5l106 -30.5c64 -17.333 118.167 -32.833 162.5 -46.5s79.166 -26.167 104.499 -37.5c25.333 -10.667 47.666 -23.667 66.999 -39s36.333 -33.333 51 -54
c28.667 -39.333 43 -90.666 43 -153.999c0 -60 -18 -116.333 -54 -169c-35.333 -54.667 -85 -95.667 -149 -123c-33.333 -14.667 -68.666 -25.5 -105.999 -32.5s-76.666 -10.5 -117.999 -10.5c-138 0 -243 28.333 -315 85s-118 141 -138 253z" />
    <glyph glyph-name="t" unicode="t" horiz-adv-x="569" 
d="M553 1c-25.333 -5.33301 -49.166 -9.16699 -71.499 -11.5s-43.166 -3.5 -62.499 -3.5c-64.667 0 -114.834 10 -150.501 30s-60.834 47 -75.501 81c-14.667 33.333 -22 104.333 -22 213v615h-132v137h132v265l87 51.5l87 51.5v-368h181v-137h-181v-625
c0 -52 3 -85.333 9 -100c7.33301 -15.333 18 -27.333 32 -36c14.667 -8.66699 36 -13 64 -13c10 0 21.167 0.5 33.5 1.5s26.5 2.83301 42.5 5.5z" />
    <glyph glyph-name="u" unicode="u" 
d="M836 0l0.00292969 163.004c-86 -124.667 -199.667 -187 -341 -187c-30 0 -60 3.16699 -90 9.5s-58.667 15.166 -86 26.499c-25.333 11.333 -48.333 24.666 -69 39.999s-37.667 31.666 -51 48.999c-11.333 17.333 -21.833 37.833 -31.5 61.5s-17.5 47.834 -23.5 72.501
c-7.33301 36.667 -11 93 -11 169v658h175v-589c0 -48 1 -87.667 3 -119s4.66699 -55.333 8 -72c11.333 -48 35.666 -85.833 72.999 -113.5s83.666 -41.5 138.999 -41.5c28 0 54.667 3.66699 80 11s50 17.666 74 30.999c23.333 14.667 43.833 31.5 61.5 50.5
s31.167 40.167 40.5 63.5c9.33301 24 16.666 53.667 21.999 89s8 75.666 8 120.999v569h175v-1062h-156z" />
    <glyph glyph-name="v" unicode="v" horiz-adv-x="1024" 
d="M434 0l-405 1062h184l229 -637c12.667 -35.333 25 -72.5 37 -111.5l34 -114.5c8 28 18 60.667 30 98s25.333 76 40 116l58 159l60.5 165l60.5 165.5l58 159.5h179l-201.5 -531l-201.5 -531h-162z" />
    <glyph glyph-name="w" unicode="w" horiz-adv-x="1479" 
d="M334 0l-163 531.001l-162 531h179l85 -307.5l85 -306.5l63 -230l6 1l5.5 21c3 11.333 6.5 25.666 10.5 42.999l39 157v-1l85 311l85 312h180l159 -617v1l57 -215l64 216l90.5 307l91.5 308h169l-166 -531l-166 -531h-182l-84.5 319l-84.5 318v-1l-42 183l-6 1
l-107.5 -410l-107.5 -410h-183z" />
    <glyph glyph-name="x" unicode="x" horiz-adv-x="1024" 
d="M18 0l389 552l-360 510h220l163 -249l43 -67.5l34 -56.5l43 64.5l40 57.5l89.5 125.5l89.5 125.5h211l-368 -500l198 -281l198 -281h-216l-218 330l-60 94l-141 -212l-141 -212h-214z" />
    <glyph glyph-name="y" unicode="y" horiz-adv-x="1024" 
d="M109 -246c38 -10 71.6641 -14.998 100.997 -14.998c41.333 0 74 6.66699 98 20s44 32.333 60 57c5.33301 9.33301 12.833 25.166 22.5 47.499s20.834 51.5 33.501 87.5c1.33301 3.33301 2.83301 7.33301 4.5 12l5.5 15c1.33301 2.66699 2.33301 5.5 3 8.5
s1.66699 6.16699 3 9.5l-202 533l-202 533h188l222 -616c14 -38.667 27.333 -78.667 40 -120s25 -84 37 -128l6 1c10.667 42 22 83 34 123s25.333 80 40 120l114.5 310l113.5 310h174l-405 -1081c-21.333 -59.333 -40.5 -109 -57.5 -149s-31.5 -71 -43.5 -93
c-32 -59.333 -68.333 -102.833 -109 -130.5s-89.667 -41.5 -147 -41.5c-17.333 0 -35.166 1.66699 -53.499 5s-38.166 8.66602 -59.499 15.999z" />
    <glyph glyph-name="z" unicode="z" horiz-adv-x="1024" 
d="M42 0v145.001l-1 -1l682 781c-39.333 -2 -76.5 -3.5 -111.5 -4.5s-67.5 -1.5 -97.5 -1.5h-432v143h866v-117l1 1l-289 -338.5l-289 -338.5l-114 -126c40.667 3.33301 80.667 5.66602 120 6.99902s77 2 113 2h490v-152h-938z" />
    <glyph glyph-name="braceleft" unicode="{" horiz-adv-x="673" 
d="M142 796c50 2 90.833 16.501 122.5 43.501s53.167 62.5 64.5 106.5c5.33301 23.333 9.5 54.666 12.5 93.999s4.5 85.666 4.5 138.999c0.666992 54 1.5 99.333 2.5 136s2.16699 64 3.5 82c4.66699 39.333 12.167 73.333 22.5 102s23.166 53.334 38.499 74.001
s33 37.5 53 50.5s42.667 23.833 68 32.5c12.667 2.66699 29.5 4.83398 50.5 6.50098s44.5 2.83398 70.5 3.50098h53v-151h-26c-69.333 0 -116 -13 -140 -39c-23.333 -26 -35 -81.667 -35 -167c0 -86.667 -0.833008 -157 -2.5 -211s-4.16699 -92.667 -7.5 -116
c-6 -33.333 -14.167 -64.333 -24.5 -93s-22.166 -52 -35.499 -70c-14 -18 -32.667 -35.833 -56 -53.5s-51 -33.834 -83 -48.501c73.333 -30.667 126.666 -77.667 159.999 -141c32.667 -61.333 49 -162.666 49 -303.999c0 -62.667 0.333008 -113.334 1 -152.001
s1.66699 -65 3 -79c5.33301 -46 18.666 -77.667 39.999 -95c22 -18 65.667 -27 131 -27h26v-152h-53c-65.333 0 -112 5.33301 -140 16c-41.333 15.333 -75.333 40 -102 74s-44.667 76.333 -54 127c-4 26 -7 60.333 -9 103s-3.33301 93.667 -4 153
c0 118 -5.66699 200.333 -17 247c-11.333 45.333 -33 81.666 -65 108.999c-15.333 12.667 -33.166 22.667 -53.499 30s-43.166 11.333 -68.499 12v158z" />
    <glyph glyph-name="bar" unicode="|" horiz-adv-x="522" 
d="M188 -427v1900h150v-1900h-150z" />
    <glyph glyph-name="braceright" unicode="}" horiz-adv-x="747" 
d="M728 638c-49.333 -2 -90.167 -16.6709 -122.5 -44.0039s-54.166 -63 -65.499 -107c-5.33301 -22.667 -9.33301 -54.667 -12 -96s-4.33398 -91.666 -5.00098 -150.999c0 -60 -1 -111.167 -3 -153.5s-5.33301 -76.5 -10 -102.5c-8 -51.333 -25.333 -94 -52 -128
s-61.334 -58.333 -104.001 -73c-28 -10.667 -74.333 -16 -139 -16h-53v152h26c62.667 0 105.667 9 129 27c22 18 36 49.667 42 95c1.33301 14 2.33301 40.333 3 79s1 89.334 1 152.001c0 141.333 16.333 242.666 49 303.999c32.667 62.667 85.667 109.667 159 141
c-32 15.333 -59.333 31.5 -82 48.5s-41.334 34.833 -56.001 53.5c-13.333 18 -25.166 41 -35.499 69s-18.5 59.333 -24.5 94c-3.33301 23.333 -5.83301 62 -7.5 116s-2.5 124.333 -2.5 211c0 84 -12 139.667 -36 167c-24 26 -70.333 39 -139 39h-26v151h53
c27.333 -0.666992 51 -1.66699 71 -3s36.333 -3.66602 49 -6.99902c25.333 -8 48.333 -18.5 69 -31.5s38.667 -29.5 54 -49.5s28 -44.5 38 -73.5s17.333 -63.833 22 -104.5c1.33301 -17.333 2.5 -44 3.5 -80s1.5 -82 1.5 -138
c0.666992 -53.333 2.33398 -99.666 5.00098 -138.999s6.66699 -70.666 12 -93.999c11.333 -44 33 -79.5 65 -106.5s73 -41.5 123 -43.5v-158z" />
    <glyph glyph-name="asciitilde" unicode="~" horiz-adv-x="1178" 
d="M88 751l-0.999023 -1c69.333 78 160.333 117.667 273 119c38.667 0 79.667 -6 123 -18c21.333 -6 48 -14.833 80 -26.5s67.667 -25.5 107 -41.5c22 -9.33301 41.833 -17 59.5 -23s32.167 -10.667 43.5 -14c11.333 -2.66699 22.666 -4.66699 33.999 -6s23 -2 35 -2
c42.667 0 86.334 11.833 131.001 35.5s85.334 55.167 122.001 94.5v-202c-41.333 -38.667 -83.666 -67.167 -126.999 -85.5s-91.333 -27.5 -144 -27.5c-36.667 0 -74.334 4.66699 -113.001 14c-18.667 4.66699 -42.5 12.5 -71.5 23.5s-62.5 25.167 -100.5 42.5
c-38.667 18 -74.334 31.333 -107.001 40s-62.334 13 -89.001 13c-43.333 0 -83.333 -9.66699 -120 -29c-36.667 -18.667 -81.667 -53 -135 -103v197z" />
    <glyph glyph-name="nonbreakingspace" unicode="&#xa0;" horiz-adv-x="2" 
 />
    <glyph glyph-name="exclamdown" unicode="&#xa1;" horiz-adv-x="682" 
d="M445 1062v-202h-202v202h202zM398 696l27.5 -388.5l27.5 -388.5v-325h-218v325l26 388.5l26 388.5h111z" />
    <glyph glyph-name="cent" unicode="&#xa2;" 
d="M519 125c24 -6.66699 45.667 -9.99707 65 -9.99707c34.667 0 67.334 6.33301 98.001 19s58.667 30.667 84 54c51.333 49.333 82.666 115.333 93.999 198l87 -10l87 -10c-22 -121.333 -74.333 -217.333 -157 -288c-81.333 -70.667 -178 -106 -290 -106
c-31.333 0 -66.333 5 -105 15l-59.5 -198.5l-59.5 -198.5l-53 15.5l-53 15.5l115 399c-38 18 -73 42.667 -105 74s-60 68 -84 110c-24.667 42.667 -43.167 91.167 -55.5 145.5s-18.5 113.166 -18.5 176.499c0 119.333 19.333 221.5 58 306.5s96.667 148.5 174 190.5
c78.667 42.667 158 64 238 64c13.333 0 28.5 -0.666992 45.5 -2s36.167 -3.33301 57.5 -6l57 194l56 194l52 -15.5l52 -15.5l-112 -388c66 -28 116.833 -66.667 152.5 -116s60.834 -109.333 75.501 -180c-28.667 -4.66699 -57 -8.83398 -85 -12.501
s-56.333 -7.83398 -85 -12.501c-16.667 74 -50.334 131.667 -101.001 173zM643 944.003c-21.333 2 -39.334 3 -54.001 3c-28 0 -55.167 -3.83301 -81.5 -11.5s-51.166 -19.167 -74.499 -34.5s-44.333 -35 -63 -59s-34 -52 -46 -84c-23.333 -64 -35 -138.333 -35 -223
c0 -89.333 11 -164.5 33 -225.5s53.667 -107.167 95 -138.5z" />
    <glyph glyph-name="sterling" unicode="&#xa3;" 
d="M710 808v-144.998h-286c7.33301 -15.333 12.5 -30.666 15.5 -45.999s4.5 -30 4.5 -44c0 -58.667 -14.167 -120.5 -42.5 -185.5s-75.166 -132.167 -140.499 -201.5c58 16 108.667 24 152 24c27.333 0 56.5 -2 87.5 -6s63.833 -10.333 98.5 -19
c58.667 -13.333 107.167 -23.5 145.5 -30.5s68.166 -10.5 89.499 -10.5c50 0 113.667 18 191 54c9.33301 -28 18.833 -54.833 28.5 -80.5s19.167 -52.5 28.5 -80.5c-30 -13.333 -56.833 -24 -80.5 -32s-44.167 -14 -61.5 -18c-32 -8 -65 -12 -99 -12
c-14 0 -28 0.666992 -42 2s-28.333 3.33301 -43 6c-8.66699 1.33301 -23.5 5 -44.5 11l-85.5 25l-83.5 24.5c-21.667 6.33301 -38.167 10.833 -49.5 13.5c-15.333 2.66699 -31 4.66699 -47 6s-32 2 -48 2c-24 0 -49 -2.16699 -75 -6.5s-52 -10.333 -78 -18
s-51.667 -17.167 -77 -28.5s-49.333 -24 -72 -38l-33 84l-33 85c32 17.333 61.5 38.833 88.5 64.5s51.5 54.5 73.5 86.5c23.333 34 40.5 71.167 51.5 111.5s16.5 84.166 16.5 131.499c0 40.667 -5.66699 82.667 -17 126h-197v145h156c-11.333 39.333 -20.666 73 -27.999 101
s-12.333 49.667 -15 65c-2.66699 16.667 -4.83398 33.834 -6.50098 51.501s-2.5 34.167 -2.5 49.5c0 68.667 13 130.167 39 184.5s64 100.833 114 139.5c42 30 88 53.167 138 69.5s103.667 24.5 161 24.5c119.333 0 218.333 -33.667 297 -101c39.333 -32 71 -71.333 95 -118
s40.667 -99.667 50 -159c-29.333 -4.66699 -58.333 -8.83398 -87 -12.501s-57.667 -7.83398 -87 -12.501c-4.66699 36.667 -15.5 71.5 -32.5 104.5s-36.5 60.833 -58.5 83.5c-24.667 21.333 -52.5 38.333 -83.5 51s-63.5 19 -97.5 19c-74 0 -136.333 -24.333 -187 -73
c-50 -47.333 -75 -105.333 -75 -174c0 -76.667 19 -174.334 57 -293.001h317z" />
    <glyph glyph-name="currency" unicode="&#xa4;" 
d="M76 1099l56.499 58.5l56.5 58.5l139 -140c71.333 48.667 150.666 73 237.999 73c88 0 167.333 -24.333 238 -73l139 140l57.5 -58.5l56.5 -58.5l-140 -136c48 -74 72 -152.667 72 -236c0 -85.333 -24 -164.333 -72 -237l70.5 -68.5l69.5 -68.5l-57 -58l-57 -58l-139 140
c-70 -49.333 -149.333 -74 -238 -74c-87.333 0 -166.666 24.667 -237.999 74l-69.5 -70l-69.5 -70l-56.5 58l-56.5 58l140 137c-23.333 36.667 -41.166 74.667 -53.499 114s-18.5 80.333 -18.5 123c0 82 24 160.667 72 236zM301.999 727c0 -72.667 25.667 -134.667 77 -186
c52 -51.333 114 -77 186 -77c72.667 0 134.667 25.667 186 77s77 113.333 77 186c0 71.333 -25.667 132.666 -77 183.999c-49.333 52 -111.333 78 -186 78c-72 0 -134 -26 -186 -78c-51.333 -51.333 -77 -112.666 -77 -183.999z" />
    <glyph glyph-name="yen" unicode="&#xa5;" 
d="M481 0v326h-417v136h417v147h-417v145h344l-203.5 357l-203.5 357h194l144.5 -259l145.5 -258c16 -29.333 30.833 -57.833 44.5 -85.5s25.167 -53.167 34.5 -76.5c8.66699 19.333 20.167 43.5 34.5 72.5l50.5 98.5l137.5 253.5l136.5 254.5h208l-406 -714h344v-145h-414
v-147h414v-136h-414v-326h-174z" />
    <glyph glyph-name="brokenbar" unicode="&#xa6;" horiz-adv-x="532" 
d="M343 1493v-789h-152v789h152zM343 357v-790h-152v790h152z" />
    <glyph glyph-name="section" unicode="&#xa7;" 
d="M321 -48c18.667 -86.667 48.6689 -147.665 90.002 -182.998c42.667 -35.333 99 -53 169 -53c68.667 0 122.667 17.667 162 53c39.333 36 59 77.333 59 124c0 17.333 -3.33301 33.666 -10 48.999s-15.667 30.666 -27 45.999c-21.333 25.333 -61.166 59 -119.499 101
s-132.166 90.667 -221.499 146l-125 80.5c-36 24.333 -63.667 44.833 -83 61.5v-1c-38 34.667 -69.667 75.667 -95 123c-24.667 46.667 -37 95 -37 145c0 64.667 19.667 122.667 59 174c40.667 52 96.667 88.333 168 109c-24 23.333 -44.333 45.333 -61 66s-30 41 -40 61
s-17.333 40 -22 60s-7 41 -7 63c0 86 33 160 99 222c65.333 62.667 153.333 94 264 94c124.667 0 221.667 -29.333 291 -88s111.333 -144.334 126 -257.001l-91.5 -9.5l-90.5 -9.5c-7.33301 41.333 -17.166 76 -29.499 104s-27.5 50.5 -45.5 67.5s-39 29.167 -63 36.5
s-51 11 -81 11c-61.333 0 -112 -17 -152 -51c-38 -34 -57 -71 -57 -111c0 -34 12.333 -66.333 37 -97c20 -23.333 55.5 -53.5 106.5 -90.5s118.167 -80.833 201.5 -131.5c51.333 -31.333 94.666 -58.833 129.999 -82.5s62.666 -43.167 81.999 -58.5
c45.333 -39.333 79.666 -80.666 102.999 -123.999s35 -89.333 35 -138c0 -76.667 -24 -141 -72 -193c-14.667 -15.333 -35 -30.833 -61 -46.5s-58.333 -31.5 -97 -47.5c108 -83.333 162 -177.333 162 -282c0 -58.667 -17 -114 -51 -166c-32 -52 -79.333 -91.667 -142 -119
c-62 -28.667 -129.667 -43 -203 -43c-63.333 0 -120.333 8.16699 -171 24.5s-94.334 39.833 -131.001 70.5s-66.334 68.167 -89.001 112.5s-37.667 94.833 -45 151.5zM731.002 241.002c50 26 87.334 55.8311 112.001 89.498s37 67.167 37 100.5c0 38.667 -17.667 79 -53 121
c-36.667 43.333 -112 100.333 -226 171c-88.667 54.667 -157.334 101 -206.001 139c-55.333 -31.333 -94.833 -62.5 -118.5 -93.5s-35.5 -65.5 -35.5 -103.5c0 -43.333 15.667 -84 47 -122c15.333 -19.333 40.833 -42.166 76.5 -68.499s79.5 -54.833 131.5 -85.5
c90 -53.333 167.333 -102.666 232 -147.999h3z" />
    <glyph glyph-name="dieresis" unicode="&#xa8;" horiz-adv-x="682" 
d="M64 1275v202h182v-202h-182zM438 1275v202h183v-202h-183z" />
    <glyph glyph-name="copyright" unicode="&#xa9;" horiz-adv-x="1711" 
d="M1693 737c0 -130 -33.333 -255.332 -100 -375.999c-33.333 -60.667 -73 -114 -119 -160s-99 -86 -159 -120c-120 -66 -245.333 -99 -376 -99s-256 33 -376 99c-118.667 67.333 -211.334 160.666 -278.001 279.999c-66.667 120.667 -100 246 -100 376
c0 130.667 33.667 256.667 101 378c68 122 162 215 282 279c60.667 32.667 121.834 57.334 183.501 74.001s124.167 25 187.5 25c64 0 126.667 -8.33301 188 -25s122.666 -41.334 183.999 -74.001c120.667 -64 214.334 -157 281.001 -279
c67.333 -121.333 101 -247.333 101 -378zM939 1380c-52 0 -104.499 -7.33203 -157.499 -21.999s-104.5 -35.334 -154.5 -62.001c-50 -28.667 -95 -63 -135 -103s-74.333 -85.333 -103 -136c-56.667 -103.333 -85 -211.333 -85 -324c0 -111.333 27.667 -218.333 83 -321
c56.667 -102 135.667 -182 237 -240c100.667 -57.333 205.667 -86 315 -86s214.666 28.667 315.999 86c102 58 180.667 138 236 240c55.333 102.667 83 209.667 83 321c0 55.333 -7.33301 110.333 -22 165s-35.667 107.667 -63 159c-28 49.333 -62.167 94.5 -102.5 135.5
s-85.5 75.5 -135.5 103.5c-48.667 26 -100 46.5 -154 61.5s-106.667 22.5 -158 22.5zM1303 577.002c-10 -38.667 -26.167 -75 -48.5 -109s-48.833 -63.667 -79.5 -89c-32 -24 -67.667 -42.333 -107 -55s-82 -19 -128 -19c-116 0 -211 38 -285 114
c-36 38 -63.167 83 -81.5 135s-27.5 112.333 -27.5 181c-1.33301 66.667 7.83398 126.5 27.501 179.5s47.5 97.833 83.5 134.5s78.667 64.5 128 83.5s103.666 28.167 162.999 27.5c87.333 0 160.166 -20.833 218.499 -62.5s98.5 -98.5 120.5 -170.5l-57.5 -14l-56.5 -14
c-20 50 -49.667 88 -89 114s-86 39 -140 39c-78.667 0 -142.667 -27.667 -192 -83c-25.333 -28.667 -44.333 -62.5 -57 -101.5s-19 -84.167 -19 -135.5c0 -102 24 -180 72 -234c47.333 -52.667 109 -79 185 -79c62.667 0 116.334 17.333 161.001 52
c22.667 18 41.5 38.333 56.5 61s26.167 49 33.5 79z" />
    <glyph glyph-name="ordfeminine" unicode="&#xaa;" horiz-adv-x="758" 
d="M547 856c-81.333 -71.333 -166.335 -106.998 -255.002 -106.998c-75.333 0 -134.333 20 -177 60c-44 42 -66 94.667 -66 158c0 45.333 12.333 84.166 37 116.499s60.334 57.166 107.001 74.499c11.333 3.33301 25.5 6.83301 42.5 10.5s35.5 7.16699 55.5 10.5l148 23
c24 4.66699 44.5 8.83398 61.5 12.501s29.5 6.5 37.5 8.5c-1.33301 49.333 -6 81.333 -14 96c-9.33301 16 -26.333 30 -51 42c-11.333 5.33301 -25.166 9.66602 -41.499 12.999s-34.166 5 -53.499 5c-53.333 0 -93.333 -10.667 -120 -32s-43.334 -52 -50.001 -92
c-22.667 5.33301 -44.5 10.833 -65.5 16.5s-42.833 11.167 -65.5 16.5c8 58 37 106 87 144c50.667 40.667 122.667 61 216 61c109.333 0 186.333 -20.333 231 -61c44 -40 66 -100 66 -180v-241l-1 -61c0 -86 13.333 -147 40 -183h-143c-5.33301 12.667 -10 26.5 -14 41.5
s-6.33301 30.167 -7 45.5zM532.998 1108c-18 -4.66699 -43.167 -9.99902 -75.5 -15.999s-70.833 -12.667 -115.5 -20c-28.667 -4.66699 -53.5 -10.5 -74.5 -17.5s-36.167 -14.5 -45.5 -22.5c-19.333 -18 -29 -39.667 -29 -65c0 -28.667 11.5 -52.834 34.5 -72.501
s56.167 -29.5 99.5 -29.5c50 0 93 13 129 39c36 27.333 60.333 60 73 98c2.66699 7.33301 4.5 19.5 5.5 36.5s1.83301 39.5 2.5 67.5z" />
    <glyph glyph-name="guillemotleft" unicode="&#xab;" 
d="M336 528l130 -228l129 -228h-140l-159.5 228l-159.5 228l159.5 228l159.5 228h142zM725 528l132 -228l132 -228h-147l-156 228l-156 228l156 228l156 228h147z" />
    <glyph glyph-name="logicalnot" unicode="&#xac;" horiz-adv-x="1196" 
d="M1082 426h-165v439h-801v165h966v-604z" />
    <glyph glyph-name="uni00AD" unicode="&#xad;" horiz-adv-x="1" 
d="M514 1143l3 0.000976562c-0.666992 -0.666992 -1 -1.33398 -1 -2.00098v-1z" />
    <glyph glyph-name="registered" unicode="&#xae;" horiz-adv-x="1509" 
d="M1513 737c0 -130 -33.333 -255.332 -100 -375.999c-33.333 -60.667 -73 -114 -119 -160s-99 -86 -159 -120c-120 -66 -245.333 -99 -376 -99s-256 33 -376 99c-118.667 67.333 -211.334 160.666 -278.001 279.999c-66.667 120.667 -100 246 -100 376
c0 130.667 33.667 256.667 101 378c68 122 162 215 282 279c60.667 32.667 121.834 57.334 183.501 74.001s124.167 25 187.5 25c64 0 126.667 -8.33301 188 -25s122.666 -41.334 183.999 -74.001c120.667 -64 214.334 -157 281.001 -279
c67.333 -121.333 101 -247.333 101 -378zM759 1371c-52 0 -104.499 -7.16504 -157.499 -21.498s-104.5 -34.5 -154.5 -60.5c-50 -28 -95 -61.667 -135 -101s-74.333 -84 -103 -134c-56.667 -100.667 -85 -206.334 -85 -317.001c0 -109.333 27.667 -214.333 83 -315
c56.667 -99.333 135.667 -177.666 237 -234.999c100.667 -56 205.667 -84 315 -84s214.666 28 315.999 84c102 57.333 180.667 135.666 236 234.999c55.333 100.667 83 205.667 83 315c0 54 -7.33301 107.833 -22 161.5s-35.667 105.5 -63 155.5
c-28 48.667 -62.167 93.167 -102.5 133.5s-85.5 74.166 -135.5 101.499c-48.667 25.333 -100 45.333 -154 60s-106.667 22 -158 22zM430.001 320.003l0.000976562 811.001h277c94 0 163 -7.66699 207 -23c42.667 -14.667 76.334 -40.334 101.001 -77.001
c12 -18 21.333 -37 28 -57s10 -40.667 10 -62c0 -58.667 -21.333 -110 -64 -154c-41.333 -44 -97 -68.333 -167 -73l-1 -4c30.667 -13.333 53.667 -27.666 69 -42.999c15.333 -14.667 33.166 -36 53.499 -64s42.166 -60.333 65.499 -97
c17.333 -26 33.833 -52.167 49.5 -78.5l48.5 -78.5h-154l-71 128c-56.667 101.333 -103 164.666 -139 189.999c-12 9.33301 -27 16.5 -45 21.5s-38.667 7.5 -62 7.5h-80v-347h-126zM556.002 775.004l162.001 -0.000976562c77.333 0 130 11.333 158 34
c13.333 11.333 23.833 24.833 31.5 40.5s11.5 32.834 11.5 51.501c0 25.333 -6.83301 47.5 -20.5 66.5s-32.834 33.5 -57.501 43.5c-24 9.33301 -68.333 14 -133 14h-152v-250z" />
    <glyph glyph-name="macron" unicode="&#xaf;" horiz-adv-x="1131" 
d="M-29 1572v125h1191v-125h-1191z" />
    <glyph glyph-name="degree" unicode="&#xb0;" horiz-adv-x="819" 
d="M131 1217c0 76.667 26.667 141.667 80 195c54 54 119 81 195 81c76.667 0 142 -27 196 -81c53.333 -53.333 80 -118.333 80 -195c0 -77.333 -27.333 -143 -82 -197c-53.333 -53.333 -118 -80 -194 -80c-75.333 0 -140.333 26.667 -195 80c-53.333 53.333 -80 119 -80 197
zM407 1045c46.667 0 86.667 16.667 120 50c34 34 51 74.667 51 122c0 46 -17 86 -51 120s-74 51 -120 51c-48 0 -89 -17 -123 -51c-33.333 -33.333 -50 -73.333 -50 -120c0 -48 16.667 -88.667 50 -122s74.333 -50 123 -50z" />
    <glyph glyph-name="plusminus" unicode="&#xb1;" horiz-adv-x="1124" 
d="M481 261v405h-401v163h401v401h164v-401h401v-163h-401v-405h-164zM1046 0h-966v165h966v-165z" />
    <glyph glyph-name="uni00B2" unicode="&#xb2;" horiz-adv-x="682" 
d="M27 736c2 19.333 7.00098 38.002 15.001 56.002s18.667 36.333 32 55c42 57.333 111 120.666 207 189.999c94.667 68.667 152 114 172 136c25.333 28 38 56.667 38 86c0 32.667 -11.833 59.5 -35.5 80.5s-58.834 31.5 -105.501 31.5c-44.667 0 -78.667 -8 -102 -24
c-21.333 -16.667 -39.333 -46.667 -54 -90l-72 8l-72 8c20 72 53.5 125.5 100.5 160.5s114.5 52.5 202.5 52.5c98.667 0 172 -20 220 -60c46.667 -38.667 70 -86 70 -142c0 -28 -5.16699 -55.5 -15.5 -82.5s-24.5 -52.5 -42.5 -76.5c-15.333 -17.333 -40 -40.333 -74 -69
s-78 -62.334 -132 -101.001l-71 -55.5c-20.667 -16.333 -37.667 -31.833 -51 -46.5h390v-117h-620z" />
    <glyph glyph-name="uni00B3" unicode="&#xb3;" horiz-adv-x="682" 
d="M176 944c6.66699 -18.667 14.6699 -35.3311 24.0029 -49.998s19 -25.667 29 -33c28.667 -20 63.667 -30 105 -30c46.667 0 85.334 13.333 116.001 40c29.333 25.333 44 57.333 44 96c0 34 -12.333 61.167 -37 81.5s-66.334 30.5 -125.001 30.5h-11
c-4.66699 0 -9 -0.333008 -13 -1c-1.33301 0 -3 -0.166992 -5 -0.5s-3.66699 -0.5 -5 -0.5c-4 -0.666992 -7.5 -1 -10.5 -1h-8.5c3.33301 18 7 35.667 11 53s7.66699 35 11 53c54.667 0 94.5 10.167 119.5 30.5s37.5 45.166 37.5 74.499c0 25.333 -10.167 46.833 -30.5 64.5
s-50.833 26.5 -91.5 26.5c-19.333 0 -36.333 -1.83301 -51 -5.5s-27.834 -9.5 -39.501 -17.5s-21.834 -18.5 -30.501 -31.5s-17 -28.833 -25 -47.5c-22.667 3.33301 -45.334 7 -68.001 11s-45.334 7.66699 -68.001 11c26.667 68 60.334 116.333 101.001 145
c41.333 28.667 102 43 182 43c95.333 0 164.333 -18.333 207 -55c44 -35.333 66 -79 66 -131c0 -36 -12 -68.5 -36 -97.5s-58 -49.5 -102 -61.5v-4c60 -14.667 103.833 -38.5 131.5 -71.5s41.5 -72.167 41.5 -117.5c0 -62.667 -26.333 -116.334 -79 -161.001
c-53.333 -46 -127.666 -69 -222.999 -69c-93.333 0 -164.333 18 -213 54s-80.334 88 -95.001 156z" />
    <glyph glyph-name="acute" unicode="&#xb4;" horiz-adv-x="682" 
d="M226 1199l66 138l67 139h229l-108.5 -139l-108.5 -138h-145z" />
    <glyph glyph-name="uni00B5" unicode="&#xb5;" horiz-adv-x="1180" 
d="M1018 1062l-0.00195312 -1062h-156v135c-39.333 -59.333 -75.333 -99 -108 -119h1c-47.333 -27.333 -101.666 -41 -162.999 -41c-26.667 0 -52.334 2.83301 -77.001 8.5s-47.667 13.834 -69 24.501c-16.667 8.66699 -34.167 21.834 -52.5 39.501
s-37.833 39.167 -58.5 64.5v-521h-172v1471h172v-450c0 -163.333 8.66699 -270 26 -320c16.667 -47.333 45.334 -85.666 86.001 -114.999c38.667 -28 84.334 -42 137.001 -42c54 0 102.667 14.667 146 44c42.667 28.667 72.667 66.667 90 114c17.333 48 26 153.333 26 316
v453h172z" />
    <glyph glyph-name="paragraph" unicode="&#xb6;" horiz-adv-x="1155" 
d="M525 -409l0.00292969 937c-55.333 2.66699 -105.333 13.5 -150 32.5s-83.334 44.167 -116.001 75.5c-30.667 32.667 -54.334 70.667 -71.001 114s-25 90 -25 140c0 116 35.333 207.667 106 275c73.333 68 178.666 102 315.999 102h564v-151h-129v-1525h-147v1525h-205
v-1525h-143z" />
    <glyph glyph-name="periodcentered" unicode="&#xb7;" horiz-adv-x="682" 
d="M241 639v202h200v-202h-200z" />
    <glyph glyph-name="cedilla" unicode="&#xb8;" horiz-adv-x="682" 
d="M271 19l128.002 -0.00195312l-33 -107c28.667 -3.33301 53.667 -9.66602 75 -18.999s39.166 -20.5 53.499 -33.5s25.166 -27.667 32.499 -44s11 -32.833 11 -49.5c0 -49.333 -23.667 -92.666 -71 -129.999c-47.333 -39.333 -119.333 -59 -216 -59
c-26.667 0 -51.667 0.833008 -75 2.5s-45.333 4.5 -66 8.5c1.33301 20 3.16602 39.333 5.49902 58s4.16602 37.667 5.49902 57c21.333 -1.33301 39.333 -2.33301 54 -3s27 -1 37 -1c64.667 0 109.667 8.66699 135 26c20 14 30 31 30 51
c-1.33301 8.66699 -3.66602 17 -6.99902 25s-10.166 15.167 -20.499 21.5s-25.5 11.5 -45.5 15.5s-48 6.33301 -84 7z" />
    <glyph glyph-name="uni00B9" unicode="&#xb9;" horiz-adv-x="594" 
d="M335 736l0.000976562 560.001c-70.667 -55.333 -145.667 -94.333 -225 -117v120c20.667 6.66699 42.5 16 65.5 28s46.833 26.667 71.5 44c24 16.667 46.667 34.667 68 54s39.666 39.666 54.999 60.999h104v-750h-139z" />
    <glyph glyph-name="ordmasculine" unicode="&#xba;" horiz-adv-x="748" 
d="M700 1117c0 -116.667 -30.332 -208.333 -90.999 -275c-61.333 -66 -139.333 -99 -234 -99c-96.667 0 -175.334 32.333 -236.001 97c-61.333 65.333 -92 156.333 -92 273c0 120 30.333 213.333 91 280s139.334 100 236.001 100c95.333 0 173.666 -33.333 234.999 -100
c60.667 -66.667 91 -158.667 91 -276zM374.001 1363c-28 0 -53.3311 -4.66699 -75.998 -14s-42 -24 -58 -44s-28.333 -45.5 -37 -76.5s-13 -68.167 -13 -111.5c0 -42 4.5 -78.5 13.5 -109.5s21.667 -56.667 38 -77s35.666 -35.333 57.999 -45s47.166 -14.5 74.499 -14.5
s52.166 4.83301 74.499 14.5s41.5 24.667 57.5 45s28.5 46.333 37.5 78s13.5 69.5 13.5 113.5c0 41.333 -4.5 77.166 -13.5 107.499s-21.667 55.333 -38 75s-35.666 34.334 -57.999 44.001s-46.833 14.5 -73.5 14.5z" />
    <glyph glyph-name="guillemotright" unicode="&#xbb;" horiz-adv-x="1017" 
d="M797 528l-130.5 228l-130.5 228h142l159.5 -228l159.5 -228l-159.5 -228l-159.5 -228h-141zM408 528l-132 228l-132 228h146l156.5 -228l156.5 -228l-156.5 -228l-156.5 -228h-146z" />
    <glyph glyph-name="onequarter" unicode="&#xbc;" horiz-adv-x="1708" 
d="M255 -57l271.5 380.5l280.5 394.5l280.5 394l270.5 381h152l-270.5 -381l-280.5 -394l-280.5 -394.5l-270.5 -380.5h-153zM334 736v560.001c-70.667 -55.333 -145.667 -94.333 -225 -117v120c20.667 6.66699 42.5 16 65.5 28s46.833 26.667 71.5 44
c23.333 16.667 45.833 34.667 67.5 54s40.167 39.666 55.5 60.999h104v-750h-139zM1437 -30.999v154h-385v122l-1 -1l203 237.5l203 237.5h118v-491h105v-105h-105v-154h-138zM1437 228.001v273l-239 -273h239z" />
    <glyph glyph-name="onehalf" unicode="&#xbd;" horiz-adv-x="1708" 
d="M231 -57l271.5 380.5l280.5 394.5l280 394l270 381h153l-270.5 -381l-280.5 -394l-280.5 -394.5l-270.5 -380.5h-153zM334 736v560.001c-70.667 -55.333 -145.667 -94.333 -225 -117v120c20.667 6.66699 42.5 16 65.5 28s46.833 26.667 71.5 44
c23.333 16.667 45.833 34.667 67.5 54s40.167 39.666 55.5 60.999h104v-750h-139zM1054 -30.999c2 19.333 6.99902 37.8281 14.999 55.4951s18.667 35.834 32 54.501c40 56.667 109 120.334 207 191.001c48 34 86.167 62.5 114.5 85.5s47.5 40.167 57.5 51.5
c12 13.333 21.333 27.333 28 42s10 29 10 43c0 32.667 -11.667 59.334 -35 80.001s-58.666 31 -105.999 31c-44.667 0 -78.667 -8 -102 -24c-10.667 -7.33301 -20.5 -18.666 -29.5 -33.999s-17.167 -33.666 -24.5 -54.999l-72 7.5l-73 7.5c10 36 23.333 67.5 40 94.5
s37.334 49.333 62.001 67s53.667 30.834 87 39.501s71.666 13 114.999 13c98.667 0 171.667 -20 219 -60c47.333 -38 71 -85.333 71 -142c0 -28 -5.16699 -55.333 -15.5 -82s-24.833 -52.334 -43.5 -77.001c-15.333 -17.333 -39.833 -40.5 -73.5 -69.5
s-77.167 -62.833 -130.5 -101.5c-52.667 -38 -93.667 -71.667 -123 -101h390v-117h-620z" />
    <glyph glyph-name="threequarters" unicode="&#xbe;" horiz-adv-x="1708" 
d="M255 -57l271.5 380.5l280.5 394.5l280.5 394l270.5 381h152l-270.5 -381l-280.5 -394l-280.5 -394.5l-270.5 -380.5h-153zM175 944c6.66699 -18.667 14.667 -35.3311 24 -49.998s19 -25.667 29 -33c28.667 -20 63.667 -30 105 -30c46.667 0 85.334 13.333 116.001 40
c29.333 25.333 44 57.333 44 96c0 34 -12.167 61.167 -36.5 81.5s-65.166 30.5 -122.499 30.5c-30 -2 -48.667 -3 -56 -3c3.33301 18 7 35.667 11 53l12 53c54.667 0 94.334 10.167 119.001 30.5s37 45.166 37 74.499c0 25.333 -10.167 46.833 -30.5 64.5
s-50.833 26.5 -91.5 26.5c-19.333 0 -36.333 -1.83301 -51 -5.5s-27.834 -9.5 -39.501 -17.5s-21.834 -18.5 -30.501 -31.5s-17 -28.833 -25 -47.5c-22.667 3.33301 -45.334 7 -68.001 11s-45.334 7.66699 -68.001 11c26.667 68 60.334 116.333 101.001 145
c41.333 28.667 102 43 182 43c95.333 0 164.333 -18.333 207 -55c44 -35.333 66 -79 66 -131c0 -36 -12 -68.5 -36 -97.5s-58 -49.5 -102 -61.5v-4c60 -14.667 103.833 -38.5 131.5 -71.5s41.5 -72.167 41.5 -117.5c0 -62.667 -26 -116.334 -78 -161.001
c-54 -46 -128.667 -69 -224 -69c-93.333 0 -164.333 18 -213 54s-80 88 -94 156zM1436 -30.9971v154h-384v122l-1 -1l202.5 237.5l202.5 237.5h119v-491h105v-105h-105v-154h-139zM1436 228.003v273l-238 -273h238z" />
    <glyph glyph-name="questiondown" unicode="&#xbf;" horiz-adv-x="1251" 
d="M732 1062v-202h-200v202h200zM720 700c0.666992 -11.333 1 -21.166 1 -29.499v-20.5c0 -71.333 -10.333 -133.333 -31 -186c-7.33301 -20 -16.833 -40 -28.5 -60s-25.5 -39.333 -41.5 -58c-12 -14.667 -28.667 -32.167 -50 -52.5s-48 -44.5 -80 -72.5
s-58.167 -53 -78.5 -75s-35.166 -41 -44.499 -57c-18 -33.333 -27 -69.333 -27 -108c0 -71.333 27.667 -133.666 83 -186.999c56 -53.333 124 -80 204 -80c77.333 0 142.166 23.833 194.499 71.5s86.5 122.5 102.5 224.5l90 -9.5l89 -9.5
c-10 -64.667 -27.833 -123 -53.5 -175s-58.667 -96.333 -99 -133s-87.5 -64.834 -141.5 -84.501s-113.667 -29.5 -179 -29.5c-143.333 0 -257.666 39 -342.999 117c-84.667 77.333 -127 171.666 -127 282.999c0 64 15 123 45 177c15.333 27.333 37.5 57.333 66.5 90
s65.167 68 108.5 106c30 26.667 54.667 49.667 74 69s33.666 35.333 42.999 48c18.667 25.333 32 54 40 86v-1c9.33301 32 14.333 84 15 156h168z" />
    <glyph glyph-name="hi_om" unicode="&#x950;" horiz-adv-x="1907" 
d="M247 456c13.333 -47.333 35.8291 -91.668 67.4961 -133.001s69.834 -79 114.501 -113c39.333 -32 82.833 -57 130.5 -75s98.167 -27.667 151.5 -29c103.333 0 179 29.667 227 89c38 48 57 100.333 57 157c0 110.667 -44.667 191 -134 241c-45.333 22 -98 33 -158 33
c-32 0 -66.333 -3.66699 -103 -11c-7.33301 -1.33301 -14.666 -3 -21.999 -5s-14.666 -3.66699 -21.999 -5c-0.666992 28.667 -1.5 56.834 -2.5 84.501s-1.83301 55.834 -2.5 84.501l51 -16c28 -7.33301 65.667 -11 113 -11c84.667 0 145.334 22.333 182.001 67
c33.333 45.333 50 94.333 50 147c0 50.667 -18.667 93.667 -56 129c-36 28 -85.667 42.333 -149 43c-71.333 2.66699 -130.666 -14 -177.999 -50c-43.333 -39.333 -68.333 -94.666 -75 -165.999c-0.666992 -7.33301 -1.5 -14.833 -2.5 -22.5s-1.83301 -15.167 -2.5 -22.5
c-30 4 -60 7.66699 -90 11s-60 7 -90 11c1.33301 7.33301 3.16602 14.5 5.49902 21.5s4.16602 14.167 5.49902 21.5c12 45.333 29.667 86 53 122s52.5 66.5 87.5 91.5s76.333 44.333 124 58s101.834 20.834 162.501 21.501c55.333 2 106 -3.16699 152 -15.5
s86.667 -31.5 122 -57.5c35.333 -26.667 62.666 -57 81.999 -91s29 -70 29 -108c0 -43.333 -6.83301 -82.333 -20.5 -117s-32.834 -64 -57.501 -88c-33.333 -28.667 -74.333 -51.334 -123 -68.001c30 -9.33301 55 -20 75 -32c51.333 -22.667 93.333 -63 126 -121
c31.333 -54.667 47 -105.667 47 -153c0 -116.667 -37 -208.334 -111 -275.001v1c-76 -66 -193.333 -99 -352 -99c-56.667 0 -108.667 6.83301 -156 20.5s-89 33.167 -125 58.5c-61.333 48.667 -112.666 101.667 -153.999 159s-71.666 118.666 -90.999 183.999zM1369 366.998
c30.667 -26.667 80.002 -40.001 148.002 -40.001c25.333 0 49.5 5.83301 72.5 17.5s43.5 28.167 61.5 49.5c38.667 46.667 58 100.334 58 161.001c0 64.667 -18.667 119.334 -56 164.001c-18 21.333 -38.667 37.833 -62 49.5s-48 17.5 -74 17.5
c-42 0 -81.333 -5.83301 -118 -17.5s-69 -27.834 -97 -48.501c-46.667 -34.667 -93 -52 -139 -52c-4 0 -8 0.166992 -12 0.5s-8 0.833008 -12 1.5v80c81.333 1.33301 155 38.666 221 111.999v-1c38 24 74.833 42.333 110.5 55s71.167 19 106.5 19
c9.33301 0 18.5 -0.5 27.5 -1.5s18.167 -2.16699 27.5 -3.5h-1c25.333 -6 51.166 -16.5 77.499 -31.5s52.166 -34.833 77.499 -59.5c24.667 -23.333 45 -55.5 61 -96.5s27.667 -87.167 35 -138.5c-0.666992 -49.333 -6.16699 -94.5 -16.5 -135.5s-26 -77.167 -47 -108.5
s-47 -57.5 -78 -78.5s-67.5 -35.833 -109.5 -44.5c-56 1.33301 -108.167 8.83301 -156.5 22.5s-89.5 33.834 -123.5 60.501zM965.998 1602c30 -0.666992 59.1689 -1.50293 87.502 -2.50293s57.5 -1.83301 87.5 -2.5l-5 -43v-34c0 -66 12.333 -115.667 37 -149
c26.667 -33.333 77.667 -50 153 -50c108.667 3.33301 163 69.666 163 198.999v34c-0.666992 7.33301 -1.5 14.5 -2.5 21.5s-1.83301 14.167 -2.5 21.5c30 0.666992 59.333 1.5 88 2.5s58 1.83301 88 2.5v-45c-0.666992 -23.333 -2.83398 -46.666 -6.50098 -69.999
s-9.5 -46.166 -17.5 -68.499s-18.5 -43.666 -31.5 -63.999s-28.833 -39.166 -47.5 -56.499c-26 -19.333 -60.167 -36.333 -102.5 -51s-89.5 -22.667 -141.5 -24c-24 0 -48.333 1.83301 -73 5.5s-48.834 9.5 -72.501 17.5s-46.167 18.167 -67.5 30.5s-41 27.166 -59 44.499
c-20.667 24.667 -38.167 57.334 -52.5 98.001s-21.833 86.667 -22.5 138v45zM1314 1492.99c-12.667 0 -24.667 2.5 -36 7.5s-21.166 11.667 -29.499 20s-15 18.166 -20 29.499s-7.5 23.666 -7.5 36.999c0 27.333 9.16699 50 27.5 68s40.166 27 65.499 27
c12.667 0 24.667 -2.5 36 -7.5s21.333 -11.667 30 -20s15.5 -18.333 20.5 -30s7.5 -24.167 7.5 -37.5s-2.5 -25.666 -7.5 -36.999s-11.833 -21.166 -20.5 -29.499s-18.667 -15 -30 -20s-23.333 -7.5 -36 -7.5z" />
    <glyph glyph-name="uni0964" unicode="&#x964;" horiz-adv-x="393" 
d="M338 -41h-151v1313h151v-1313z" />
    <glyph glyph-name="uni0965" unicode="&#x965;" horiz-adv-x="855" 
d="M800 -41h-148v1313h148v-1313zM336 -41h-149v1313h149v-1313z" />
    <glyph glyph-name="uni0D00" unicode="&#xd00;" horiz-adv-x="1185" 
d="M875 584c-22.667 -20.667 -44.998 -39.999 -66.998 -57.999c-54.667 -44.667 -82 -91 -82 -139v-83h-109v90c0 59.333 26 112.666 78 159.999v-1l35.5 29l34.5 31v-1c53.333 45.333 80 93 80 143c0 49.333 -15 87 -45 113c-30.667 26.667 -74.334 40 -131.001 40
c-57.333 0 -98.333 -16.667 -123 -50s-37 -81.666 -37 -144.999h-102c0.666992 94.667 24.167 166.5 70.5 215.5s113.166 73.5 200.499 73.5c86 0 153.667 -21.667 203 -65c50 -44 75 -101 75 -171c0 -70.667 -27 -131.334 -81 -182.001zM726.002 233.001v-128h-109v128h109
zM1176 1329v-1528h-975v1528h975zM313.002 1208v-1294h756v1294h-756z" />
    <glyph glyph-name="uni0D01" unicode="&#xd01;" horiz-adv-x="1185" 
d="M875 584c-22.667 -20.667 -44.998 -39.999 -66.998 -57.999c-54.667 -44.667 -82 -91 -82 -139v-83h-109v90c0 59.333 26 112.666 78 159.999v-1l35.5 29l34.5 31v-1c53.333 45.333 80 93 80 143c0 49.333 -15 87 -45 113c-30.667 26.667 -74.334 40 -131.001 40
c-57.333 0 -98.333 -16.667 -123 -50s-37 -81.666 -37 -144.999h-102c0.666992 94.667 24.167 166.5 70.5 215.5s113.166 73.5 200.499 73.5c86 0 153.667 -21.667 203 -65c50 -44 75 -101 75 -171c0 -70.667 -27 -131.334 -81 -182.001zM726.002 233.001v-128h-109v128h109
zM1176 1329v-1528h-975v1528h975zM313.002 1208v-1294h756v1294h-756z" />
    <glyph glyph-name="ml_anusvara" unicode="&#xd02;" horiz-adv-x="1038" 
d="M603 901c58 0 112.668 -11.667 164.001 -35s97.666 -55 138.999 -95c38 -44 67 -94.5 87 -151.5s30 -118.833 30 -185.5c0 -135.333 -39.333 -242.333 -118 -321c-78.667 -77.333 -179.667 -116 -303 -116c-124 0 -226.333 38.667 -307 116c-80 78.667 -120 187 -120 325
s40.667 249.667 122 335c83.333 85.333 185.333 128 306 128zM851.001 439c0 99.333 -19 181.999 -57 247.999c-37.333 66 -101 99 -191 99c-87.333 0 -154 -35.333 -200 -106c-38 -69.333 -57 -149.666 -57 -240.999c0 -217.333 85.667 -326 257 -326
c165.333 0 248 108.667 248 326z" />
    <glyph glyph-name="ml_visarga" unicode="&#xd03;" horiz-adv-x="751" 
d="M253 1121c57.333 57.333 127.333 86.001 210 86.001c84 0 150.667 -29.333 200 -88c48.667 -58.667 73 -129.667 73 -213c0 -82.667 -24.333 -151.334 -73 -206.001s-115 -82 -199 -82s-153.333 25.667 -208 77c-54 50.667 -81 120.667 -81 210c0 90 26 162 78 216z
M670 491.001c44 -52 66.001 -120.334 66.001 -205.001c0 -41.333 -6.33301 -79.166 -19 -113.499s-31 -65.5 -55 -93.5c-25.333 -25.333 -54.5 -45 -87.5 -59s-69.5 -21 -109.5 -21c-81.333 0 -150.333 25.667 -207 77c-55.333 51.333 -83 122 -83 212
c0 90.667 26 162 78 214c56 56 126.667 84 212 84s153.666 -31.667 204.999 -95zM466.001 741c72 0 108 57 108 171c0 115.333 -39.333 173 -118 173s-118 -57.667 -118 -173c0 -114 42.667 -171 128 -171zM466.001 121c72 0 108 57 108 171c0 114.667 -39.333 172 -118 172
s-118 -57.333 -118 -172c0 -114 42.667 -171 128 -171z" />
    <glyph glyph-name="uni0D04" unicode="&#xd04;" horiz-adv-x="1310" 
d="M950.298 671.436c-26.0596 -23.7607 -51.7393 -45.9863 -77.0332 -66.6816c-62.8506 -51.3545 -94.2764 -104.625 -94.2764 -159.812v-95.4268h-125.319v103.475c0 68.2168 29.8926 129.535 89.6777 183.955v-1.14941l40.8154 33.3418l39.665 35.6416v-1.15039
c61.3184 52.1201 91.9775 106.924 91.9775 164.41c0 56.7197 -17.2461 100.025 -51.7373 129.918c-35.2588 30.6592 -85.4629 45.9893 -150.613 45.9893c-65.917 0 -113.056 -19.1621 -141.415 -57.4863c-28.3604 -38.3242 -42.54 -93.8936 -42.54 -166.709h-117.271
c0.766602 108.84 27.7852 191.428 81.0557 247.765c53.2705 56.3359 130.11 84.5039 230.52 84.5039c98.876 0 176.674 -24.9102 233.394 -74.7314c57.4863 -50.5879 86.2295 -116.122 86.2295 -196.603c0 -81.2471 -31.043 -150.997 -93.1279 -209.25zM778.987 267.887
v-147.164h-125.319v147.164h125.319zM1296.36 1527.98v-1756.77h-1120.98v1756.77h1120.98zM304.153 1388.86v-1487.74h869.188v1487.74h-869.188z" />
    <glyph glyph-name="ml_a" unicode="&#xd05;" horiz-adv-x="2811" 
d="M1146 99c55.333 0 98.502 17.5 129.502 52.5s46.5 82.167 46.5 141.5c0 58.667 -15.5 105.667 -46.5 141s-73.833 53 -128.5 53c-4.66699 0 -35.667 -2.33301 -93 -7l-57 -11l4 163l57 -10c33.333 -6 59.666 -9 78.999 -9c50.667 0 91 16.5 121 49.5s45 77.833 45 134.5
c0 54.667 -17.333 104.667 -52 150s-77.334 72.666 -128.001 81.999c-81.333 -32 -143 -93.167 -185 -183.5s-63 -191.166 -63 -302.499s19.333 -208.333 58 -291c48 -102 119 -153 213 -153zM2535 195c31.333 53.333 47 119.333 47 198c0 77.333 -17 139.5 -51 186.5
s-84.333 70.5 -151 70.5c-68 0 -119.667 -25.333 -155 -76s-53 -115 -53 -193c0 -79.333 15.333 -143.333 46 -192c34.667 -57.333 87.667 -86 159 -86c70 0 122.667 30.667 158 92zM875.002 1094l-40.002 0.00292969c-126.667 0 -241.667 -50 -345 -150
c-85.333 -98 -128 -221.333 -128 -370c0 -202.667 68.333 -355.334 205 -458.001l42 -28l-86 -120l-41 25c-204.667 130 -307 328.667 -307 596c11.333 224.667 109 399 293 523c104.667 62 225.667 93 363 93c30.667 0 60 -1.33301 88 -4c67.333 -4 121.333 -13 162 -27
s62.667 -21.667 66 -23c69.333 29.333 148 44 236 44c168 0 298.333 -52.667 391 -158c112.667 108.667 258 163 436 163c177.333 0 319.333 -59.667 426 -179s160 -262.333 160 -429c0 -168.667 -30.667 -305.334 -92 -410.001c-76 -132 -188.667 -198 -338 -198
c-112 0 -203 37.333 -273 112s-105 168.167 -105 280.5s33.333 205.833 100 280.5s159.334 112 278 112c96.667 0 181.334 -34.333 254 -103c-7.33301 108.667 -46.666 203 -117.999 283c-78 89.333 -177.333 134 -298 134h-12c-58.667 0 -118 -15.833 -178 -47.5
s-101.833 -72.834 -125.5 -123.501s-35.5 -113.334 -35.5 -188.001v-720h-170v728c0 75.333 -11.333 136.833 -34 184.5s-63 86.834 -121 117.501c-56 29.333 -115.667 44 -179 44c-11.333 0 -22.333 -0.333008 -33 -1c110 -63.333 165 -158 165 -284
c0 -62.667 -14.167 -113.5 -42.5 -152.5s-57.5 -68.167 -87.5 -87.5c34 -18.667 66 -48 96 -88s45 -92.667 45 -158c0 -97.333 -33.833 -174.666 -101.5 -231.999s-149.167 -86 -244.5 -86c-153.333 0 -271.666 61 -354.999 183c-70.667 103.333 -106 232.666 -106 387.999
c0 244.667 89 419 267 523c-24 5.33301 -49.667 9 -77 11z" />
    <glyph glyph-name="ml_aa" unicode="&#xd06;" horiz-adv-x="3224" 
d="M2377 113c79.333 0 138 40.667 176 122c38.667 79.333 58 178.666 58 297.999s-10.667 210 -32 272c-126.667 -8.66699 -223 -58.667 -289 -150c-54 -87.333 -81 -182.666 -81 -285.999c0 -36 3.5 -68.667 10.5 -98s17.167 -55.333 30.5 -78
c38 -53.333 80.333 -80 127 -80zM1146 99c55.333 0 98.502 17.5 129.502 52.5s46.5 82.167 46.5 141.5c0 58.667 -15.5 105.667 -46.5 141s-73.833 53 -128.5 53c-4.66699 0 -35.667 -2.33301 -93 -7l-57 -11l4 163l57 -10c33.333 -6 59.666 -9 78.999 -9
c50.667 0 91 16.5 121 49.5s45 77.833 45 134.5c0 54.667 -17.333 104.667 -52 150s-77.334 72.666 -128.001 81.999c-81.333 -32 -143 -93.167 -185 -183.5s-63 -191.166 -63 -302.499s19.333 -208.333 58 -291c48 -102 119 -153 213 -153zM2703 931
c74 -4.66699 141.331 -20.998 201.998 -48.998c63.333 -30 118 -70.667 164 -122c44 -57.333 78.333 -120.833 103 -190.5s37 -143.167 37 -220.5c0 -206 -62.333 -373.333 -187 -502c-126 -127.333 -277.333 -191 -454 -191c-58.667 0 -119.167 9 -181.5 27
s-127.833 46 -196.5 84l36.5 47l36.5 47c112.667 -54.667 214.334 -82 305 -82c69.333 0 131.833 13.333 187.5 40s103.834 66 144.5 118c42.667 50.667 75.334 111.334 98.001 182.001s34.667 146.334 36 227.001c0.666992 5.33301 1 11.166 1 17.499v17.5
c0 42.667 -5 84.5 -15 125.5s-24.667 79.833 -44 116.5c-44.667 86 -112.667 141.667 -204 167c9.33301 -28 16.333 -62.167 21 -102.5s7 -87.5 7 -141.5c0 -153.333 -36 -280 -108 -380c-80 -117.333 -185 -176 -315 -176c-89.333 0 -168.333 31.333 -237 94
c-68 64 -102.667 162.667 -104 296c-0.666992 67.333 10.333 131.166 33 191.499s56 116.833 100 169.5c44 44.667 94.5 81 151.5 109s119.833 46.333 188.5 55l22 4c-11.333 18 -21 31.333 -29 40c-78 89.333 -177.333 134 -298 134h-12c-58.667 0 -118 -15.833 -178 -47.5
s-101.833 -72.834 -125.5 -123.501s-35.5 -113.334 -35.5 -188.001v-720h-170v728c0 75.333 -11.333 136.833 -34 184.5s-63 86.834 -121 117.501c-56 29.333 -115.667 44 -179 44c-11.333 0 -22.333 -0.333008 -33 -1c110 -63.333 165 -158 165 -284
c0 -62.667 -14.167 -113.5 -42.5 -152.5s-57.5 -68.167 -87.5 -87.5c34 -18.667 66 -48 96 -88s45 -92.667 45 -158c0 -97.333 -33.833 -174.666 -101.5 -231.999s-149.167 -86 -244.5 -86c-153.333 0 -271.666 61 -354.999 183c-70.667 103.333 -106 232.666 -106 387.999
c0 244.667 89 419 267 523c-24 5.33301 -49.667 9 -77 11h-40c-126.667 0 -241.667 -50 -345 -150c-85.333 -98 -128 -221.333 -128 -370c0 -202.667 68.333 -355.334 205 -458.001l42 -28l-86 -120l-41 25c-204.667 130 -307 328.667 -307 596
c11.333 224.667 109 399 293 523c104.667 62 225.667 93 363 93c30.667 0 60 -1.33301 88 -4c67.333 -4 121.333 -13 162 -27s62.667 -21.667 66 -23c69.333 29.333 148 44 236 44c168 0 298.333 -52.667 391 -158c112.667 108.667 258 163 436 163
c177.333 0 319.333 -59.667 426 -179c25.333 -28.667 47.666 -58.667 67 -90z" />
    <glyph glyph-name="ml_i" unicode="&#xd07;" horiz-adv-x="2052" 
d="M752 546c0 146.667 -58.333 220 -175 220c-56.667 0 -103.667 -15.667 -141 -47s-56 -69 -56 -113c0 -74.667 18 -136 54 -184c30.667 -44.667 75 -67 133 -67c59.333 0 105 22 137 66s48 85.667 48 125zM1334 173c356.667 0 535.002 159.668 535.002 479.001
c0 286 -99.667 429 -299 429c-46 0 -87.167 -7.66699 -123.5 -23s-67.166 -38 -92.499 -68c-21.333 -24 -38 -50.167 -50 -78.5s-18 -56.5 -18 -84.5v-555h-187v549c0 65.333 -33 126 -99 182c-63.333 52 -136.666 78 -219.999 78c-94.667 0 -178.334 -21.667 -251.001 -65
c-64 -47.333 -99.667 -101 -107 -161c42.667 22 94.334 33 155.001 33c114 0 202.667 -31 266 -93c63.333 -63.333 95 -141.666 95 -234.999c0 -94.667 -35 -173 -105 -235v1c-75.333 -62 -164 -93 -266 -93c-102.667 0 -188.334 29.333 -257.001 88v-1
c-76.667 68.667 -115 168.667 -115 300c-2.66699 79.333 7.66602 152.833 30.999 220.5s58.666 129.167 105.999 184.5c54 58 118.167 102.333 192.5 133s159.5 46 255.5 46c163.333 0 303.333 -66.333 420 -199c93.333 132.667 219.666 199 378.999 199
c78.667 0 149.167 -15.333 211.5 -46s115.833 -75.334 160.5 -134.001c34.667 -49.333 61 -105 79 -167s27 -130.333 27 -205c0 -218.667 -67.667 -383.334 -203 -494.001c-84.667 -86 -262 -129 -532 -129l-538 -2v2h-193c-158.667 -3.33301 -231.667 -43 -219 -119
c2 -82 72 -123 210 -123h1437v-151h-1400c-274.667 0 -412.667 89.333 -414 268c1.33301 135.333 67.333 217.333 198 246c58 12.667 149 20.667 273 24z" />
    <glyph glyph-name="ml_ii" unicode="&#xd08;" horiz-adv-x="3763" 
d="M752 546c0 146.667 -58.333 220 -175 220c-56.667 0 -103.667 -15.667 -141 -47s-56 -69 -56 -113c0 -74.667 18 -136 54 -184c30.667 -44.667 75 -67 133 -67c59.333 0 105 22 137 66s48 85.667 48 125zM1334 173c356.667 0 535.002 159.668 535.002 479.001
c0 286 -99.667 429 -299 429c-46 0 -87.167 -7.66699 -123.5 -23s-67.166 -38 -92.499 -68c-21.333 -24 -38 -50.167 -50 -78.5s-18 -56.5 -18 -84.5v-555h-187v549c0 65.333 -33 126 -99 182c-63.333 52 -136.666 78 -219.999 78c-94.667 0 -178.334 -21.667 -251.001 -65
c-64 -47.333 -99.667 -101 -107 -161c42.667 22 94.334 33 155.001 33c114 0 202.667 -31 266 -93c63.333 -63.333 95 -141.666 95 -234.999c0 -94.667 -35 -173 -105 -235v1c-75.333 -62 -164 -93 -266 -93c-102.667 0 -188.334 29.333 -257.001 88v-1
c-76.667 68.667 -115 168.667 -115 300c-2.66699 79.333 7.66602 152.833 30.999 220.5s58.666 129.167 105.999 184.5c54 58 118.167 102.333 192.5 133s159.5 46 255.5 46c163.333 0 303.333 -66.333 420 -199c93.333 132.667 219.666 199 378.999 199
c78.667 0 149.167 -15.333 211.5 -46s115.833 -75.334 160.5 -134.001c34.667 -49.333 61 -105 79 -167s27 -130.333 27 -205c0 -218.667 -67.667 -383.334 -203 -494.001c-84.667 -86 -262 -129 -532 -129l-538 -2v2h-193c-158.667 -3.33301 -231.667 -43 -219 -119
c2 -82 72 -123 210 -123h1437v-151h-1400c-274.667 0 -412.667 89.333 -414 268c1.33301 135.333 67.333 217.333 198 246c58 12.667 149 20.667 273 24zM2979 1054c85.333 104.667 186.333 156.999 303 156.999c73.333 0 140.833 -15 202.5 -45s115.5 -72 161.5 -126
c39.333 -52 69.5 -110.167 90.5 -174.5s31.5 -132.833 31.5 -205.5c0 -196 -58 -354 -174 -474c-114.667 -120 -253.667 -180 -417 -180c-52.667 0 -104.167 6 -154.5 18s-98.5 28.667 -144.5 50c-19.333 11.333 -39 25.166 -59 41.499s-39 34.833 -57 55.5
c-18.667 20.667 -35 41.334 -49 62.001s-26.333 42 -37 64l63.5 34l64.5 34c39.333 -79.333 90.166 -138.666 152.5 -177.999c62.333 -39.333 135.833 -59 220.5 -59c62.667 0 119 12.667 169 38s94.667 63.666 134 114.999c75.333 101.333 113 227.666 113 378.999
c0 121.333 -23 222 -69 302c-55.333 84 -136 126 -242 126c-70 0 -124 -22.667 -162 -68c-37.333 -45.333 -56 -90.666 -56 -135.999v-314h-174v301c0 46 -21.333 94 -64 144c-23.333 24 -47.833 42.167 -73.5 54.5s-53.834 18.5 -84.5 18.5c-143.333 0 -215 -101 -215 -303
c0 -41.333 3 -82.666 9 -123.999s15.667 -82.666 29 -123.999l-62.5 -25l-62.5 -25c-58.667 95.333 -88 194.666 -88 297.999c0 130.667 35.333 234 106 310c36 38 78 66.833 126 86.5s102.333 29.5 163 29.5c120.667 0 221.667 -52.333 303 -157h3z" />
    <glyph glyph-name="ml_u" unicode="&#xd09;" horiz-adv-x="1512" 
d="M561 356c106 0 159.001 71.334 159.001 214.001s-54.667 214 -164 214c-54.667 0 -99.334 -19.333 -134.001 -58s-52 -77.334 -52 -116.001c0 -169.333 63.667 -254 191 -254zM1302 530.001c5.33301 30.667 8.00195 63.3311 8.00195 97.998
c0 38.667 -3 73.834 -9 105.501s-14.833 60.834 -26.5 87.501s-26.167 51.334 -43.5 74.001s-37 44 -59 64c-97.333 81.333 -218.333 122 -363 122c-210.667 -10 -344.334 -79 -401.001 -207c48 22 98.333 33 151 33c105.333 0 192 -37 260 -111c60 -66 90 -146 90 -240
c0 -93.333 -30.667 -168.666 -92 -225.999c-64.667 -63.333 -149 -95 -253 -95c-52 0 -100.333 7.66699 -145 23s-84.667 37 -120 65c-40.667 34.667 -71.5 77.167 -92.5 127.5s-31.5 107.5 -31.5 171.5c0 83.333 13 160.166 39 230.499s62.667 132.5 110 186.5
c54 54 121.667 95.167 203 123.5s175.333 42.5 282 42.5c178.667 0 332.667 -41.667 462 -125c148.667 -105.333 223.667 -266.333 225 -483c-8 -190.667 -73.667 -336.334 -197 -437.001c-96 -82 -273.333 -125 -532 -129h-181c-158.667 -3.33301 -231.667 -43 -219 -119
c2 -82 72 -123 210 -123h887v-151h-850c-274.667 0 -412.667 89.333 -414 268c1.33301 135.333 67.333 217.333 198 246c58 12.667 149 20.667 273 24l108 -1c307.333 0 481.666 118.333 522.999 355z" />
    <glyph glyph-name="ml_uu" unicode="&#xd0a;" horiz-adv-x="3172" 
d="M561 356c106 0 159.001 71.334 159.001 214.001s-54.667 214 -164 214c-54.667 0 -99.334 -19.333 -134.001 -58s-52 -77.334 -52 -116.001c0 -169.333 63.667 -254 191 -254zM1302 530.001c5.33301 30.667 8.00195 63.3311 8.00195 97.998
c0 38.667 -3 73.834 -9 105.501s-14.833 60.834 -26.5 87.501s-26.167 51.334 -43.5 74.001s-37 44 -59 64c-97.333 81.333 -218.333 122 -363 122c-210.667 -10 -344.334 -79 -401.001 -207c48 22 98.333 33 151 33c105.333 0 192 -37 260 -111c60 -66 90 -146 90 -240
c0 -93.333 -30.667 -168.666 -92 -225.999c-64.667 -63.333 -149 -95 -253 -95c-52 0 -100.333 7.66699 -145 23s-84.667 37 -120 65c-40.667 34.667 -71.5 77.167 -92.5 127.5s-31.5 107.5 -31.5 171.5c0 83.333 13 160.166 39 230.499s62.667 132.5 110 186.5
c54 54 121.667 95.167 203 123.5s175.333 42.5 282 42.5c178.667 0 332.667 -41.667 462 -125c148.667 -105.333 223.667 -266.333 225 -483c-8 -190.667 -73.667 -336.334 -197 -437.001c-96 -82 -273.333 -125 -532 -129h-181c-158.667 -3.33301 -231.667 -43 -219 -119
c2 -82 72 -123 210 -123h887v-151h-850c-274.667 0 -412.667 89.333 -414 268c1.33301 135.333 67.333 217.333 198 246c58 12.667 149 20.667 273 24l108 -1c307.333 0 481.666 118.333 522.999 355zM2369 1054c85.333 104.667 186.334 156.999 303.001 156.999
c73.333 0 140.833 -15 202.5 -45s115.5 -72 161.5 -126c39.333 -52 69.5 -110.167 90.5 -174.5s31.5 -132.833 31.5 -205.5c0 -196 -58 -354 -174 -474c-114.667 -120 -253.667 -180 -417 -180c-52.667 0 -104.167 6 -154.5 18s-98.5 28.667 -144.5 50
c-19.333 11.333 -39 25.166 -59 41.499s-39 34.833 -57 55.5c-18.667 20.667 -35 41.334 -49 62.001s-26.333 42 -37 64l63.5 34l64.5 34c39.333 -79.333 90.166 -138.666 152.5 -177.999c62.333 -39.333 135.833 -59 220.5 -59c62.667 0 119 12.667 169 38
s94.667 63.666 134 114.999c75.333 101.333 113 227.666 113 378.999c0 121.333 -23 222 -69 302c-55.333 84 -136 126 -242 126c-70 0 -124 -22.667 -162 -68c-37.333 -45.333 -56 -90.666 -56 -135.999v-314h-174v301c0 46 -21.333 94 -64 144
c-23.333 24 -47.833 42.167 -73.5 54.5s-53.834 18.5 -84.501 18.5c-143.333 0 -215 -101 -215 -303c0 -41.333 3 -82.666 9 -123.999s15.667 -82.666 29 -123.999l-62.5 -25l-62.5 -25c-58.667 95.333 -88 194.666 -88 297.999c0 130.667 35.333 234 106 310
c36 38 78 66.833 126 86.5s102.333 29.5 163 29.5c120.667 0 221.667 -52.333 303 -157h3z" />
    <glyph glyph-name="ml_ru" unicode="&#xd0b;" horiz-adv-x="1467" 
d="M1115 -83c104 50 155.333 111.334 154 184.001c0 72.667 -47.667 133 -143 181c-38.667 18 -80 31.667 -124 41s-91.667 14.333 -143 15h-95c-48.667 0 -95.667 -5.16699 -141 -15.5s-86 -23.833 -122 -40.5c-46.667 -23.333 -82.167 -49.833 -106.5 -79.5
s-36.833 -62.834 -37.5 -99.501c0 -72.667 52.667 -134.667 158 -186c43.333 -20 89.833 -35.333 139.5 -46s103.5 -16.334 161.5 -17.001c56.667 0.666992 109.667 6.33398 159 17.001s96 26 140 46zM603 943.001c0 95.333 -34.666 143.001 -103.999 143.001
c-16.667 0 -31.334 -3.66699 -44.001 -11s-23.5 -17.333 -32.5 -30s-15.833 -27.5 -20.5 -44.5s-7 -35.167 -7 -54.5c0 -38.667 9.33301 -71.334 28 -98.001s44.334 -40 77.001 -40c33.333 0 58.666 12.667 75.999 38c18 26 27 58.333 27 97zM1023 943.002
c0 -39.333 9.16699 -71.667 27.5 -97s43.833 -38 76.5 -38c31.333 0 56.666 13.333 75.999 40c9.33301 13.333 16.5 28.5 21.5 45.5s7.5 34.5 7.5 52.5c0 38 -8.66699 70.667 -26 98c-17.333 28 -42.666 42 -75.999 42c-71.333 0 -107 -47.667 -107 -143zM1225 390.001
c55.333 -24.667 105.999 -62.0039 151.999 -112.004c47.333 -50.667 71 -108 71 -172c0 -130 -79 -227.333 -237 -292c-107.333 -44 -238.666 -66 -393.999 -66c-76 0 -147.833 6 -215.5 18s-128.5 28.667 -182.5 50c-78 34 -137.333 75.167 -178 123.5
s-61 103.833 -61 166.5c0 32.667 5.83301 63.167 17.5 91.5s29.167 55.166 52.5 80.499c49.333 52.667 101 90.667 155 114c-30 15.333 -58.5 35.666 -85.5 60.999s-52.167 56.333 -75.5 93c-46 72 -69 161 -69 267c0 105.333 29.667 195.333 89 270
c59.333 75.333 138.666 113 237.999 113c38.667 0 73.334 -5.66699 104.001 -17s58 -27.666 82 -48.999c48 -43.333 72 -102.666 72 -177.999c0 -76 -24.333 -137.333 -73 -184c-48 -46 -105 -69 -171 -69c-65.333 0 -116.666 17.333 -153.999 52
c-2.66699 1.33301 -5.83398 4.33301 -9.50098 9s-8.16699 9.66699 -13.5 15c28.667 -221.333 187 -331 475 -329c288.667 0 447 112.667 475 338l-17 -20c-4.66699 -5.33301 -8.66699 -9.66602 -12 -12.999c-31.333 -31.333 -64.333 -47.666 -99 -48.999
c-17.333 -0.666992 -30.166 -1 -38.499 -1h-13.5c-64.667 0 -121.334 22.667 -170.001 68c-48 44.667 -72 105.334 -72 182.001c0 74.667 24.333 134.334 73 179.001c49.333 44 111 66 185 66c99.333 0 179 -37.667 239 -113c58.667 -74.667 88 -164.667 88 -270
s-23 -194.333 -69 -267c-45.333 -72 -98 -122.667 -158 -152v-4z" />
    <glyph glyph-name="ml_li" unicode="&#xd0c;" horiz-adv-x="2373" 
d="M373 402c0 -75.333 20.333 -141.667 61 -199c42 -58 98.667 -87 170 -87c70.667 0 126.667 27.333 168 82c39.333 53.333 59 120.333 59 201c0 80 -19.667 145.667 -59 197c-39.333 52 -94.333 78 -165 78c-70 0 -126.333 -26 -169 -78
c-20 -25.333 -35.167 -49.333 -45.5 -72s-15.833 -43 -16.5 -61zM2157 405.999c0 74.667 -21.001 138 -63.001 190c-43.333 52 -99.666 78 -168.999 78c-70.667 0 -125 -26 -163 -78c-38.667 -51.333 -58 -117 -58 -197c0 -80.667 19.333 -147.667 58 -201
c40.667 -54.667 95.667 -82 165 -82c34.667 0 66 7.83301 94 23.5s52.667 37.5 74 65.5c41.333 58.667 62 125.667 62 201zM1905 789.999c36 0 71.6738 -5.49805 107.007 -16.498s69 -26.167 101 -45.5c14 -10 27.167 -20.333 39.5 -31s23.833 -23.334 34.5 -38.001
c-6 46 -16.167 90 -30.5 132s-31.166 79.333 -50.5 112c-28 44.667 -63.667 82.167 -107 112.5s-91 52.5 -143 66.5c-18.667 5.33301 -37.5 9.5 -56.5 12.5s-37.167 4.5 -54.5 4.5c-38 0 -75 -4.33301 -111 -13s-70.667 -20.667 -104 -36
c-58.667 -28 -103.334 -68.167 -134.001 -120.5s-46.667 -114.5 -48 -186.5l-3 -318l8 -204l8 -204c-32 -1.33301 -64 -2.5 -96 -3.5s-64 -2.16699 -96 -3.5l6 42c2 44 3.66699 92 5 144s2 109.333 2 172v375c0 78.667 -9.66699 135.334 -29 170.001
c-78 124.667 -192 186.667 -342 186c-148.667 0 -260.334 -44.667 -335.001 -134c-72.667 -90 -116 -192 -130 -306c9.33301 12 20.666 23.667 33.999 35s27.666 22.333 42.999 33c31.333 18.667 65 34 101 46s71 17.667 105 17c103.333 0 191.333 -36.333 264 -109
c72 -73.333 108 -166 108 -278c0 -114 -34 -209.333 -102 -286c-68.667 -76.667 -162.667 -115 -282 -115c-74 0 -138.833 14.5 -194.5 43.5s-101.834 70.5 -138.501 124.5c-34 55.333 -60.667 116.833 -80 184.5s-29 138.834 -29 213.501v16
c0 93.333 15.333 178.666 46 255.999s73 144.666 127 201.999c56.667 53.333 124.167 95.5 202.5 126.5s163.833 46.5 256.5 46.5c95.333 0 181.333 -15 258 -45s145 -74.333 205 -133c113.333 118.667 264.666 178 453.999 178c96 0 181.833 -14.5 257.5 -43.5
s142.834 -72.167 201.5 -129.5c116.667 -115.333 175 -268 175 -458v-24c0 -74.667 -8.33301 -142.667 -25 -204s-41.334 -116.333 -74 -165c-81.333 -126 -196.666 -189 -346 -189c-118.667 0 -211.334 38.333 -278.001 115c-33.333 38.667 -58.5 81.667 -75.5 129
s-25.5 99.666 -25.5 156.999c0 56.667 9 108 27 154s44.667 87.333 80 124c70.667 72.667 158.667 109 264 109z" />
    <glyph glyph-name="uni0D0D" unicode="&#xd0d;" horiz-adv-x="1310" 
d="M950.298 671.436c-26.0596 -23.7607 -51.7393 -45.9863 -77.0332 -66.6816c-62.8506 -51.3545 -94.2764 -104.625 -94.2764 -159.812v-95.4268h-125.319v103.475c0 68.2168 29.8926 129.535 89.6777 183.955v-1.14941l40.8154 33.3418l39.665 35.6416v-1.15039
c61.3184 52.1201 91.9775 106.924 91.9775 164.41c0 56.7197 -17.2461 100.025 -51.7373 129.918c-35.2588 30.6592 -85.4629 45.9893 -150.613 45.9893c-65.917 0 -113.056 -19.1621 -141.415 -57.4863c-28.3604 -38.3242 -42.54 -93.8936 -42.54 -166.709h-117.271
c0.766602 108.84 27.7852 191.428 81.0557 247.765c53.2705 56.3359 130.11 84.5039 230.52 84.5039c98.876 0 176.674 -24.9102 233.394 -74.7314c57.4863 -50.5879 86.2295 -116.122 86.2295 -196.603c0 -81.2471 -31.043 -150.997 -93.1279 -209.25zM778.987 267.887
v-147.164h-125.319v147.164h125.319zM1296.36 1527.98v-1756.77h-1120.98v1756.77h1120.98zM304.153 1388.86v-1487.74h869.188v1487.74h-869.188z" />
    <glyph glyph-name="ml_e" unicode="&#xd0e;" horiz-adv-x="2609" 
d="M1829 2l-419 0.000976562c8 -94.667 26.667 -173.334 56 -236.001c44 -92 116.667 -138 218 -138c100 0 150 75.333 150 226c0 28 -0.666992 54.667 -2 80c-2 38 -3 60.667 -3 68zM2579 9.00098c-9.33301 -76 -24.3311 -144 -44.998 -204
c-11.333 -32 -25.833 -64.167 -43.5 -96.5s-37.167 -62.833 -58.5 -91.5c-28.667 -34 -58.334 -62.167 -89 -84.5c-30.667 -22.333 -61.667 -38.166 -93 -47.499l-47 29.5l-47 29.5c72.667 36.667 129.167 102.334 169.5 197.001s64.166 220.334 71.5 377.001
c1.33301 35.333 2.66602 115 4 239c0 208 -32 374 -96 498c-82 147.333 -214 221 -396 221c-164 -0.666992 -289.667 -60.167 -377 -178.5s-131 -333.5 -131 -645.5v-134h429l1 842l179 -2l1 -951c0 -154.667 -11.333 -262.334 -34 -323.001
c-43.333 -114.667 -146.333 -172 -309 -172c-148.667 0 -261.667 57.667 -339 173c-56 84.667 -92.333 189.667 -109 315h-562l-29 91l23 14c100.667 53.333 149.667 147 147 281c0 80.667 -18.5 145.167 -55.5 193.5s-90.5 74.166 -160.5 77.499
c-73.333 0 -129 -24.5 -167 -73.5s-57 -112.5 -57 -190.5c0 -146.667 47.667 -242.667 143 -288l33 -12l-44 -104l-49 16c-84.667 30 -150.334 74.667 -197.001 134s-70 146 -70 260c0 112.667 38.833 203.334 116.5 272.001s175.167 103 292.5 103
s213.666 -34.333 288.999 -103s113 -159 113 -271c0 -112.667 -36.333 -207.334 -109 -284.001h329v2c-1.33301 59.333 -2.33301 111.666 -3 156.999c0 261.333 50.333 472.333 151 633c123.333 196.667 307.333 295 552 295c244 0 424.333 -86.667 541 -260
c98 -144.667 147 -339.667 147 -585c-1.33301 -160 -6.33301 -276.333 -15 -349z" />
    <glyph glyph-name="ml_ee" unicode="&#xd0f;" horiz-adv-x="2590" 
d="M1789 2l-379 0.000976562c8 -94.667 26.667 -173.334 56 -236.001c44 -92 110 -138 198 -138c86.667 0 130 75.333 130 226c0 28 -0.666992 54.667 -2 80c-2 38 -3 60.667 -3 68zM2531 689.001c0 -53.333 -9.66699 -102.998 -29 -148.998s-48 -89.333 -86 -130
c-26 -26 -42.333 -41 -49 -45c138.667 -71.333 208 -213.666 208 -426.999c0 -122 -34 -223 -102 -303c-67.333 -82.667 -165.333 -125.334 -294 -128.001c-43.333 3.33301 -81.333 12.666 -114 27.999v117c36.667 -16.667 71.334 -25.334 104 -26.001
c63.333 -2 117 31.333 161 100c37.333 69.333 56 140 56 212c0 184.667 -59.667 298.667 -179 342c-7.33301 1.33301 -15.333 2.5 -24 3.5s-18 1.5 -28 1.5c-21.333 0 -45.333 -2 -72 -6c-3.33301 -0.666992 -6.83301 -1.5 -10.5 -2.5s-7.16699 -2.16699 -10.5 -3.5v174
c5.33301 -1.33301 10.333 -2.66602 15 -3.99902s9.66699 -2.66602 15 -3.99902c22 -6 43 -9 63 -9c19.333 0 37 3 53 9c90 41.333 135 125.333 135 252c0 54.667 -12.667 109.334 -38 164.001c-82 147.333 -214 221 -396 221c-164 -0.666992 -289.667 -60.167 -377 -178.5
s-131 -333.5 -131 -645.5v-134h389l1 842l179 -2l1 -951c0 -154.667 -11.333 -262.334 -34 -323.001c-43.333 -114.667 -139.666 -172 -288.999 -172c-135.333 0 -241.666 57.667 -318.999 173c-56 84.667 -92.333 189.667 -109 315h-562l-29 91l23 14
c100.667 53.333 149.667 147 147 281c0 80.667 -18.5 145.167 -55.5 193.5s-90.5 74.166 -160.5 77.499c-73.333 0 -129 -24.5 -167 -73.5s-57 -112.5 -57 -190.5c0 -146.667 47.667 -242.667 143 -288l33 -12l-44 -104l-49 16c-84.667 30 -150.334 74.667 -197.001 134
s-70 146 -70 260c0 112.667 38.833 203.334 116.5 272.001s175.167 103 292.5 103s213.666 -34.333 288.999 -103s113 -159 113 -271c0 -112.667 -36.333 -207.334 -109 -284.001h329v2c-1.33301 59.333 -2.33301 111.666 -3 156.999c0 261.333 50.333 472.333 151 633
c123.333 196.667 307.333 295 552 295c238.667 0 421 -84.333 547 -253c48.667 -61.333 74.667 -148.333 78 -261z" />
    <glyph glyph-name="ml_ai" unicode="&#xd10;" horiz-adv-x="3982" 
d="M395.5 338c8.33301 -37.333 19.832 -70.3311 34.499 -98.998c18.667 -36.667 42.167 -65.167 70.5 -85.5s61.833 -31.5 100.5 -33.5c78 0.666992 134.667 32.667 170 96c34.667 61.333 52 136.666 52 225.999c-0.666992 47.333 -5.66699 89.5 -15 126.5
s-22.666 70.167 -39.999 99.5c-36.667 57.333 -91.667 87.666 -165 90.999h-5c-143.333 0.666992 -215 -99 -215 -299c0 -44 4.16699 -84.667 12.5 -122zM800.999 1094c-106 0 -190.665 -25.3311 -253.998 -75.998c-64.667 -50.667 -111.667 -114.667 -141 -192
c59.333 35.333 138.666 53 237.999 53c100 0 186.333 -41 259 -123c72 -82 108 -184.667 108 -308c0 -60.667 -9.5 -117.334 -28.5 -170.001s-45.5 -100 -79.5 -142c-36.667 -42 -80.334 -73.833 -131.001 -95.5s-107.667 -32.5 -171 -32.5
c-129.333 0 -231.333 51.667 -306 155c-71.333 110 -107 226 -107 348c0 122.667 10.333 218 31 286c37.333 127.333 111.333 227.666 222 300.999c110.667 74.667 235.334 112 374.001 112c210 -6 373.667 -68 491 -186c118.667 -120 178 -271.333 178 -454
c0 -233.333 -91 -426.333 -273 -579l-39 -30l-74 122l28 25c119.333 112.667 179 264 179 454c0 150 -42.833 274.833 -128.5 374.5s-210.834 152.167 -375.501 157.5zM3202 2.00391l-419 0.000976562c8 -94.667 26.667 -173.334 56 -236.001c44 -92 116.667 -138 218 -138
c100 0 150 75.333 150 226c0 28 -0.666992 54.667 -2 80c-2 38 -3 60.667 -3 68zM3952 9.00488c-9.33301 -76 -24.3301 -144 -44.9971 -204c-11.333 -32 -25.833 -64.167 -43.5 -96.5s-37.167 -62.833 -58.5 -91.5c-28.667 -34 -58.334 -62.167 -89 -84.5
c-30.667 -22.333 -61.667 -38.166 -93 -47.499l-47 29.5l-47 29.5c72.667 36.667 129.167 102.334 169.5 197.001s64.166 220.334 71.5 377.001c1.33301 35.333 2.66602 115 3.99902 239c0 208 -32 374 -96 498c-82 147.333 -214 221 -396 221
c-164 -0.666992 -289.667 -60.167 -377 -178.5s-131 -333.5 -131 -645.5v-134h429l1 842l179 -2l1 -951c0 -154.667 -11.333 -262.334 -34 -323.001c-43.333 -114.667 -146.333 -172 -309 -172c-148.667 0 -261.667 57.667 -339 173c-56 84.667 -92.333 189.667 -109 315
h-562l-29 91l23 14c100.667 53.333 149.667 147 147 281c0 80.667 -18.5 145.167 -55.5 193.5s-90.5 74.166 -160.5 77.499c-73.333 0 -129 -24.5 -167 -73.5s-57 -112.5 -57 -190.5c0 -146.667 47.667 -242.667 143 -288l33 -12l-44 -104l-49 16
c-84.667 30 -150.334 74.667 -197.001 134s-70 146 -70 260c0 112.667 38.833 203.334 116.5 272.001s175.167 103 292.5 103s213.666 -34.333 288.999 -103s113 -159 113 -271c0 -112.667 -36.333 -207.334 -109 -284.001h329v2
c-1.33301 59.333 -2.33301 111.666 -3 156.999c0 261.333 50.333 472.333 151 633c123.333 196.667 307.333 295 552 295c244 0 424.333 -86.667 541 -260c98 -144.667 147 -339.667 147 -585c-1.33301 -160 -6.33301 -276.333 -15 -349z" />
    <glyph glyph-name="uni0D11" unicode="&#xd11;" horiz-adv-x="1310" 
d="M950.298 671.436c-26.0596 -23.7607 -51.7393 -45.9863 -77.0332 -66.6816c-62.8506 -51.3545 -94.2764 -104.625 -94.2764 -159.812v-95.4268h-125.319v103.475c0 68.2168 29.8926 129.535 89.6777 183.955v-1.14941l40.8154 33.3418l39.665 35.6416v-1.15039
c61.3184 52.1201 91.9775 106.924 91.9775 164.41c0 56.7197 -17.2461 100.025 -51.7373 129.918c-35.2588 30.6592 -85.4629 45.9893 -150.613 45.9893c-65.917 0 -113.056 -19.1621 -141.415 -57.4863c-28.3604 -38.3242 -42.54 -93.8936 -42.54 -166.709h-117.271
c0.766602 108.84 27.7852 191.428 81.0557 247.765c53.2705 56.3359 130.11 84.5039 230.52 84.5039c98.876 0 176.674 -24.9102 233.394 -74.7314c57.4863 -50.5879 86.2295 -116.122 86.2295 -196.603c0 -81.2471 -31.043 -150.997 -93.1279 -209.25zM778.987 267.887
v-147.164h-125.319v147.164h125.319zM1296.36 1527.98v-1756.77h-1120.98v1756.77h1120.98zM304.153 1388.86v-1487.74h869.188v1487.74h-869.188z" />
    <glyph glyph-name="ml_o" unicode="&#xd12;" horiz-adv-x="1521" 
d="M793 365c0 56.667 -14.332 109.667 -42.999 159c-29.333 50 -77.333 77.667 -144 83s-123.667 -10.667 -171 -48c-48 -37.333 -74.333 -77.333 -79 -120c2 -62.667 16.333 -118.667 43 -168c53.333 -95.333 122.666 -143 207.999 -143c124 0 186 79 186 237zM360.001 654
c68 54 151.001 80.998 249.001 80.998s182.667 -33 254 -99c70.667 -66.667 106 -155.667 106 -267s-31 -201 -93 -269c-69.333 -69.333 -157.333 -104 -264 -104c-75.333 0 -142.166 18.333 -200.499 55s-107.5 90.334 -147.5 161.001c-26.667 50 -47.5 103 -62.5 159
s-23.167 112.667 -24.5 170l-2 32c0 41.333 2 80 6 116c12 64.667 32.5 124.834 61.5 180.501s64.167 104.834 105.5 147.501c62.667 60.667 136.5 107.5 221.5 140.5s178.5 49.5 280.5 49.5c22 0 43.833 -0.333008 65.5 -1s44.167 -2.33398 67.5 -5.00098
s47.666 -6.66699 72.999 -12s52.666 -12.333 81.999 -21c55.333 -16.667 111.333 -43.667 168 -81c113.333 -78 170 -175.333 170 -292c0 -26 -3.33301 -50.333 -10 -73s-16.667 -44 -30 -64c-26.667 -39.333 -50.667 -65 -72 -77c94.667 -56.667 142 -139.334 142 -248.001
c0 -52.667 -13.667 -100.5 -41 -143.5s-66.333 -79.833 -117 -110.5c-43.333 -24 -88.5 -42.333 -135.5 -55s-96.167 -19 -147.5 -19l-24 59.5l-24 59.5c92.667 0 168.667 20 228 60c56.667 44.667 85 98 85 160c0 60.667 -16.333 106.334 -49 137.001
c-24.667 20.667 -64.334 31 -119.001 31c-7.33301 0 -18.166 -0.333008 -32.499 -1s-32.166 -1.66699 -53.499 -3v140c6.66699 0 14 -0.166992 22 -0.5s14.667 -0.5 20 -0.5c10.667 -0.666992 19.667 -1 27 -1h18c8 0 16.167 0.666992 24.5 2s17.166 3.33301 26.499 6
c18.667 4.66699 37.334 20 56.001 46c18.667 25.333 28 61 28 107s-26.667 97.667 -80 155c-91.333 86 -215 129.333 -371 130c-82 -2 -155.333 -17.5 -220 -46.5s-119.334 -69.5 -164.001 -121.5c-35.333 -42 -62.333 -85.833 -81 -131.5s-27.667 -91.167 -27 -136.5z" />
    <glyph glyph-name="ml_oo" unicode="&#xd13;" horiz-adv-x="2642" 
d="M793 365c0 56.667 -14.332 109.667 -42.999 159c-29.333 50 -77.333 77.667 -144 83s-123.667 -10.667 -171 -48c-48 -37.333 -74.333 -77.333 -79 -120c2 -62.667 16.333 -118.667 43 -168c53.333 -95.333 122.666 -143 207.999 -143c124 0 186 79 186 237zM360.001 654
c68 54 151.001 80.998 249.001 80.998s182.667 -33 254 -99c70.667 -66.667 106 -155.667 106 -267s-31 -201 -93 -269c-69.333 -69.333 -157.333 -104 -264 -104c-75.333 0 -142.166 18.333 -200.499 55s-107.5 90.334 -147.5 161.001c-26.667 50 -47.5 103 -62.5 159
s-23.167 112.667 -24.5 170l-2 32c0 41.333 2 80 6 116c12 64.667 32.5 124.834 61.5 180.501s64.167 104.834 105.5 147.501c62.667 60.667 136.5 107.5 221.5 140.5s178.5 49.5 280.5 49.5c22 0 43.833 -0.333008 65.5 -1s44.167 -2.33398 67.5 -5.00098
s47.666 -6.66699 72.999 -12s52.666 -12.333 81.999 -21c55.333 -16.667 111.333 -43.667 168 -81c113.333 -78 170 -175.333 170 -292c0 -26 -3.33301 -50.333 -10 -73s-16.667 -44 -30 -64c-26.667 -39.333 -50.667 -65 -72 -77c94.667 -56.667 142 -139.334 142 -248.001
c0 -52.667 -13.667 -100.5 -41 -143.5s-66.333 -79.833 -117 -110.5c-43.333 -24 -88.5 -42.333 -135.5 -55s-96.167 -19 -147.5 -19l-24 59.5l-24 59.5c92.667 0 168.667 20 228 60c56.667 44.667 85 98 85 160c0 60.667 -16.333 106.334 -49 137.001
c-24.667 20.667 -64.334 31 -119.001 31c-7.33301 0 -18.166 -0.333008 -32.499 -1s-32.166 -1.66699 -53.499 -3v140c6.66699 0 14 -0.166992 22 -0.5s14.667 -0.5 20 -0.5c10.667 -0.666992 19.667 -1 27 -1h18c8 0 16.167 0.666992 24.5 2s17.166 3.33301 26.499 6
c18.667 4.66699 37.334 20 56.001 46c18.667 25.333 28 61 28 107s-26.667 97.667 -80 155c-91.333 86 -215 129.333 -371 130c-82 -2 -155.333 -17.5 -220 -46.5s-119.334 -69.5 -164.001 -121.5c-35.333 -42 -62.333 -85.833 -81 -131.5s-27.667 -91.167 -27 -136.5z
M1847 304.998c16 -33.333 36 -61.335 60 -84.002c29.333 -28.667 63 -51 101 -67s79.667 -24 125 -24c198 0 297 159.333 297 478s-97.667 478 -293 478c-104.667 0 -185 -40 -241 -120c-26.667 -40 -48 -84.667 -64 -134c-4 -12 -7.66699 -24 -11 -36l-150 66
c7.33301 22.667 15.666 45.334 24.999 68.001c26 61.333 61.333 112 106 152c94.667 84.667 206.334 127 335.001 127c163.333 0 290.666 -65 382 -195c78.667 -107.333 118 -242 118 -404c0 -160.667 -36.667 -293.667 -110 -399c-91.333 -136 -222.666 -204 -394 -204
c-140 0 -257 42.667 -351 128c-55.333 48.667 -94.333 103.334 -117 164.001l156 75c6 -24 14.667 -47 26 -69z" />
    <glyph glyph-name="ml_au" unicode="&#xd14;" horiz-adv-x="3190" 
d="M793 365c0 56.667 -14.332 109.667 -42.999 159c-29.333 50 -77.333 77.667 -144 83s-123.667 -10.667 -171 -48c-48 -37.333 -74.333 -77.333 -79 -120c2 -62.667 16.333 -118.667 43 -168c53.333 -95.333 122.666 -143 207.999 -143c124 0 186 79 186 237zM360.001 654
c68 54 151.001 80.998 249.001 80.998s182.667 -33 254 -99c70.667 -66.667 106 -155.667 106 -267s-31 -201 -93 -269c-69.333 -69.333 -157.333 -104 -264 -104c-75.333 0 -142.166 18.333 -200.499 55s-107.5 90.334 -147.5 161.001c-26.667 50 -47.5 103 -62.5 159
s-23.167 112.667 -24.5 170l-2 32c0 41.333 2 80 6 116c12 64.667 32.5 124.834 61.5 180.501s64.167 104.834 105.5 147.501c62.667 60.667 136.5 107.5 221.5 140.5s178.5 49.5 280.5 49.5c22 0 43.833 -0.333008 65.5 -1s44.167 -2.33398 67.5 -5.00098
s47.666 -6.66699 72.999 -12s52.666 -12.333 81.999 -21c55.333 -16.667 111.333 -43.667 168 -81c113.333 -78 170 -175.333 170 -292c0 -26 -3.33301 -50.333 -10 -73s-16.667 -44 -30 -64c-26.667 -39.333 -50.667 -65 -72 -77c94.667 -56.667 142 -139.334 142 -248.001
c0 -52.667 -13.667 -100.5 -41 -143.5s-66.333 -79.833 -117 -110.5c-43.333 -24 -88.5 -42.333 -135.5 -55s-96.167 -19 -147.5 -19l-24 59.5l-24 59.5c92.667 0 168.667 20 228 60c56.667 44.667 85 98 85 160c0 60.667 -16.333 106.334 -49 137.001
c-24.667 20.667 -64.334 31 -119.001 31c-7.33301 0 -18.166 -0.333008 -32.499 -1s-32.166 -1.66699 -53.499 -3v140c6.66699 0 14 -0.166992 22 -0.5s14.667 -0.5 20 -0.5c10.667 -0.666992 19.667 -1 27 -1h18c8 0 16.167 0.666992 24.5 2s17.166 3.33301 26.499 6
c18.667 4.66699 37.334 20 56.001 46c18.667 25.333 28 61 28 107s-26.667 97.667 -80 155c-91.333 86 -215 129.333 -371 130c-82 -2 -155.333 -17.5 -220 -46.5s-119.334 -69.5 -164.001 -121.5c-35.333 -42 -62.333 -85.833 -81 -131.5s-27.667 -91.167 -27 -136.5z
M2386 1054c85.333 104.667 186.333 156.999 303 156.999c73.333 0 140.833 -15 202.5 -45s115.5 -72 161.5 -126c39.333 -52 69.5 -110.167 90.5 -174.5s31.5 -132.833 31.5 -205.5c0 -196 -58 -354 -174 -474c-114.667 -120 -253.667 -180 -417 -180
c-52.667 0 -104.167 6 -154.5 18s-98.5 28.667 -144.5 50c-19.333 11.333 -39 25.166 -59 41.499s-39 34.833 -57 55.5c-18.667 20.667 -35 41.334 -49 62.001s-26.333 42 -37 64l63.5 34l64.5 34c39.333 -79.333 90.166 -138.666 152.5 -177.999
c62.333 -39.333 135.833 -59 220.5 -59c62.667 0 119 12.667 169 38s94.667 63.666 134 114.999c75.333 101.333 113 227.666 113 378.999c0 121.333 -23 222 -69 302c-55.333 84 -136 126 -242 126c-70 0 -124 -22.667 -162 -68c-37.333 -45.333 -56 -90.666 -56 -135.999
v-314h-174v301c0 46 -21.333 94 -64 144c-23.333 24 -47.833 42.167 -73.5 54.5s-53.834 18.5 -84.5 18.5c-143.333 0 -215 -101 -215 -303c0 -41.333 3 -82.666 9 -123.999s15.667 -82.666 29 -123.999l-62.5 -25l-62.5 -25c-58.667 95.333 -88 194.666 -88 297.999
c0 130.667 35.333 234 106 310c36 38 78 66.833 126 86.5s102.333 29.5 163 29.5c120.667 0 221.667 -52.333 303 -157h3z" />
    <glyph glyph-name="ml_ka" unicode="&#xd15;" horiz-adv-x="1990" 
d="M644 176c32.667 27.333 55.332 55.332 67.999 83.999c-27.333 61.333 -48.666 118.333 -63.999 171s-24.333 101.334 -27 146.001h-75c-56.667 0 -104.667 -24.667 -144 -74c-32.667 -45.333 -49 -95 -49 -149c0 -146.667 60.333 -220 181 -220c38 0 74.667 14 110 42z
M807.998 576.999c4 -118.667 29.001 -223.001 75.001 -313.001c24.667 -39.333 53.167 -71.666 85.5 -96.999s67.166 -38 104.499 -38c76 0 139 45 189 135c47.333 90.667 73 195 77 313h-531zM615.999 700.998c7.33301 124 38.668 227.004 94.001 309.004
c83.333 126.667 205.333 193 366 199c154 -7.33301 270.333 -70.666 349 -189.999c58 -89.333 90.667 -195.333 98 -318h55c44.667 0 92.334 -6.33301 143.001 -19c49.333 -12.667 89.333 -32.334 120 -59.001c38 -28 69.833 -64.333 95.5 -109s38.5 -97.334 38.5 -158.001
c0 -57.333 -13.333 -109 -40 -155s-64 -85 -112 -117c-37.333 -22 -76.166 -39 -116.499 -51s-80.5 -18 -120.5 -18c-17.333 0 -33.833 1.33301 -49.5 4s-31.834 7.33398 -48.501 14.001c-4.66699 20 -9 40.5 -13 61.5s-8.33301 41.833 -13 62.5
c21.333 -6 41.333 -10.333 60 -13s35.667 -4 51 -4c16.667 0 30.334 1.33301 41.001 4c19.333 5.33301 36.666 11.666 51.999 18.999s29.666 15.666 42.999 24.999c52.667 42 79 95.333 79 160c0 66 -18 121.667 -54 167c-49.333 41.333 -101.333 62 -156 62h-52
c-2 -72 -14.667 -141.5 -38 -208.5s-55.333 -128.833 -96 -185.5c-46 -58 -95.167 -102 -147.5 -132s-107.5 -45 -165.5 -45c-116.667 0 -219 54.667 -307 164h-5c-15.333 -24.667 -32.5 -46.834 -51.5 -66.501s-39.167 -36.834 -60.5 -51.501
c-23.333 -13.333 -45.333 -23.833 -66 -31.5s-39 -11.5 -55 -11.5c-45.333 0 -88.833 7.66699 -130.5 23s-81.167 38 -118.5 68c-34.667 30.667 -61.667 66.167 -81 106.5s-29 84.5 -29 132.5c0 99.333 34.333 182.333 103 249c75.333 75.333 166.666 113 273.999 113h64z
M804.001 698.002h536c-4 85.333 -13.667 154.333 -29 207c-16.667 55.333 -45.5 98.833 -86.5 130.5s-87.167 47.5 -138.5 47.5c-186.667 -0.666992 -280.667 -129 -282 -385z" />
    <glyph glyph-name="ml_kha" unicode="&#xd16;" horiz-adv-x="2005" 
d="M599 672c-70.667 0 -125.666 -26.666 -164.999 -79.999c-40.667 -52.667 -61 -116.334 -61 -191.001c0 -76 20 -143.333 60 -202c39.333 -59.333 94.333 -89 165 -89c71.333 0 126.666 27.333 165.999 82c38.667 53.333 58 120.333 58 201c0 82 -19.333 148.667 -58 200
c-39.333 52.667 -94.333 79 -165 79zM1248 1017c119.333 -124.667 179.003 -278.332 179.003 -460.999c0 -38 -4.83301 -77.667 -14.5 -119s-23.5 -83 -41.5 -125c-18 -39.333 -37.5 -75 -58.5 -107s-41.833 -57.667 -62.5 -77h543v1079h186v-1203h-896l-31 39l-31 39
c71.333 66.667 125.666 139.5 162.999 218.5s56 164.167 56 255.5c0 134 -36 253.333 -108 358c-80.667 107.333 -190 165 -328 173c-147.333 -1.33301 -259.666 -43 -336.999 -125c-78.667 -84.667 -122.334 -188.667 -131.001 -312c10.667 14 23.667 27.833 39 41.5
s31.666 26.167 48.999 37.5c29.333 19.333 60.5 34 93.5 44s67.833 15 104.5 15c103.333 0 190.666 -36.667 261.999 -110c72 -73.333 108 -167 108 -281c0 -57.333 -8.33301 -109.5 -25 -156.5s-42 -90.167 -76 -129.5c-67.333 -77.333 -160.666 -116 -279.999 -116
c-150 0 -264 62.667 -342 188c-62.667 98.667 -94 220.667 -94 366v31c0 191.333 57 344 171 458c108 113.333 263.333 171 466 173c179.333 -4.66699 324.666 -69.334 435.999 -194.001z" />
    <glyph glyph-name="ml_ga" unicode="&#xd17;" horiz-adv-x="1855" 
d="M356 579c-6 -108 20.332 -213.663 78.999 -316.996c49.333 -89.333 123.333 -134 222 -134c172 0 258 150.667 258 452c0 419.333 147.333 629 442 629c72.667 0 139.834 -16.833 201.501 -50.5s116.5 -80.834 164.5 -141.501c33.333 -48 60 -100.333 80 -157
s32.333 -114.334 37 -173.001v-46c0.666992 -296.667 -120 -509.667 -362 -639l-37 -18l-70 129l41 16c154.667 76.667 236.667 226.334 246 449.001c12.667 165.333 -9.33301 286 -66 362c-55.333 97.333 -134 146 -236 146c-48.667 0 -90.667 -12.833 -126 -38.5
s-62.666 -60.834 -81.999 -105.501c-14.667 -39.333 -26 -89.333 -34 -150s-12 -131.334 -12 -212.001c0 -155.333 -35 -286.333 -105 -393h1c-86 -121.333 -200.333 -182 -343 -182c-143.333 0 -259.333 58.333 -348 175c-84 103.333 -128 231 -132 383h1v1
c-0.666992 296.667 120 509.667 362 639l37 18l70 -129l-41 -16c-154.667 -76.667 -237.334 -242.334 -248.001 -497.001z" />
    <glyph glyph-name="ml_gha" unicode="&#xd18;" horiz-adv-x="2877" 
d="M2004 504l0.00195312 199.997c-1.33301 46.667 -2.33301 83.834 -3 111.501s-1.33398 44.834 -2.00098 51.501c-3.33301 25.333 -10 48.833 -20 70.5s-23.667 40.834 -41 57.501c-25.333 25.333 -55.833 45 -91.5 59s-74.834 21 -117.501 21
c-88 0 -154.667 -25.667 -200 -77c-44.667 -52.667 -67 -139.667 -67 -261v-233h542zM1277 505.997l0.00195312 217.001c0 154 26.667 263.333 80 328c84 102.667 203.667 153.667 359 153c78.667 -0.666992 148 -14 208 -40s111 -63.667 153 -113
c28 -36 49 -83.167 63 -141.5s21 -126.833 21 -205.5v-320h-699v-266h1210l-3 1080h186l1 -1202h-1584v394h-614l-29 91l23 14c100.667 53.333 149.667 147 147 281c0 80.667 -18.5 145.167 -55.5 193.5s-90.5 74.166 -160.5 77.499c-73.333 0 -129 -24.5 -167 -73.5
s-57 -112.5 -57 -190.5c0 -146.667 47.667 -242.667 143 -288l33 -12l-44 -104l-49 16c-84.667 30 -150.334 74.667 -197.001 134s-70 146 -70 260c0 112.667 38.833 203.334 116.5 272.001s175.167 103 292.5 103s213.666 -34.333 288.999 -103s113 -159 113 -271
c0 -112.667 -36.333 -207.334 -109 -284.001h400z" />
    <glyph glyph-name="ml_nga" unicode="&#xd19;" horiz-adv-x="2159" 
d="M600 672c-71.333 0 -126.666 -26.667 -165.999 -80c-40.667 -51.333 -61 -115 -61 -191c0 -38 4.83301 -73.667 14.5 -107s24.834 -65 45.501 -95c39.333 -59.333 94.666 -89 165.999 -89s126.333 27.333 165 82c38.667 53.333 58 120.333 58 201
c0 82 -19.333 148.667 -58 200c-38.667 52.667 -93.334 79 -164.001 79zM794 1211c44.667 -1.33301 86.332 -6.33008 124.999 -14.9971s75 -21.334 109 -38.001s66 -37.667 96 -63s58.667 -55 86 -89c26.667 39.333 58.5 72.833 95.5 100.5s80.167 49.5 129.5 65.5
c74 24.667 149.333 37 226 37c73.333 0 138.666 -8 195.999 -24s107.333 -40 150 -72c85.333 -62 128 -149.333 128 -262c0 -112 -44 -193.333 -132 -244c42 -21.333 76 -53 102 -95s39 -94.333 39 -157c0 -122.667 -51 -216 -153 -280
c-75.333 -46.667 -162.666 -70 -261.999 -70c-93.333 0 -187 27.667 -281 83l42 43.5l42 43.5c22.667 -15.333 49.167 -27 79.5 -35s65.5 -12 105.5 -12c80.667 0 143.334 24.333 188.001 73c39.333 43.333 59 88.333 59 135c0 22.667 -5.16699 45.667 -15.5 69
s-25.166 45.666 -44.499 66.999c-20 22 -43.5 39 -70.5 51s-57.167 18 -90.5 18h-163v119h163c31.333 0 59 5.33301 83 16s45.667 26.667 65 48c38 42 57 88.333 57 139s-18.333 97 -55 139c-24 26.667 -54.667 47.334 -92 62.001s-81 22 -131 22
c-100.667 0 -186.667 -25 -258 -75c-34 -24 -60.167 -51.333 -78.5 -82s-27.5 -63 -27.5 -97c0 -138.667 -0.166992 -276.834 -0.5 -414.501s-0.5 -275.834 -0.5 -414.501h-187l-1 822c0 34.667 -7.83301 67.667 -23.5 99s-37.5 59.333 -65.5 84c-60 50 -135.333 77 -226 81
l-29 2c-127.333 -4.66699 -229 -47.667 -305 -129c-79.333 -84 -123.333 -188 -132 -312c22 28.667 51.333 55 88 79c30 19.333 61.333 34 94 44s67.667 15 105 15c102.667 0 189.667 -36.667 261 -110c72 -74 108 -167.667 108 -281c0 -57.333 -8.33301 -109.5 -25 -156.5
s-42 -90.167 -76 -129.5c-67.333 -77.333 -160.333 -116 -279 -116c-150 0 -264 62.667 -342 188c-63.333 99.333 -95 221.333 -95 366v31c0 191.333 55 342 165 452c111.333 110 262.666 169.667 453.999 179z" />
    <glyph glyph-name="ml_ca" unicode="&#xd1a;" horiz-adv-x="1900" 
d="M1880 5l-1705 0.00195312v121h624c108.667 40 163 135.667 163 287c0 64 -17.667 121.333 -53 172c-18 24 -40.5 42.667 -67.5 56s-58.167 20 -93.5 20c-71.333 0 -123.666 -22.667 -156.999 -68c-32.667 -45.333 -49 -99 -49 -161s20 -119.333 60 -172l-52 -28l-52 -28
c-41.333 25.333 -73 57.5 -95 96.5s-33 84.5 -33 136.5c0 54.667 11.333 104.5 34 149.5s55 83.833 97 116.5c38 25.333 78 45.166 120 59.499s83.667 21.5 125 21.5c110 0 203.667 -33 281 -99v1c80.667 -73.333 121 -165.333 121 -276s-47.333 -205.334 -142 -284.001h689
v1083h185v-1204z" />
    <glyph glyph-name="ml_cha" unicode="&#xd1b;" horiz-adv-x="2737" 
d="M2074 393c0 -80 19 -147 57 -201c20 -27.333 43.667 -47.833 71 -61.5s59 -20.5 95 -20.5c71.333 0 127 29.667 167 89c39.333 58 59 125.333 59 202c0 75.333 -20 139 -60 191c-40 53.333 -95.667 80 -167 80c-69.333 0 -124.333 -26.333 -165 -79
c-38 -52 -57 -118.667 -57 -200zM2120 1094c-168.667 -1.33301 -297.335 -61.3311 -386.002 -179.998c-36 -53.333 -62.833 -109.5 -80.5 -168.5s-26.5 -122.167 -26.5 -189.5c0 -91.333 18.667 -176.5 56 -255.5s91.666 -151.833 162.999 -218.5l-30.5 -39l-30.5 -39h-1610
v122h624c108.667 40 163 135.667 163 287c0 64 -17.667 121.333 -53 172c-17.333 24 -39.666 42.667 -66.999 56s-58.666 20 -93.999 20c-70 0 -122 -23 -156 -69c-33.333 -45.333 -50 -99 -50 -161c0 -31.333 4.83301 -60.833 14.5 -88.5s25.167 -55.167 46.5 -82.5
l-52.5 -28l-52.5 -28c-41.333 25.333 -73 57.5 -95 96.5s-33 84.5 -33 136.5c0 54.667 11.333 104.5 34 149.5s55 83.833 97 116.5c38 25.333 78 45.166 120 59.499s83.667 21.5 125 21.5c110.667 0 204.334 -33.333 281.001 -100v1c81.333 -73.333 122 -165 122 -275
c0 -110.667 -47.667 -205.334 -143 -284.001h89l521 2c-20 18.667 -40.333 43.667 -61 75s-40.667 68 -60 110c-36.667 84.667 -55 165.667 -55 243c0 93.333 14.833 178 44.5 254s74.5 145.333 134.5 208c122 125.333 271 189 447 191c3.33301 0.666992 6.33301 1 9 1h9
c2 0 4.83301 0.166992 8.5 0.5s6.83398 0.5 9.5 0.5c91.333 -4.66699 175.333 -21.667 252 -51s142 -70 196 -122c114.667 -114.667 172 -267.334 172 -458.001v-31c0 -72.667 -7.83301 -139.334 -23.5 -200.001s-39.5 -116 -71.5 -166
c-78 -125.333 -192.333 -188 -343 -188c-118.667 0 -211.667 38.667 -279 116c-33.333 39.333 -58.333 82.5 -75 129.5s-25 99.167 -25 156.5c0 113.333 35.333 207 106 281c71.333 73.333 159 110 263 110c78 2 144.333 -12.333 199 -43c36 -19.333 63 -43.666 81 -72.999
l5 1c-8.66699 108.667 -52 205 -130 289c-40 42 -85.333 73.833 -136 95.5s-108.334 33.834 -173 36.501z" />
    <glyph glyph-name="ml_ja" unicode="&#xd1c;" horiz-adv-x="1957" 
d="M1075 340h-519c-60 0 -106 -13.833 -138 -41.5s-48 -62.5 -48 -104.5c0 -97.333 60.333 -146 181 -146c136.667 0 277 31.333 421 94l411 203c-83.333 -4 -186 -5.66699 -308 -5zM499 604c84 0 126 49.999 126 149.999c0 43.333 -10.5 76.333 -31.5 99s-51.5 34 -91.5 34
c-42.667 0 -74 -12.167 -94 -36.5s-30 -55.5 -30 -93.5c0 -49.333 9.5 -87.166 28.5 -113.499s49.833 -39.5 92.5 -39.5zM1776 174.999c0 78.667 -42.333 118 -127 118c-72.667 0 -165.667 -34.333 -279 -103c32.667 -98.667 108.667 -148 228 -148
c118.667 0 178 44.333 178 133zM1062 1058c103.333 103.333 231.003 155.004 383.003 155.004c138 1.33301 256.167 -37.334 354.5 -116.001s147.5 -179.334 147.5 -302.001c0 -185.333 -81.333 -312.666 -244 -381.999c64 -6.66699 116 -28.667 156 -66
c48 -46 72 -109 72 -189c0 -79.333 -31.333 -142.666 -94 -189.999s-140.667 -71 -234 -71c-94 0 -176.167 20.833 -246.5 62.5s-120.166 96.5 -149.499 164.5c-142.667 -74 -241.334 -119.333 -296.001 -136c-120 -48.667 -243.667 -73 -371 -73
c-110 0 -196.667 22.167 -260 66.5s-95 109.166 -95 194.499c0 86 34.667 153.333 104 202c32.667 23.333 67.667 40.666 105 51.999c53.333 14 115 21 185 21h522c206 0 352.333 16 439 48c132 48.667 198 145.334 198 290.001c0 92 -25.333 166.167 -76 222.5
s-124 85.166 -220 86.499c-87.333 -2 -157.5 -28.833 -210.5 -80.5s-79.5 -117.834 -79.5 -198.501v-303h-178v241c0 84 -8.66699 143 -26 177c-46 100 -143.333 155.667 -292 167c-62.667 4.66699 -115 0 -157 -14c-42.667 -14.667 -78.667 -36.667 -108 -66
c-23.333 -28 -36 -55 -38 -81l2 2c43.333 29.333 101 44 173 44c33.333 0 65.833 -5 97.5 -15s58.5 -24.333 80.5 -43c49.333 -43.333 76.333 -96 81 -158c1.33301 -86 -24.334 -152.333 -77.001 -199c-50.667 -50 -124.334 -75 -221.001 -75
c-94.667 1.33301 -170.334 33.666 -227.001 96.999c-55.333 62.667 -82.666 140 -81.999 232c0 120.667 41 215 123 283c38 34.667 85 60.5 141 77.5s124 25.5 204 25.5c29.333 0 57.666 -2.33301 84.999 -7c143.333 -17.333 253 -66 329 -146z" />
    <glyph glyph-name="ml_jha" unicode="&#xd1d;" horiz-adv-x="3320" 
d="M1047 128c70 0 123.667 36.332 161 108.999c38 72 57 160.667 57 266c0 222.667 -69.667 387.667 -209 495c-36.667 -27.333 -69.5 -59.666 -98.5 -96.999s-53.5 -80 -73.5 -128c-35.333 -90 -53 -183.667 -53 -281c0 -98.667 17.333 -182.667 52 -252
c39.333 -74.667 94 -112 164 -112zM2840 1.99902c-151.333 4 -269.996 68.0039 -355.996 192.004c-111.333 -128 -234.333 -192 -369 -192c-89.333 0 -165.833 15.167 -229.5 45.5s-114.834 74.833 -153.501 133.5c-24.667 44.667 -43.834 99.167 -57.501 163.5
s-20.5 136.833 -20.5 217.5c0 15.333 0.166992 30.166 0.5 44.499s0.833008 28.166 1.5 41.499v58c0 254 -97 381 -291 381c-56 0 -116 -12 -180 -36c15.333 -10.667 31.166 -23.834 47.499 -39.501s33.166 -34.5 50.499 -56.5c15.333 -21.333 31 -44.666 47 -69.999
s30.667 -51 44 -77c23.333 -48.667 41.166 -99.5 53.499 -152.5s18.5 -107.167 18.5 -162.5c0 -5.33301 -0.166992 -10.833 -0.5 -16.5s-0.5 -11.167 -0.5 -16.5c-4.66699 -124 -46.667 -230.667 -126 -320c-81.333 -89.333 -174 -134 -278 -134
c-105.333 0 -198 48.667 -278 146c-79.333 96.667 -119 205.667 -119 327c0 58.667 7.83301 117.667 23.5 177s38.167 116 67.5 170c15.333 25.333 31 49.5 47 72.5s32.667 44.5 50 64.5c34.667 39.333 66.334 69.333 95.001 90c-43.333 22 -94.666 33 -153.999 33
c-56 0 -108.167 -12.5 -156.5 -37.5s-91.166 -59.5 -128.499 -103.5c-35.333 -42.667 -62.833 -91.167 -82.5 -145.5s-30.834 -113.833 -33.501 -178.5c8 -255.333 89.333 -421.333 244 -498l41 -16l-70 -129l-37 18c-242 129.333 -362 351.666 -360 666.999
c4 72.667 22.333 143.5 55 212.5s75 127.5 127 175.5c57.333 50.667 119 89.667 185 117s135.333 41 208 41c48 0 95.5 -6.33301 142.5 -19s93.833 -31.334 140.5 -56.001c58 23.333 113 41.166 165 53.499s101.667 18.5 149 18.5c322 0 483 -165 483 -495
c0 -5.33301 -0.166992 -12.5 -0.5 -21.5s-0.5 -16.167 -0.5 -21.5c-0.666992 -18 -1.16699 -41.167 -1.5 -69.5s-0.5 -62.166 -0.5 -101.499c0 -78.667 7 -144 21 -196c14.667 -51.333 43.667 -93.666 87 -126.999s97.666 -50 162.999 -50c32.667 0 64.5 8 95.5 24
s60.833 39 89.5 69c26.667 29.333 48.167 58.166 64.5 86.499s24.5 54.166 24.5 77.499v828h188v-830c0 -14.667 5.83301 -33.5 17.5 -56.5s28.167 -49.5 49.5 -79.5c28.667 -38.667 60.667 -68 96 -88c30.667 -18 64 -28 100 -30c98.667 0 175.667 46.333 231 139
c52.667 100 76 204 70 312c-10.667 254.667 -93.334 420.334 -248 497.001l-41 16l70 129l37 -18c242 -129.333 362.667 -342.333 362 -639v-1h1c-4 -152 -48 -279.667 -132 -383c-85.333 -112.667 -201.333 -171 -348 -175z" />
    <glyph glyph-name="ml_nya" unicode="&#xd1e;" horiz-adv-x="2904" 
d="M1984 985c-135.333 -109.333 -203 -267.998 -203 -475.998c0 -104.667 19 -194.334 57 -269.001c40 -74 90.667 -111 152 -111c60.667 0 111.667 37.667 153 113c42.667 78 64 162.333 64 253c0 91.333 -18.333 181.666 -55 270.999c-36 89.333 -90.667 162.333 -164 219
h-4zM374 401.002c0 -76.667 19.668 -144 59.001 -202c39.333 -59.333 94.333 -89 165 -89c71.333 0 126.666 27.333 165.999 82c38.667 53.333 58 120.333 58 201c0 82 -19.333 148.667 -58 200c-39.333 52.667 -94.333 79 -165 79s-125.667 -26.667 -165 -80
c-40 -52 -60 -115.667 -60 -191zM2706 577.002c-1.33301 24.667 -3.33594 52.0039 -6.00293 82.0039c-10 107.333 -49 202.666 -117 285.999c-81.333 96 -180 144 -296 144c-56 0 -110.667 -13.333 -164 -40c180 -157.333 270 -343.333 270 -558
c0 -126.667 -41.333 -239.334 -124 -338.001c-84 -96 -175.667 -144 -275 -144c-52 0 -102.5 13 -151.5 39s-92.833 62 -131.5 108c-79.333 98.667 -119 216.334 -119 353.001c0 78.667 14.333 155.667 43 231s69.667 146.666 123 213.999c14 17.333 29 34.166 45 50.499
s31.667 31.166 47 44.499c-47.333 26.667 -100.333 40 -159 40c-101.333 0 -187.666 -25.667 -258.999 -77c-67.333 -52.667 -101 -111.334 -101 -176.001v-826h-188l1 829c0 65.333 -35 124 -105 176c-67.333 52.667 -155.333 79 -264 79
c-127.333 -4.66699 -230 -48.667 -308 -132c-77.333 -83.333 -121 -187.333 -131 -312c11.333 14 24.5 27.833 39.5 41.5s31.167 26.167 48.5 37.5c29.333 19.333 60.5 34 93.5 44s68.167 15 105.5 15c102.667 0 190 -36.667 262 -110c71.333 -73.333 107 -167 107 -281
c0 -112.667 -33.333 -208.334 -100 -287.001c-67.333 -76.667 -160.666 -115 -279.999 -115c-149.333 0 -263.666 62.667 -342.999 188c-62.667 98.667 -94 220.667 -94 366v31c0 191.333 56 343 168 455c112.667 112.667 263 171.334 451 176.001
c3.33301 0 6.33301 -0.166992 9 -0.5s5.66699 -0.5 9 -0.5h9.5c3 0 6.16699 -0.333008 9.5 -1c34 -0.666992 69.5 -5.16699 106.5 -13.5s71.5 -18.5 103.5 -30.5c48 -23.333 88.833 -48.5 122.5 -75.5s60.5 -58.833 80.5 -95.5c97.333 145.333 238.666 218 423.999 218
c104 0 210.667 -28 320 -84c104 56 203.667 84 299 84c50.667 0 102.667 -8.33301 156 -25s107 -40.667 161 -72c15.333 -9.33301 31.166 -19.833 47.5 -31.5c16.333 -11.667 31.166 -23.167 44.5 -34.5v1c56 -52 99.667 -109.167 131 -171.5s51 -129.833 59 -202.5l3 -37
c-6 -289.333 -126.667 -496.666 -362 -621.999l-37 -18l-70 129l41 16c150.667 74.667 232.334 219 245.001 433z" />
    <glyph glyph-name="ml_tta" unicode="&#xd1f;" horiz-adv-x="1332" 
d="M1317 351c0 -64 -16.8359 -120.162 -50.5029 -168.495s-81.5 -87.5 -143.5 -117.5c-49.333 -21.333 -104.666 -38 -165.999 -50s-126.666 -18 -195.999 -18c-45.333 0 -89.833 3 -133.5 9s-86.167 14.667 -127.5 26c-40 11.333 -76.833 23.166 -110.5 35.499
s-61.5 24.5 -83.5 36.5c-22.667 12 -45.167 27 -67.5 45s-43.5 37.333 -63.5 58l62.5 58l62.5 58c43.333 -61.333 111.666 -112 204.999 -152c44 -16.667 87 -29.334 129 -38.001s84.333 -13 127 -13c246.667 0 370 77 370 231c0 45.333 -27 86.333 -81 123
c-67.333 42.667 -159.333 64 -276 64c-374 0 -561 100.333 -561 301c0 66 16.333 124.667 49 176s80.334 94.666 143.001 129.999c40.667 20 89.834 36.167 147.501 48.5s121.5 19.166 191.5 20.499c112.667 -4 215.667 -24.333 309 -61s173.333 -89.667 240 -159l-73.5 -50
l-72.5 -51c-98.667 120.667 -232.334 181 -401.001 181c-107.333 0 -192.666 -23.667 -255.999 -71c-61.333 -42.667 -92 -97.334 -92 -164.001c0 -119.333 125.333 -179 376 -179c362 0 543 -103 543 -309z" />
    <glyph glyph-name="ml_ttha" unicode="&#xd20;" horiz-adv-x="1400" 
d="M1211 1031c116 -118 174.001 -264.332 174.001 -438.999c0 -86.667 -15.333 -165.334 -46 -236.001s-77.334 -133.334 -140.001 -188.001c-61.333 -54.667 -126.833 -95.5 -196.5 -122.5s-143.5 -40.5 -221.5 -40.5c-157.333 0 -297.333 55.333 -420 166
c-124 110.667 -186 251.334 -186 422.001s61 316 183 436s265.667 180 431 180c166 0 306.667 -59.333 422 -178zM793.001 1087c-141.333 0 -251.333 -52 -330 -156c-68 -100 -102 -211.333 -102 -334c0 -123.333 38 -232 114 -326c82 -95.333 185 -143 309 -143
c120.667 0 221.667 47 303 141c75.333 91.333 113 200 113 326s-37 239.667 -111 341c-74 100.667 -172.667 151 -296 151z" />
    <glyph glyph-name="ml_dda" unicode="&#xd21;" horiz-adv-x="2638" 
d="M2622 583c-1.33301 -78.667 -12.002 -151 -32.002 -217c-21.333 -70.667 -52.666 -133 -93.999 -187c-48 -58.667 -103.167 -103 -165.5 -133s-131.833 -45 -208.5 -45c-131.333 0 -238.666 69.667 -321.999 209c-84 -138.667 -202.667 -208 -356 -208
c-309.333 0 -464 204.333 -464 613c0 150 -21 266 -63 348c-48.667 82.667 -127.667 124 -237 124c-108.667 -12.667 -187 -61 -235 -145c-54 -87.333 -81 -196 -81 -326c-3.33301 -248 97.334 -419 302.001 -513l-68 -123l-34 15
c-122.667 52 -218.334 134.333 -287.001 247c-68 112 -102 236.667 -102 374c0 174.667 49 316 147 424c100.667 110 235.667 164.667 405 164c293.333 -12 440 -208.333 440 -589c0 -162 14.667 -279 44 -351c41.333 -90.667 120 -136 236 -136c70 0 130.667 25 182 75
c50.667 48.667 76 99 76 151v852h188l1 -841c0 -54.667 17.333 -106.667 52 -156c42 -54 100 -81 174 -81c110 0 190 44 240 132c24.667 44 43.334 94 56 150c11.333 51.333 17.666 109 19 173h-1c3.33301 248 -97.334 419 -302 513l68 123l34 -15
c122.667 -52 218.334 -134.333 287 -247c68 -112 102 -236.667 102 -374h-1z" />
    <glyph glyph-name="ml_ddha" unicode="&#xd22;" horiz-adv-x="2864" 
d="M2649 811c0 36.667 -5.16699 71.999 -15.5 105.999s-25.166 65.333 -44.5 94c-19.333 28 -43 49.667 -71 65s-60 23 -96 23c-71.333 0 -126.333 -27 -165 -81c-38.667 -54.667 -58 -121.667 -58 -201c0 -77.333 19.333 -143 58 -197c37.333 -51.333 92 -77 164 -77
s127.667 25.667 167 77c40.667 52.667 61 116.334 61 191.001zM2250 113.999c126.667 6 229.334 50.6689 308 134.002c77.333 81.333 120.666 184.333 130 309c-11.333 -13.333 -24.666 -26.833 -40 -40.5c-15.333 -13.667 -31 -26.167 -47 -37.5
c-59.333 -38.667 -125.666 -58 -199 -58c-101.333 0 -189 36.667 -263 110c-71.333 72.667 -107 165.667 -107 279s33.333 208.666 100 285.999c67.333 78 161 117 281 117c72.667 0 138 -16.833 196 -50.5s107 -79.167 147 -136.5c30 -50 53 -106 69 -168
s24 -128.667 24 -200v-30c0 -192 -57.667 -345.333 -173 -460c-114 -114.667 -269 -172 -465 -172c-190.667 3.33301 -327.667 74.666 -411 213.999c-84 -138.667 -202.667 -208 -356 -208c-309.333 0 -464 204.333 -464 613c0 150 -21 266 -63 348
c-48.667 82.667 -127.667 124 -237 124c-108.667 -12.667 -187 -61 -235 -145c-54 -87.333 -81 -196 -81 -326c-3.33301 -248 97.334 -419 302.001 -513l-68 -123l-34 15c-122.667 52 -218.334 134.333 -287.001 247c-68 112 -102 236.667 -102 374
c0 174.667 49 316 147 424c100.667 110 235.667 164.667 405 164c293.333 -12 440 -208.333 440 -589c0 -162 14.667 -279 44 -351c41.333 -90.667 120 -136 236 -136c70 0 130.667 25 182 75c50.667 48.667 76 99 76 151v852h188l1 -841c0 -54.667 17.333 -106.667 52 -156
c88 -66 189.333 -97.667 304 -95z" />
    <glyph glyph-name="ml_nna" unicode="&#xd23;" horiz-adv-x="2876" 
d="M374 401c0 -76.667 19.668 -144 59.001 -202c39.333 -59.333 94.666 -89 165.999 -89s126.666 27.333 165.999 82c38.667 53.333 58 120.333 58 201c0 82 -19.333 148.667 -58 200c-39.333 52.667 -94.333 79 -165 79c-69.333 0 -124.666 -26.667 -165.999 -80
c-40 -52 -60 -115.667 -60 -191zM2622 933c-23.333 47.333 -55.167 84.835 -95.501 112.502c-40.333 27.667 -88.166 41.5 -143.5 41.5c-95.333 0 -168.333 -31 -219 -93c-50 -62 -75 -136 -75 -222v-767h-189v767c0 86 -24 160 -72 222s-107.667 93 -179 93
s-138.333 -25.333 -201 -76c-63.333 -50.667 -95 -100 -95 -148v-858h-188v851c0 45.333 -29 93 -87 143c-57.333 50.667 -134.666 81.334 -231.999 92.001c-24.667 2.66699 -48 3.66699 -70 3c-127.333 -4.66699 -230 -48.667 -308 -132
c-78.667 -84.667 -122.334 -188.667 -131.001 -312c22 28.667 51.333 55 88 79c59.333 39.333 125.666 59 198.999 59c102 0 189 -36.667 261 -110c71.333 -73.333 107 -167 107 -281c0 -112.667 -33.333 -208.334 -100 -287.001c-67.333 -76.667 -160.333 -115 -279 -115
c-149.333 0 -263.666 62.667 -342.999 188c-63.333 99.333 -95 221 -95 365v32c0 192 57.333 344.333 172 457c58.667 56.667 128.5 99.667 209.5 129s169.167 44.666 264.5 45.999c98 -4.66699 181 -23 249 -55s130.333 -81.667 187 -149c112 134 238.667 201 380 201
s260.333 -64 357 -192c86.667 128 219.334 192 398 192c165.333 0 292 -70.667 380 -212c59.333 -96.667 89 -221.334 89 -374.001c0 -137.333 -34 -262 -102 -374c-68.667 -112.667 -175.667 -200 -321 -262l-68 123c204.667 94 305.334 265 302.001 513
c2 126.667 -14.667 230 -50 310z" />
    <glyph glyph-name="ml_ta" unicode="&#xd24;" horiz-adv-x="2141" 
d="M945 791c-40 -88.667 -57 -179.331 -51 -271.998c0 -108.667 20.333 -201.334 61 -278.001c46 -82.667 113.333 -124 202 -124c160 0 240 143.333 240 430c2.66699 74.667 -13 155.167 -47 241.5s-96.667 158.166 -188 215.499c-104.667 -53.333 -177 -124.333 -217 -213
zM1806 -23.9971l-36 -23l-95 98l31 28l10 10c148 114 222 276.667 222 488c0 142 -40.167 261.833 -120.5 359.5s-188.166 146.5 -323.499 146.5c-70 0 -129.667 -9.66699 -179 -29c178 -102 267 -268.333 267 -499c0 -144.667 -33.333 -270.667 -100 -378
c-80.667 -126.667 -191.834 -190 -333.501 -190s-253.834 62 -336.501 186c-68 104 -102 225.333 -102 364v14c2.66699 233.333 93.334 402 272.001 506c-48.667 18.667 -104.667 28 -168 28c-135.333 0 -244.833 -49.5 -328.5 -148.5s-125.5 -218.833 -125.5 -359.5
c0 -211.333 74.333 -374 223 -488l39 -32l-95 -104l-33 23c-212.667 142.667 -319 340.334 -319 593.001c0 189.333 58.167 341.166 174.5 455.499s267.833 171.5 454.5 171.5c132.667 0 249.667 -22.667 351 -68c90 44.667 202.333 67 337 67
c188.667 0 341.5 -56.667 458.5 -170s175.5 -265.333 175.5 -456c0 -249.333 -106.667 -447 -320 -593z" />
    <glyph glyph-name="ml_tha" unicode="&#xd25;" horiz-adv-x="1866" 
d="M1652 145v618.999c0 89.333 -23 164 -69 224c-45.333 59.333 -121 89 -227 89c-105.333 0 -184.333 -30 -237 -90c-52 -61.333 -78 -135.666 -78 -222.999v-619h611zM175 2.99902v1205h189v-1079l487 -1v636c0 136 46.333 245.333 139 328s212.667 124 360 124
c94.667 0 176.334 -18.167 245.001 -54.5s123 -86.833 163 -151.5c27.333 -52 48.666 -107.333 63.999 -166s23 -117.667 23 -177l-2 -330.5l-2 -330.5z" />
    <glyph glyph-name="ml_da" unicode="&#xd26;" horiz-adv-x="1442" 
d="M803 1203c20 0.666992 41.6631 1.00586 64.9961 1.00586c127.333 -0.666992 242.333 -29.334 345 -86.001c124 -71.333 186 -165 186 -281v-5c0 -111.333 -40 -190 -120 -236c18.667 -12.667 36.5 -27.334 53.5 -44.001s33.167 -36 48.5 -58
c30.667 -44.667 46 -99.334 46 -164.001c0 -124.667 -47.333 -215.334 -142 -272.001c-73.333 -45.333 -168.666 -68 -285.999 -68c-58 0 -109.667 3.33301 -155 10c-13.333 2 -27.666 4.33301 -42.999 7l-3 161c24.667 -18 56.167 -33 94.5 -45s67.166 -18 86.499 -18
c39.333 0 75 4 107 12s60.333 20.667 85 38c50.667 32.667 76 87 76 163c0 68.667 -23 119.334 -69 152.001c-23.333 15.333 -55.5 27.166 -96.5 35.499s-89.833 12.5 -146.5 12.5h-110v154l119 -1c50 0.666992 92.333 4.16699 127 10.5s62.834 16 84.501 29
s37.334 29.167 47.001 48.5s14.5 42.666 14.5 69.999c0 87.333 -35 153.333 -105 198c-34 21.333 -71.667 37.833 -113 49.5s-85.666 17.5 -132.999 17.5c-22 0 -43 -1 -63 -3c-132 -8 -237.667 -59.333 -317 -154c-84 -98.667 -127.333 -216 -130 -352v-7
c0 -207.333 60 -370.333 180 -489l-109 -116c-168 158 -252 363.333 -252 616c0 176.667 58.333 322 175 436c114.667 113.333 265.667 172.666 453 177.999z" />
    <glyph glyph-name="ml_dha" unicode="&#xd27;" horiz-adv-x="2067" 
d="M1004 263c13.333 36.667 20.001 96.332 20.001 178.999l1 745h172v-745c0 -43.333 1.83301 -79.833 5.5 -109.5s8.83398 -52.834 15.501 -69.501c20 -46 46.5 -82.667 79.5 -110s68.833 -45.666 107.5 -54.999c19.333 -4.66699 38.333 -7.66699 57 -9
s35.667 -1.33301 51 0c57.333 2 108.666 15.5 153.999 40.5s83.666 62.167 114.999 111.5c53.333 87.333 80 196 80 326c3.33301 248.667 -97 419.667 -301 513l33.5 61.5l33.5 61.5c5.33301 -2.66699 11 -5.16699 17 -7.5s11.667 -4.83301 17 -7.5
c122.667 -52 218 -134.333 286 -247c35.333 -56.667 61.5 -116 78.5 -178s25.5 -127.333 25.5 -196c0 -175.333 -49.333 -316.666 -148 -423.999c-100 -110 -230.667 -165 -392 -165c-18.667 0 -36.667 0.5 -54 1.5s-34.333 2.83301 -51 5.5
c-114.667 16 -213.667 63.667 -297 143c-32 -34 -69.667 -62.5 -113 -85.5s-93.333 -40.167 -150 -51.5c-20.667 -4.66699 -42.167 -8 -64.5 -10s-44.833 -3 -67.5 -3c-161.333 0 -292.333 55 -393 165c-98 108 -147 249.333 -147 424c0 137.333 34 262 102 374
c68.667 112.667 164.334 195 287.001 247l34 15l33.5 -61.5l34.5 -61.5c-204.667 -94 -305.334 -265 -302.001 -513c0 -130 27 -238.667 81 -326c61.333 -98 151 -148.667 269 -152c40.667 0 76 4.33301 106 13c92 23.333 153.333 77 184 161z" />
    <glyph glyph-name="ml_na" unicode="&#xd28;" horiz-adv-x="2067" 
d="M1223 918c-13.333 -36.667 -20.001 -96.332 -20.001 -178.999l-1 -745h-172v745c0 43.333 -1.83301 79.833 -5.5 109.5s-8.83398 52.834 -15.501 69.501c-20 46 -46.5 82.667 -79.5 110s-68.833 45.666 -107.5 54.999c-19.333 4.66699 -38.333 7.66699 -57 9
s-35.667 1.33301 -51 0c-57.333 -2 -108.666 -15.5 -153.999 -40.5s-83.666 -62.167 -114.999 -111.5c-53.333 -87.333 -80 -196 -80 -326c-3.33301 -248.667 97 -419.667 301 -513l-33.5 -61.5l-33.5 -61.5c-5.33301 2.66699 -11 5.16699 -17 7.5s-11.667 4.83301 -17 7.5
c-122.667 52 -218 134.333 -286 247c-35.333 56.667 -61.5 116 -78.5 178s-25.5 127.333 -25.5 196c0 175.333 49.333 316.666 148 423.999c100 110 230.667 165 392 165c18.667 0 36.667 -0.5 54 -1.5s34.333 -2.83301 51 -5.5c114.667 -16 213.667 -63.667 297 -143
c32 34 69.667 62.5 113 85.5s93.333 40.167 150 51.5c20.667 4.66699 42.167 8 64.5 10s44.833 3 67.5 3c161.333 0 292.333 -55 393 -165c98 -108 147 -249.333 147 -424c0 -137.333 -34 -262 -102 -374c-68.667 -112.667 -164.334 -195 -287.001 -247l-34 -15l-33.5 61.5
l-34.5 61.5c204.667 94 305.334 265 302.001 513c0 130 -27 238.667 -81 326c-61.333 98 -151 148.667 -269 152c-40.667 0 -76 -4.33301 -106 -13c-92 -23.333 -153.333 -77 -184 -161z" />
    <glyph glyph-name="ml_nnna" unicode="&#xd29;" horiz-adv-x="2395" 
d="M2184 1054.5c126.667 -107 191.999 -257.834 195.999 -452.501v-8c0 -139.333 -39.5 -262 -118.5 -368s-177.5 -184.333 -295.5 -235l-37 -16l-50 127l40 14c84.667 32 150.334 92.833 197.001 182.5s70 197.834 70 324.501c0 1.33301 0.333008 2.16602 1 2.49902
s1 0.833008 1 1.5c0 121.333 -33 227.333 -99 318c-73.333 100.667 -191 151 -353 151c-150.667 0 -264.334 -61.667 -341.001 -185c-20 -34 -30 -90.667 -30 -170v-742h-170l-2 742c0 148 -60 250 -180 306c-67.333 31.333 -140 47 -218 47
c-33.333 0 -69.666 -4.66699 -108.999 -14c-111.333 -25.333 -195 -84.666 -251 -177.999c-42.667 -69.333 -69.334 -148.333 -80.001 -237c18.667 22 41.667 42 69 60c64.667 43.333 135 65 211 65c105.333 0 194.666 -37 267.999 -111s110 -167.667 110 -281
s-34.167 -209.5 -102.5 -288.5s-163.166 -118.5 -284.499 -118.5c-152.667 0 -270.334 63.667 -353.001 191c-65.333 101.333 -98 225 -98 371v26c0 191.333 58.833 345.166 176.5 461.499s272.5 174.5 464.5 174.5s344.667 -58.667 458 -176
c120.667 116.667 276.334 175.334 467.001 176.001c168.667 0 316.334 -53.5 443.001 -160.5zM611.999 109.999c71.333 0 126.168 27.002 164.501 81.002s57.5 121.5 57.5 202.5s-19 147 -57 198s-92.5 76.5 -163.5 76.5s-127 -25.833 -168 -77.5
s-61.5 -115.334 -61.5 -191.001s20.167 -142.834 60.5 -201.501s96.166 -88 167.499 -88z" />
    <glyph glyph-name="ml_pa" unicode="&#xd2a;" horiz-adv-x="1972" 
d="M883 127l873.002 -0.000976562v1093h187v-1217l-1285 1l-29 91l23 14c100.667 53.333 149.667 147 147 281c0 80.667 -18.5 145.167 -55.5 193.5s-90.5 74.166 -160.5 77.499c-73.333 0 -129 -24.5 -167 -73.5s-57 -112.5 -57 -190.5
c0 -146.667 47.667 -242.667 143 -288l33 -12l-44 -104l-49 16c-84.667 30 -150.334 74.667 -197.001 134s-70 146 -70 260c0 112.667 38.833 203.334 116.5 272.001s175.167 103 292.5 103s213.666 -34.333 288.999 -103s113 -159 113 -271
c0 -109.333 -34.333 -201.666 -103 -276.999z" />
    <glyph glyph-name="ml_pha" unicode="&#xd2b;" horiz-adv-x="2544" 
d="M2338 147v620.002c0 42.667 -6.83301 83.167 -20.5 121.5s-32.167 72.166 -55.5 101.499c-25.333 28.667 -58.666 50.667 -100 66c-41.333 15.333 -90.333 23 -147 23c-113.333 0 -199 -30 -257 -90c-28 -30.667 -49.167 -64.334 -63.5 -101.001s-21.5 -77 -21.5 -121
v-620h665zM1483 128.002l0.00195312 636.001c0 136 48.333 245 145 327c97.333 83.333 223 125 377 125c99.333 0 184.5 -17.667 255.5 -53s127.5 -86.333 169.5 -153c30 -52.667 52.833 -107.834 68.5 -165.501s23.5 -116.834 23.5 -177.501
c-0.666992 -111.333 -1.5 -221.5 -2.5 -330.5s-1.83301 -219.167 -2.5 -330.5l-1859 -2l-29 91l23 14c100.667 53.333 149.667 147 147 281c0 80.667 -18.5 145.167 -55.5 193.5s-90.5 74.166 -160.5 77.499c-73.333 0 -129 -24.5 -167 -73.5s-57 -112.5 -57 -190.5
c0 -146.667 47.667 -242.667 143 -288l33 -12l-44 -104l-49 16c-84.667 30 -150.334 74.667 -197.001 134s-70 146 -70 260c0 112.667 38.833 203.334 116.5 272.001s175.167 103 292.5 103s213.666 -34.333 288.999 -103s113 -159 113 -271
c0 -109.333 -34.333 -201.666 -103 -276.999z" />
    <glyph glyph-name="ml_ba" unicode="&#xd2c;" horiz-adv-x="2711" 
d="M600 670c-70 0 -125.667 -26.334 -167 -79.001c-40 -52 -60 -115.667 -60 -191c0 -76.667 19.667 -144 59 -202c39.333 -58.667 95 -88 167 -88c70.667 0 125.667 27.333 165 82c38.667 52.667 58 119.334 58 200.001c0 82 -19.333 148.667 -58 200
c-39.333 52 -94 78 -164 78zM1211 1003c117.333 136.667 243.332 204.995 377.999 204.995c136 0 250.333 -52 343 -156c89.333 -106 134 -249.333 134 -430c0 -106.667 -19 -201.5 -57 -284.5s-96 -153.5 -174 -211.5h663v1082h189v-1204h-1038
c-5.33301 20 -10.333 40 -15 60s-9.66699 40 -15 60c171.333 98 257 264 257 498c0 220 -54 363.333 -162 430c-35.333 21.333 -81 32 -137 32c-27.333 0 -56 -7.66699 -86 -23s-61 -37.666 -93 -66.999c-32 -30 -56.333 -62.833 -73 -98.5s-25 -73.834 -25 -114.501
c0 -129.333 0.166992 -258.833 0.5 -388.5s0.5 -259.5 0.5 -389.5h-189l2 775c0 40.667 -8.83301 79.334 -26.5 116.001s-42.5 70 -74.5 100c-66.667 60 -147.334 92 -242.001 96c-128.667 -8 -230.667 -52.333 -306 -133c-76.667 -82.667 -119.334 -182.667 -128.001 -300
c11.333 14.667 25.833 29.167 43.5 43.5s38.167 28.833 61.5 43.5c23.333 12.667 50.333 22.834 81 30.501s64 11.5 100 11.5c102 0 189 -36.667 261 -110c71.333 -72.667 107 -166 107 -280c0 -112.667 -33 -207.667 -99 -285c-67.333 -77.333 -160.666 -116 -279.999 -116
c-149.333 0 -263.666 62.667 -342.999 188c-62.667 98 -94 219.667 -94 365v31c0 190.667 56.667 342.334 170 455.001c112.667 112.667 257.334 170.667 434.001 174c39.333 0 78.166 -4.66699 116.499 -14s77.5 -22.666 117.5 -39.999
c78.667 -37.333 143.334 -87.666 194.001 -150.999h4z" />
    <glyph glyph-name="ml_bha" unicode="&#xd2d;" horiz-adv-x="1464" 
d="M854 1210h4.99609c145.333 0 270 -26.667 374 -80c125.333 -63.333 188 -149 188 -257v-16c-2 -68.667 -23.667 -117.334 -65 -146.001c-41.333 -29.333 -86.666 -44 -135.999 -44h-15c-31.333 0 -68.333 5 -111 15c-43.333 10 -81.666 15 -114.999 15
s-59.333 -7 -78 -21c-20 -16 -30.333 -53.667 -31 -113c1.33301 -24 8.33301 -43 21 -57s34 -21 64 -21c30.667 0 67.667 7.33301 111 22c22 7.33301 43.833 12.833 65.5 16.5s42.5 5.5 62.5 5.5c69.333 0 129 -22.333 179 -67c50.667 -44 76 -105 76 -183
c0 -193.333 -144.333 -290 -433 -290c-69.333 0 -152.666 9.66699 -249.999 29l39 174c71.333 -46.667 152.666 -72.667 243.999 -78h8c54 0 104.667 14 152 42c46 32 69 67.667 69 107c0 31.333 -13 61 -39 89c-25.333 27.333 -54.666 41 -87.999 41
c-17.333 0 -35.166 -2.16699 -53.499 -6.5s-37.833 -10.833 -58.5 -19.5c-42 -17.333 -81.333 -26 -118 -26c-68.667 2 -121.667 21 -159 57s-56 89.333 -56 160v15c0 104 20 173.333 60 208c42 36 88.667 54 140 54h3c53.333 -1.33301 99.333 -7.66602 138 -18.999
c21.333 -6 40.333 -10.667 57 -14s32.334 -5 47.001 -5c27.333 0 50.333 8.33301 69 25s28 37 28 61c0 28 -9.83301 53.833 -29.5 77.5s-48.5 46.167 -86.5 67.5c-34 18.667 -77.667 35 -131 49c-40 10 -88.333 15 -145 15c-16.667 0 -34.334 -0.333008 -53.001 -1
c-132 -8 -237.667 -59.333 -317 -154c-84 -98.667 -127.333 -216 -130 -352v-7c0 -207.333 60 -370.333 180 -489l-109 -116c-168 158 -252 363.333 -252 616c0 176.667 58.333 322 175 436c114.667 113.333 282.667 175 504 185z" />
    <glyph glyph-name="ml_ma" unicode="&#xd2e;" horiz-adv-x="1316" 
d="M1293 10h-1118c0 46 0.333008 156.167 1 330.5s1 284.5 1 330.5c4.66699 77.333 22.167 150.5 52.5 219.5s69.5 127.5 117.5 175.5c52 44.667 113.167 80.167 183.5 106.5s146.166 39.5 227.499 39.5c84.667 0 160.334 -13 227.001 -39s125.334 -64.667 176.001 -116
c55.333 -56 92 -117.667 110 -185c16.667 -64.667 24 -135.667 22 -213v-649zM1139 145l0.000976562 197.999c0 42 -0.166992 86.167 -0.5 132.5s-0.833008 95.5 -1.5 147.5v36c-0.666992 118.667 -20.667 206.667 -60 264c-40 58 -88.333 100.833 -145 128.5
s-123.334 41.5 -200.001 41.5c-90 -6 -164.667 -29.333 -224 -70c-59.333 -40 -99.333 -89 -120 -147c66.667 53.333 142 80 226 80c99.333 0 180 -32.667 242 -98c30 -31.333 52.667 -68.666 68 -111.999s23.666 -90 24.999 -140
c-7.33301 -82 -34.166 -161.667 -80.499 -239s-112.833 -151.333 -199.5 -222h470zM443 144.999c78.667 53.333 154 123 226 209c36 44 63 86.167 81 126.5s27 80.5 27 120.5c0 160 -57.667 241.667 -173 245h-8c-58.667 0 -112.667 -25.333 -162 -76
c-51.333 -52 -81.333 -106.333 -90 -163v-462h99z" />
    <glyph glyph-name="ml_ya" unicode="&#xd2f;" horiz-adv-x="2212" 
d="M1434 382c56.667 86 85.001 187.669 85.001 305.002c0 115.333 -29.333 215.333 -88 300c-48 67.333 -112.333 101 -193 101c-80 0 -147.333 -39.333 -202 -118c-54.667 -80.667 -82 -177.667 -82 -291c0 -58.667 5.16699 -112.834 15.5 -162.501
s25.166 -95.834 44.499 -138.501c40.667 -84.667 100.667 -149.667 180 -195c54 25.333 101 54.333 141 87s73 70 99 112zM767.001 693.002c0 52 6.00195 104.333 18.002 157c-40.667 148.667 -114.334 226.334 -221.001 233.001c-50 4 -93 -18.333 -129 -67
c-48 -66 -72 -168.333 -72 -307c0 -138 43.667 -266 131 -384c105.333 -131.333 245 -197 419 -197c59.333 0 101.666 4.66699 126.999 14c-13.333 9.33301 -27.333 20.666 -42 33.999s-30.667 29.333 -48 48c-16.667 18 -32.5 37.833 -47.5 59.5s-29.5 44.5 -43.5 68.5
c-30 54.667 -52.833 110.5 -68.5 167.5s-23.5 114.833 -23.5 173.5zM1448 -1.99805c-92 4.66699 -177.669 23.3359 -257.002 56.0029c-91.333 -32.667 -187.666 -49 -288.999 -49c-102.667 0 -198.834 19.5 -288.501 58.5s-170.167 94.5 -241.5 166.5
c-28.667 32.667 -55 68 -79 106s-44.833 77.5 -62.5 118.5s-31.334 83.333 -41.001 127s-14.5 87.5 -14.5 131.5c0 181.333 48.333 316.333 145 405v-1c72.667 63.333 156 95 250 95c49.333 0 101.333 -19.667 156 -59c52.667 -36.667 95.667 -82.334 129 -137.001
c22.667 25.333 49.334 51 80.001 77s63 47.667 97 65c34.667 17.333 69.834 30.666 105.501 39.999s71.167 14 106.5 14c59.333 0 115 -11.333 167 -34s100.333 -56 145 -100c100 -95.333 150 -229.333 150 -402c0 -117.333 -41.333 -231.333 -124 -342
c-32.667 -44 -70 -84 -112 -120c-18.667 -16.667 -36.667 -31.667 -54 -45s-33.333 -24.666 -48 -33.999c57.333 -18.667 117.666 -28.334 180.999 -29.001c14.667 0 33.334 1 56.001 3c135.333 13.333 236.333 68 303 164s100 216.667 100 362
c0 85.333 -18.833 169 -56.5 251s-87.167 145.333 -148.5 190l-41 24l83 128l40 -26c207.333 -142.667 311.333 -333.667 312 -573c0 -182.667 -51.667 -332.834 -155 -450.501s-249 -179.167 -437 -184.5c-47.333 0 -99.666 1.33301 -156.999 4z" />
    <glyph glyph-name="ml_ra" unicode="&#xd30;" horiz-adv-x="1486" 
d="M1276 460c0 200 -71.668 299.665 -215.001 298.998h-5c-73.333 -3.33301 -128.333 -33.666 -165 -90.999c-17.333 -29.333 -30.666 -62.5 -39.999 -99.5s-14.333 -79.167 -15 -126.5c0 -89.333 17.333 -164.666 52 -225.999c35.333 -63.333 92 -95.333 170 -96
c38.667 2 72.167 13.167 100.5 33.5s51.833 48.833 70.5 85.5c14.667 28.667 26.167 61.667 34.5 99s12.5 78 12.5 122zM482.499 936.498c-85.667 -99.667 -128.498 -224.502 -128.498 -374.502c0 -190 59.667 -341.333 179 -454l28 -25l-74 -122l-39 30
c-182 152.667 -273 345.667 -273 579c0 182.667 59.333 334 178 454c117.333 118 281 180 491 186c138.667 0 263.334 -37.333 374.001 -112c110.667 -73.333 184.667 -173.666 222 -300.999c20.667 -68 31 -163.333 31 -286c0 -122 -35.667 -238 -107 -348
c-74.667 -103.333 -176.667 -155 -306 -155c-63.333 0 -120.333 10.833 -171 32.5s-94.334 53.5 -131.001 95.5c-34 42 -60.5 89.333 -79.5 142s-28.5 109.334 -28.5 170.001c0 123.333 36 226 108 308c72.667 82 159 123 259 123c99.333 0 178.666 -17.667 237.999 -53
c-29.333 77.333 -76.333 141.333 -141 192c-63.333 50.667 -148 76 -254 76c-164.667 -5.33301 -289.834 -57.833 -375.501 -157.5z" />
    <glyph glyph-name="ml_rra" unicode="&#xd31;" horiz-adv-x="1420" 
d="M1405 617c-4 -175.333 -46.166 -317.498 -126.499 -426.498s-176.5 -183.167 -288.5 -222.5l-41 -17l-44 130l40 14c82.667 31.333 147.667 91 195 179s71 196.667 71 326l-1 6c0 134.667 -36 248.667 -108 342s-178 140.333 -318 141c-134 0 -239 -52 -315 -156
c-67.333 -91.333 -101 -198.333 -101 -321c0 -0.666992 0.333008 -1.33398 1 -2.00098l1 -1c0 -129.333 23.5 -239.333 70.5 -330s113.5 -152 199.5 -184l41 -14l-51 -130l-36 17c-120.667 51.333 -220.667 130.666 -300 237.999s-119 231.666 -119 372.999v8
c4 196 66 348 186 456s265 162 435 162c167.333 0 310.666 -55.667 429.999 -167s179 -251.666 179 -420.999z" />
    <glyph glyph-name="ml_la" unicode="&#xd32;" horiz-adv-x="1744" 
d="M906 509l0.000976562 202l-3 118c-0.666992 27.333 -1.33398 43.333 -2.00098 48c-7.33301 50.667 -28 93.334 -62 128.001c-51.333 53.333 -121 80 -209 80c-88.667 0 -155 -26 -199 -78c-44.667 -52.667 -67 -140.334 -67 -263.001v-235h542zM1535 130
c0 180.667 -0.333984 360.334 -1.00098 539.001s-1 358.334 -1 539.001h187v-1198h-1545l3 723c0 75.333 6.83301 140.666 20.5 195.999s32.834 99.333 57.501 132c42 50 93.333 88.167 154 114.5s130 39.166 208 38.499c77.333 -0.666992 146.333 -14 207 -40
s112 -63.667 154 -113c27.333 -36 48.5 -81.5 63.5 -136.5s23.167 -117.833 24.5 -188.5l-6 -342h-697v-264h1171z" />
    <glyph glyph-name="ml_lla" unicode="&#xd33;" horiz-adv-x="1489" 
d="M760 548c0 144 -57.998 215.999 -173.998 215.999c-57.333 0 -104.333 -15.333 -141 -46c-37.333 -31.333 -56 -69 -56 -113c0 -36.667 4.66699 -70.167 14 -100.5s22.666 -57.166 39.999 -80.499c30.667 -44.667 75 -67 133 -67c59.333 0 104.666 22 135.999 66
c32 44 48 85.667 48 125zM838.002 178.999l16.9941 0.000976562c296 0 449.333 70 460 210c0 33.333 -9.33301 64.333 -28 93c-34.667 44.667 -74.334 67 -119.001 67c-24 0 -48.5 -0.166992 -73.5 -0.5s-49.5 -0.5 -73.5 -0.5c0 21.333 -0.333008 42 -1 62s-1 40.667 -1 62
c50.667 0.666992 88.667 1 114 1h42c76.667 21.333 115 72.666 115 153.999c0 57.333 -34.333 111.333 -103 162c-92 58 -201.667 89 -329 93c-5.33301 0 -10.166 0.166992 -14.499 0.5s-9.16602 0.5 -14.499 0.5c-28.667 0 -57.667 -1.83301 -87 -5.5
s-59 -9.16699 -89 -16.5c-21.333 -6 -41.5 -13.667 -60.5 -23s-38.167 -20.666 -57.5 -33.999c-64 -51.333 -98.667 -101.333 -104 -150c44.667 21.333 96.334 32 155.001 32c112.667 0 201.334 -30.667 266.001 -92c63.333 -61.333 95 -139.333 95 -234
c0 -45.333 -9 -87.833 -27 -127.5s-44 -74.5 -78 -104.5c-37.333 -30 -78.166 -53 -122.499 -69s-92.166 -24 -143.499 -24c-102.667 0 -190.667 31.667 -264 95c-72.667 62 -109 158.667 -109 290v21c0 149.333 48.333 278.666 145 387.999c102 114 266.333 171 493 171h6
c184.667 0 331.667 -31 441 -93c118.667 -62.667 178 -160.334 178 -293.001c0 -40.667 -11.333 -79.667 -34 -117c-22.667 -35.333 -46.667 -61.333 -72 -78c94.667 -58.667 142 -140 142 -244c-1.33301 -79.333 -33.333 -152.333 -96 -219
c-68 -72 -193.667 -109.667 -377 -113h-444c-139.333 -3.33301 -209 -43 -209 -119c2.66699 -92 72.334 -138 209.001 -138h883v-150h-845c-272.667 0 -409.667 88.667 -411 266c1.33301 142.667 67 228.334 197 257.001c57.333 12.667 145.333 19 264 19z" />
    <glyph glyph-name="ml_llla" unicode="&#xd34;" horiz-adv-x="1529" 
d="M561 1136c-141.333 -62 -216.664 -166 -225.997 -312c1.33301 -60 15.833 -115.833 43.5 -167.5s66.5 -93.5 116.5 -125.5c38 -28.667 83.667 -50 137 -64s113.333 -21.333 180 -22c14 0 28.667 0.166992 44 0.5s30.333 0.833008 45 1.5
c-108.667 134 -162.334 263 -161.001 387c0 254 131 380.667 393 380c254 0 381 -141.667 381 -425c-4 -67.333 -19 -129.333 -45 -186c-34 -64 -83 -115.667 -147 -155c-29.333 -15.333 -58.333 -27.833 -87 -37.5s-56.334 -16.167 -83.001 -19.5
c52 -90.667 78 -159.667 78 -207c0 -113.333 -41 -192 -123 -236c-71.333 -52 -181 -82.333 -329 -91c-90 6 -155.833 15 -197.5 27s-81.5 29.333 -119.5 52c-32.667 17.333 -59.334 37.333 -80.001 60s-38.667 45.334 -54 68.001l151 52c24 -42 58 -74.5 102 -97.5
s109 -35.167 195 -36.5c100 2.66699 169.5 21.667 208.5 57s58.5 86.666 58.5 153.999c0 42 -21.333 91.333 -64 148h-32c-25.333 -0.666992 -47 -1.16699 -65 -1.5s-32 -0.166016 -42 0.500977c-92 0 -176.5 9.16699 -253.5 27.5s-145.5 44.166 -205.5 77.499
c-65.333 42 -115.833 93.833 -151.5 155.5s-53.5 127.834 -53.5 198.501c0 44 1.83301 80.5 5.5 109.5s19.5 72.5 47.5 130.5c30 44.667 65.667 82.667 107 114s84.333 51.666 129 60.999zM1122 1102c-144 0 -215.333 -87.668 -214 -263.001
c0 -142 52.667 -261.667 158 -359c176.667 28.667 270.667 139.334 282 332.001c-6.66699 187.333 -82 284 -226 290z" />
    <glyph glyph-name="ml_va" unicode="&#xd35;" horiz-adv-x="2016" 
d="M1029 137c43.333 34.667 80.334 80.335 111.001 137.002c47.333 88 71 196.667 71 326c-0.666992 138.667 -37 254.667 -109 348s-178 140.333 -318 141c-134 0 -239 -52 -315 -156c-67.333 -91.333 -101 -198.333 -101 -321c0 -0.666992 0.333008 -1.33398 1 -2.00098
l1 -1c0 -129.333 23.5 -239.333 70.5 -330s113.5 -152 199.5 -184l41 -14l-51 -130l-36 17c-120.667 51.333 -220.667 130.666 -300 237.999s-119 231.666 -119 372.999v8c4 196 66 348 186 456s265 162 435 162c167.333 0 310.666 -55.667 429.999 -167
s179 -251.666 179 -420.999c-4 -175.333 -46 -317.333 -126 -426c-24.667 -30.667 -42 -51.667 -52 -63h581v1084h188v-1207h-945l-58 107c12.667 8 24.667 16.333 36 25z" />
    <glyph glyph-name="ml_sha" unicode="&#xd36;" horiz-adv-x="2084" 
d="M1643 108c70.667 0 126.333 29.333 167 88c40 58.667 60 125.667 60 201c0 76 -20 140 -60 192c-39.333 53.333 -95.333 80 -168 80c-70 0 -124.333 -26.333 -163 -79c-38.667 -51.333 -58 -118 -58 -200c0 -80.667 19.333 -147.667 58 -201c38 -54 92.667 -81 164 -81z
M652.999 128c88.667 1.33301 150.332 42.665 184.999 123.998c30 74 45 188 45 342c0 80.667 12.833 157.5 38.5 230.5s61.167 138.833 106.5 197.5c57.333 60.667 122.666 107.334 195.999 140.001s153.333 48 240 46c89.333 -1.33301 170 -16.666 242 -45.999
s136.333 -72.333 193 -129c113.333 -113.333 170 -265.333 170 -456v-30c0 -72.667 -7.83301 -139.5 -23.5 -200.5s-39.5 -116.5 -71.5 -166.5c-78 -125.333 -192.333 -188 -343 -188c-119.333 0 -212.666 38.667 -279.999 116c-33.333 39.333 -58.333 82.5 -75 129.5
s-25 99.167 -25 156.5c0 114 35.667 207.667 107 281s159 110 263 110c73.333 0 133 -14 179 -42c48.667 -28.667 84.334 -57.667 107.001 -87c-8.66699 117.333 -52 217.333 -130 300c-76.667 81.333 -182.667 126 -318 134c-134.667 -2 -234 -51 -298 -147
c-30.667 -48 -53.667 -102.667 -69 -164s-23 -130.333 -23 -207c0 -72.667 -7.83301 -141.167 -23.5 -205.5s-37.5 -121.833 -65.5 -172.5c-36.667 -61.333 -82.667 -108 -138 -140c-50 -29.333 -112.333 -45.666 -187 -48.999c-143.333 0 -259.333 58.333 -348 175
c-84 103.333 -128 231 -132 383h1v1c-0.666992 296.667 120 509.667 362 639l37 18l70 -129l-41 -16c-154.667 -76.667 -237.334 -242.334 -248.001 -497.001c-6 -108 20.333 -213.667 79 -317c48.667 -88 121.334 -132.667 218.001 -134z" />
    <glyph glyph-name="ml_ssa" unicode="&#xd37;" horiz-adv-x="2471" 
d="M2268 129l0.00195312 663c-41.333 -50 -84.166 -94.5 -128.5 -133.5c-44.333 -39 -89.333 -72.667 -135 -101s-91.334 -51.333 -137.001 -69s-90.834 -30.5 -135.501 -38.5l-12 -321h548zM1558 918c0 111.333 -36.333 167 -109 167c-117.333 0 -176 -66.333 -176 -199
c0 -77.333 24 -149 72 -215c50 -58.667 117 -93.667 201 -105zM881.002 128l651.001 0.999023l13 316c-118 10.667 -223.667 50.667 -317 120v-1c-95.333 84 -143 191.333 -143 322c0 98.667 34 177 102 235c69.333 57.333 156.666 86 261.999 86c40 0 77 -6.66699 111 -20
s66 -33 96 -59c28.667 -24.667 50.334 -54.667 65.001 -90s22.334 -74 23.001 -116l-12 -351c76 12 168.333 59.667 277 143c21.333 16 45.5 37.5 72.5 64.5s57.833 59.833 92.5 98.5c32 37.333 56 74.333 72 111s23.333 71.334 22 104.001v117h188v-1203h-1798l-29 93
l23 14c100.667 53.333 149.667 147 147 281c0 80.667 -18.5 145.167 -55.5 193.5s-90.5 74.166 -160.5 77.499c-73.333 0 -129 -24.5 -167 -73.5s-57 -112.5 -57 -190.5c0 -146.667 47.667 -242.667 143 -288l33 -12l-44 -104l-49 16
c-84.667 30 -150.334 74.667 -197.001 134s-70 146 -70 260c0 112.667 38.833 203.334 116.5 272.001s175.167 103 292.5 103s213.666 -34.333 288.999 -103s113 -159 113 -271c0 -110.667 -35 -204 -105 -280z" />
    <glyph glyph-name="ml_sa" unicode="&#xd38;" horiz-adv-x="2647" 
d="M2450 597c-14.667 242 -97 399.999 -247 473.999l-41 16l70 129l37 -18c231.333 -124 354 -324.333 368 -601c0 -154 -52.667 -291.667 -158 -413c-107.333 -121.333 -236.666 -182 -387.999 -182c-125.333 0 -231.333 37.333 -318 112c-85.333 76 -128 191.667 -128 347
l30 300c0 53.333 -12.333 111 -37 173c-42 100.667 -116.333 151 -223 151c-58.667 0 -116 -25 -172 -75v1c-74 -64 -111 -148.333 -111 -253v-753h-187v753c0 219.333 -83 329 -249 329c-105.333 0 -185.666 -45.667 -240.999 -137
c-28.667 -48 -51.334 -104.333 -68.001 -169s-24.667 -127 -24 -187c15.333 -239.333 97.666 -396 246.999 -470l41 -16l-70 -129l-37 18c-230.667 123.333 -352 322.333 -364 597c-0.666992 176 50 321 152 435c102 120 223.333 180 364 180
c164.667 0 280.667 -62 348 -186h5c95.333 122.667 217.333 184 366 184c117.333 0 221 -44 311 -132c90 -87.333 135 -190.666 135 -309.999l-30 -298c0 -228.667 86.667 -343 260 -343c104 0 191.333 51.333 262 154c32.667 47.333 56.834 97.5 72.5 150.5
c15.667 53 23.5 109.167 23.5 168.5h1z" />
    <glyph glyph-name="ml_ha" unicode="&#xd39;" horiz-adv-x="2570" 
d="M1511 127c-24 24.667 -46.3311 51.001 -66.998 79.001c-79.333 107.333 -119 231.666 -119 372.999v8c4 196 66 348 186 456s265 162 435 162c167.333 0 310.666 -55.667 430 -167c119.333 -111.333 179 -251.666 179 -420.999c-4 -162 -46.833 -299.167 -128.5 -411.5
s-190.834 -190.5 -327.501 -234.5l-44 130l40 14c82.667 31.333 147.667 91 195 179s71 190 71 306l-1 6c0 134.667 -36 248.667 -108 342s-178 140.333 -318 141c-134 0 -239 -52 -315 -156c-67.333 -91.333 -101 -198.333 -101 -321
c0 -0.666992 0.333008 -1.33398 1 -2.00098l1 -1c0 -129.333 23.667 -239.333 71 -330c34 -66 79 -116.667 135 -152l-53 -124l-1015 1l-29 91l23 14c100.667 53.333 149.667 147 147 281c0 80.667 -18.5 145.167 -55.5 193.5s-90.5 74.166 -160.5 77.499
c-73.333 0 -129 -24.5 -167 -73.5s-57 -112.5 -57 -190.5c0 -146.667 47.667 -242.667 143 -288l33 -12l-46 -109l-49 16c-83.333 33.333 -148.333 79.666 -195 138.999s-70 146 -70 260c0 112.667 38.833 203.334 116.5 272.001s175.167 103 292.5 103
s213.666 -34.333 288.999 -103s113 -159 113 -271c0 -109.333 -34.333 -201.666 -103 -276.999h628z" />
    <glyph glyph-name="ml_ttta" unicode="&#xd3a;" horiz-adv-x="1819" 
d="M1549 167v601c0 94.667 -18.667 171.667 -56 231c-19.333 30 -44.5 52.333 -75.5 67s-67.5 22 -109.5 22c-81.333 0 -145 -30.667 -191 -92c-20.667 -30 -36.667 -64.5 -48 -103.5s-17 -80.5 -17 -124.5c4 -78.667 54 -168 150 -268l60.5 -58l60.5 -59l113 -110zM184 6
c-1.33301 198.667 -2.83008 395.499 -4.49707 590.499s-3.16699 391.5 -4.5 589.5c29.333 2.66699 58.166 5.5 86.499 8.5s57.166 5.83301 86.499 8.5l7 -1085h1030l-79 80c-25.333 24 -60 58.667 -104 104l-154 161c-50 58.667 -88.5 113.667 -115.5 165
s-42.167 98 -45.5 140c0 64.667 9.83301 122.667 29.5 174s48.5 97 86.5 137c77.333 80.667 179.666 121 306.999 121c82 0 151.667 -17.167 209 -51.5s103 -84.166 137 -149.499c21.333 -47.333 37.833 -102.166 49.5 -164.499s17.5 -129.833 17.5 -202.5v-29l-8 -524
l44.5 -36l44.5 -36h-92c0 -98 0.166992 -195.667 0.5 -293s0.5 -195 0.5 -293h-163c-0.666992 52.667 -1 104 -1 154v148v144c0 47.333 0.333008 93.666 1 138.999h-1366z" />
    <glyph glyph-name="uni0D3B" unicode="&#xd3b;" horiz-adv-x="1310" 
d="M950.298 671.436c-26.0596 -23.7607 -51.7393 -45.9863 -77.0332 -66.6816c-62.8506 -51.3545 -94.2764 -104.625 -94.2764 -159.812v-95.4268h-125.319v103.475c0 68.2168 29.8926 129.535 89.6777 183.955v-1.14941l40.8154 33.3418l39.665 35.6416v-1.15039
c61.3184 52.1201 91.9775 106.924 91.9775 164.41c0 56.7197 -17.2461 100.025 -51.7373 129.918c-35.2588 30.6592 -85.4629 45.9893 -150.613 45.9893c-65.917 0 -113.056 -19.1621 -141.415 -57.4863c-28.3604 -38.3242 -42.54 -93.8936 -42.54 -166.709h-117.271
c0.766602 108.84 27.7852 191.428 81.0557 247.765c53.2705 56.3359 130.11 84.5039 230.52 84.5039c98.876 0 176.674 -24.9102 233.394 -74.7314c57.4863 -50.5879 86.2295 -116.122 86.2295 -196.603c0 -81.2471 -31.043 -150.997 -93.1279 -209.25zM778.987 267.887
v-147.164h-125.319v147.164h125.319zM1296.36 1527.98v-1756.77h-1120.98v1756.77h1120.98zM304.153 1388.86v-1487.74h869.188v1487.74h-869.188z" />
    <glyph glyph-name="uni0D3C" unicode="&#xd3c;" horiz-adv-x="1310" 
d="M950.298 671.436c-26.0596 -23.7607 -51.7393 -45.9863 -77.0332 -66.6816c-62.8506 -51.3545 -94.2764 -104.625 -94.2764 -159.812v-95.4268h-125.319v103.475c0 68.2168 29.8926 129.535 89.6777 183.955v-1.14941l40.8154 33.3418l39.665 35.6416v-1.15039
c61.3184 52.1201 91.9775 106.924 91.9775 164.41c0 56.7197 -17.2461 100.025 -51.7373 129.918c-35.2588 30.6592 -85.4629 45.9893 -150.613 45.9893c-65.917 0 -113.056 -19.1621 -141.415 -57.4863c-28.3604 -38.3242 -42.54 -93.8936 -42.54 -166.709h-117.271
c0.766602 108.84 27.7852 191.428 81.0557 247.765c53.2705 56.3359 130.11 84.5039 230.52 84.5039c98.876 0 176.674 -24.9102 233.394 -74.7314c57.4863 -50.5879 86.2295 -116.122 86.2295 -196.603c0 -81.2471 -31.043 -150.997 -93.1279 -209.25zM778.987 267.887
v-147.164h-125.319v147.164h125.319zM1296.36 1527.98v-1756.77h-1120.98v1756.77h1120.98zM304.153 1388.86v-1487.74h869.188v1487.74h-869.188z" />
    <glyph glyph-name="ml_avagraha" unicode="&#xd3d;" horiz-adv-x="1064" 
d="M977 1418c-40.667 0 -61 30.999 -61 92.999c0 7.33301 1.16699 15.666 3.5 24.999s4.83301 17.666 7.5 24.999c3.33301 8.66699 5 15.667 5 21c0 2 -5.33301 3 -16 3c-14.667 0 -28.5 -21.167 -41.5 -63.5s-25.167 -102.166 -36.5 -179.499l-130.5 -725.5l-130.5 -724.5
c-24 -103.333 -57.833 -185.166 -101.5 -245.499s-95.167 -94.833 -154.5 -103.5c-48 2.66699 -84.333 16.334 -109 41.001s-37 61 -37 109c0 14.667 1.83301 29.834 5.5 45.501s8.83398 30.167 15.501 43.5c14.667 26.667 30.667 40 48 40c48.667 0 73 -30.333 73 -91
c0 -7.33301 -6 -29 -18 -65h10c13.333 0 26.833 10.667 40.5 32s27.167 51 40.5 89c12 36 23 72.833 33 110.5s17.667 71.5 23 101.5l55 321.5l56.5 328.5l57 328.5l55.5 321.5c15.333 80.667 34.666 149.834 57.999 207.501s49.333 101.167 78 130.5
c18 15.333 36.833 27.166 56.5 35.499s38.167 12.5 55.5 12.5c34.667 0 65 -12 91 -36c26.667 -24.667 40 -62.334 40 -113.001c0 -78.667 -24 -118 -72 -118z" />
    <glyph glyph-name="ml_aakaar" unicode="&#xd3e;" horiz-adv-x="1172" 
d="M367 305c16 -33.333 36 -61.335 60 -84.002c29.333 -28.667 63 -51 101 -67s79.667 -24 125 -24c198 0 297 159.333 297 478s-97.667 478 -293 478c-104.667 0 -185 -40 -241 -120c-26.667 -40 -48 -84.667 -64 -134c-4 -12 -7.66699 -24 -11 -36l-150 66
c7.33301 22.667 15.666 45.334 24.999 68.001c26 61.333 61.333 112 106 152c94.667 84.667 206.334 127 335.001 127c163.333 0 290.666 -65 381.999 -195c78.667 -107.333 118 -242 118 -404c0 -160.667 -36.667 -293.667 -110 -399
c-91.333 -136 -222.666 -204 -393.999 -204c-140 0 -257 42.667 -351 128c-55.333 48.667 -94.333 103.334 -117 164.001l156 75c6 -24 14.667 -47 26 -69z" />
    <glyph glyph-name="ml_ikaar" unicode="&#xd3f;" horiz-adv-x="427" 
d="M225 1416c-6 122.667 -64.001 183.998 -174.001 183.998c-58 0 -98.333 -18 -121 -54h1c-11.333 -16.667 -20.166 -37 -26.499 -61s-9.83301 -47.667 -10.5 -71c-1.33301 -7.33301 -1.5 -17.833 -0.5 -31.5s3.16699 -29.5 6.5 -47.5c-30 0 -58.833 0.166992 -86.5 0.5
s-56.5 0.5 -86.5 0.5c0 68.667 8.16699 128.834 24.5 180.501s39.5 94.5 69.5 128.5c30.667 32.667 65.667 58 105 76s81 27 125 27c46.667 2 94.667 -4.33301 144 -19c49.333 -16 90.333 -44.667 123 -86c56 -73.333 84 -169 84 -287v-12
c0.666992 -25.333 1 -55.666 1 -90.999v-122v-1123l-178 1v1407z" />
    <glyph glyph-name="ml_iikaar" unicode="&#xd40;" horiz-adv-x="428" 
d="M56 1505c0 50 -14.667 84.666 -44 103.999c-47.333 0 -86.333 -11.333 -117 -34c-30 -24 -44.667 -52.333 -44 -85s7.66699 -57 21 -73s37 -24.333 71 -25c17.333 -0.666992 32.5 1.83301 45.5 7.5s25.167 14.167 36.5 25.5c20.667 22.667 31 49.334 31 80.001z
M226 5.99902v1397c0 71.333 -16.333 122.333 -49 153l-4 -2c6 -15.333 9 -37.666 9 -66.999c0 -72.667 -22 -132.667 -66 -180c-21.333 -23.333 -46.333 -41.333 -75 -54s-60.667 -20.334 -96 -23.001c-64.667 0 -119.334 22.333 -164.001 67
c-43.333 45.333 -65 110.333 -65 195c0 84 33 148 99 192c66.667 46 143.334 69 230.001 69c207.333 0 325 -106 353 -318c4 -26 6 -127.333 6 -304v-1123z" />
    <glyph glyph-name="ml_ukaar" unicode="&#xd41;" horiz-adv-x="825" 
d="M524 -302c43.333 -2 83.334 9.66699 120.001 35c50 34 74.333 96.333 73 187c0.666992 70.667 -15.333 124.334 -48 161.001s-78 54.334 -136 53.001c-50.667 1.33301 -90.5 -13.834 -119.5 -45.501s-45.167 -76.834 -48.5 -135.501
c-2.66699 -22 -4.33398 -41.333 -5.00098 -58s2.33301 -45 9 -85c21.333 -64 73 -101.333 155 -112zM584.001 775c1.33301 23.333 2.49902 44.8311 3.49902 64.498s1.5 37.167 1.5 52.5c-6.66699 122.667 -52.334 184 -137.001 184c-38.667 0 -75.334 -23 -110.001 -69
l-21.5 65l-21.5 65c26.667 26.667 54.834 47.667 84.501 63s59.834 23 90.501 23c39.333 0 76.166 -9.66699 110.499 -29s66.5 -47 96.5 -83c20.667 -28 36.667 -61.333 48 -100s17.333 -82 18 -130c-0.666992 -58 -5.66699 -119.167 -15 -183.5
s-22.666 -131.833 -39.999 -202.5l-42 -164l-17 -65c7.33301 -2.66699 15.666 -5.5 24.999 -8.5l27 -8.5c29.333 -10.667 56.5 -24.834 81.5 -42.501s46.5 -38.834 64.5 -63.501c32.667 -43.333 49 -114.666 49 -213.999c0 -25.333 -0.333008 -41.666 -1 -48.999
c-5.33301 -49.333 -17.166 -93.666 -35.499 -132.999s-42.666 -72.666 -72.999 -99.999s-66.5 -48.166 -108.5 -62.499s-89.333 -20.5 -142 -18.5c-53.333 2 -100.166 10.667 -140.499 26s-74.166 36.833 -101.499 64.5s-47.833 61.167 -61.5 100.5
s-19.834 83.666 -18.501 132.999c-4 136.667 22.667 234.667 80 294c47.333 46 117.666 73.667 210.999 83l4 20c21.333 86 39.5 169.333 54.5 250s27.167 160 36.5 238z" />
    <glyph glyph-name="ml_uukaar" unicode="&#xd42;" horiz-adv-x="791" 
d="M518 50c0 77.333 -34.333 114.332 -103 110.999c-69.333 -3.33301 -104 -49.333 -104 -138c0 -77.333 36.333 -115.666 109 -114.999c30 0 53.833 12.5 71.5 37.5s26.5 59.833 26.5 104.5zM503 773.999c8 60.667 11.665 104.67 10.998 132.003
c-7.33301 115.333 -53.666 173 -138.999 173c-19.333 0 -37.833 -5.16699 -55.5 -15.5s-35.5 -26.833 -53.5 -49.5c-6.66699 20.667 -13.667 41.167 -21 61.5l-22 61.5c26 25.333 54.167 45.333 84.5 60s60.833 21.667 91.5 21c39.333 0 76.166 -8.83301 110.499 -26.5
s66.166 -43.167 95.499 -76.5c20.667 -26.667 36.5 -58.5 47.5 -95.5s16.167 -78.167 15.5 -123.5c0.666992 -56.667 -10.666 -135.834 -33.999 -237.501s-59 -226.834 -107 -375.501c100 -8.66699 175.333 -42.334 226 -101.001s76 -139 76 -241
c-3.33301 -120 -46.333 -215.667 -129 -287c-32 -28.667 -68.5 -49.834 -109.5 -63.501s-86.5 -20.834 -136.5 -21.501c-50.667 -0.666992 -96.167 1.83301 -136.5 7.5s-75.166 14.5 -104.499 26.5c-29.333 11.333 -58.333 25 -87 41s-59 35 -91 57l39.5 59.5l39.5 59.5
c40 -38 85.5 -68 136.5 -90s107.833 -35.667 170.5 -41c85.333 3.33301 150.833 25.833 196.5 67.5s70.834 103.167 75.501 184.5c-1.33301 42.667 -7.66602 80.334 -18.999 113.001s-28.333 61 -51 85l-4 -1c21.333 -48.667 30 -92.334 26 -131.001
c0 -21.333 -3.83301 -43.166 -11.5 -65.499s-17.834 -42.5 -30.501 -60.5c-24.667 -28 -52.834 -49.667 -84.501 -65s-64.5 -23 -98.5 -23c-70.667 0 -132 19 -184 57c-24.667 18.667 -43.334 43.834 -56.001 75.501s-19.667 67.5 -21 107.5
c8 74.667 30.833 134.667 68.5 180s90.834 73 159.501 83c30.667 93.333 55.334 179.5 74.001 258.5s32.667 152.167 42 219.5z" />
    <glyph glyph-name="ml_rikaar" unicode="&#xd43;" horiz-adv-x="674" 
d="M477 -223c-54.667 42 -121.668 62.332 -201.001 60.999h-11c-39.333 0 -71.666 -7.16699 -96.999 -21.5s-38 -32.166 -38 -53.499v-4c0 -52 49 -78.333 147 -79c25.333 0 49 2.83301 71 8.5s42 13.834 60 24.501s33 21.167 45 31.5s20.333 20.166 25 29.499z
M699.999 -47.001c1.33301 -8.66699 2.33301 -18.333 3 -29s1 -22.334 1 -35.001c0 -110.667 -39 -198 -117 -262c-79.333 -66.667 -181.666 -100 -306.999 -100c-73.333 0 -145 17.333 -215 52s-105 93 -105 175c0 40 9.5 75 28.5 105s46.167 53.667 81.5 71
c28 12 59.167 22.167 93.5 30.5s68.166 12.5 101.499 12.5c37.333 0 76.5 -4 117.5 -12s84.5 -20.667 130.5 -38c5.33301 15.333 4.33301 39.333 -3 72c-6.66699 28.667 -19.167 61.667 -37.5 99s-39.833 75.333 -64.5 114c-71.333 110.667 -126.166 214.5 -164.499 311.5
s-58.5 185.833 -60.5 266.5c0 56 11.667 127.667 35 215c11.333 42 29.666 81.333 54.999 118s56 70.334 92 101.001l126.5 -17.5l127.5 -18.5c-43.333 -15.333 -78.333 -31 -105 -47s-45.667 -31.667 -57 -47c-64 -73.333 -96.667 -185.333 -98 -336
c0 -152 57.667 -306.333 173 -463c25.333 -32 47.5 -62.167 66.5 -90.5s35.167 -54.833 48.5 -79.5c26 -48 44 -104.667 54 -170z" />
    <glyph glyph-name="ml_rikaar_vocalic" unicode="&#xd44;" horiz-adv-x="688" 
d="M698 -48c2.66699 -15.333 4 -36.333 4 -63c0 -151.333 -39 -260 -117 -326c-80 -66 -227 -99 -441 -99c-72 0 -143.667 17.333 -215 52c-70 34 -105 103 -105 207c0 49.333 9.66699 91.833 29 127.5s46 62.5 80 80.5c29.333 13.333 61 23.833 95 31.5s68 11.5 102 11.5
c166.667 0 293.667 -16.667 381 -50c5.33301 15.333 4.33301 39.333 -3 72c-14 59.333 -48 130.666 -102 213.999c-147.333 224 -222.333 417.333 -225 580c0 60 11.333 132 34 216c11.333 42 29.833 81.5 55.5 118.5s56.5 70.833 92.5 101.5l127 -17.5
c41.333 -5.66699 83.666 -11.834 126.999 -18.501c-85.333 -30 -139.333 -61.667 -162 -95c-64 -73.333 -96.667 -185.666 -98 -336.999c0 -153.333 58 -308.333 174 -465c24.667 -32 46.5 -62.167 65.5 -90.5s35.167 -55.166 48.5 -80.499
c26.667 -48 44.334 -104.667 53.001 -170zM475 -250c-78.667 60.667 -174.999 90 -288.999 88h-13c-28.667 0 -54.834 -2.66699 -78.501 -8s-44 -12.833 -61 -22.5s-30.167 -21 -39.5 -34s-14 -27.167 -14 -42.5v-5c0 -74 69.667 -111.667 209 -113c73.333 0 136 16 188 48
c53.333 32 86.333 60.667 99 86zM159.001 -274c0 -16 -5.66699 -30 -17 -42s-25.333 -18 -42 -18s-30.667 6 -42 18s-17 26 -17 42c0 17.333 5.66699 31.833 17 43.5s25.333 17.5 42 17.5s30.667 -5.83301 42 -17.5s17 -26.167 17 -43.5zM321.001 -274c0 -16 -6 -30 -18 -42
s-26 -18 -42 -18c-16.667 0 -30.834 6 -42.501 18s-17.5 26 -17.5 42c0 17.333 5.83301 31.833 17.5 43.5s25.834 17.5 42.501 17.5c16 0 30 -5.83301 42 -17.5s18 -26.167 18 -43.5z" />
    <glyph glyph-name="uni0D45" unicode="&#xd45;" horiz-adv-x="1896" 
d="M972.298 671.436c-26.0596 -23.7607 -51.7393 -45.9863 -77.0332 -66.6816c-62.8506 -51.3545 -94.2764 -104.625 -94.2764 -159.812v-95.4268h-125.319v103.475c0 68.2168 29.8926 129.535 89.6777 183.955v-1.14941l40.8154 33.3418l39.665 35.6416v-1.15039
c61.3184 52.1201 91.9775 106.924 91.9775 164.41c0 56.7197 -17.2461 100.025 -51.7373 129.918c-35.2588 30.6592 -85.4629 45.9893 -150.613 45.9893c-65.917 0 -113.056 -19.1621 -141.415 -57.4863c-28.3604 -38.3242 -42.54 -93.8936 -42.54 -166.709h-117.271
c0.766602 108.84 27.7852 191.428 81.0557 247.765c53.2705 56.3359 130.11 84.5039 230.52 84.5039c98.876 0 176.674 -24.9102 233.394 -74.7314c57.4863 -50.5879 86.2295 -116.122 86.2295 -196.603c0 -81.2471 -31.043 -150.997 -93.1279 -209.25zM800.987 267.887
v-147.164h-125.319v147.164h125.319zM1318.36 1527.98v-1756.77h-1120.98v1756.77h1120.98zM326.153 1388.86v-1487.74h869.188v1487.74h-869.188z" />
    <glyph glyph-name="ml_ekaar" unicode="&#xd46;" horiz-adv-x="1486" 
d="M382.5 338c8.33301 -37.333 19.832 -70.3311 34.499 -98.998c18.667 -36.667 42.167 -65.167 70.5 -85.5s61.833 -31.5 100.5 -33.5c78 0.666992 134.667 32.667 170 96c34.667 61.333 52 136.666 52 225.999c-0.666992 47.333 -5.66699 89.5 -15 126.5
s-22.666 70.167 -39.999 99.5c-36.667 57.333 -91.667 87.666 -165 90.999h-5c-143.333 0.666992 -215 -99 -215 -299c0 -44 4.16699 -84.667 12.5 -122zM787.999 1094c-106 0 -190.665 -25.3311 -253.998 -75.998c-64.667 -50.667 -111.667 -114.667 -141 -192
c59.333 35.333 138.666 53 237.999 53c100 0 186.333 -41 259 -123c72 -82 108 -184.667 108 -308c0 -60.667 -9.5 -117.334 -28.5 -170.001s-45.5 -100 -79.5 -142c-36.667 -42 -80.334 -73.833 -131.001 -95.5s-107.667 -32.5 -171 -32.5
c-129.333 0 -231.333 51.667 -306 155c-71.333 110 -107 226 -107 348c0 122.667 10.333 218 31 286c37.333 127.333 111.333 227.666 222 300.999c110.667 74.667 235.334 112 374.001 112c210 -6 373.667 -68 491 -186c118.667 -120 178 -271.333 178 -454
c0 -233.333 -91 -426.333 -273 -579l-39 -30l-74 122l28 25c119.333 112.667 179 264 179 454c0 150 -42.833 274.833 -128.5 374.5s-210.834 152.167 -375.501 157.5z" />
    <glyph glyph-name="ml_eekaar" unicode="&#xd47;" horiz-adv-x="1264" 
d="M1249 312c0 -106.667 -51.6641 -187.33 -154.997 -241.997c-83.333 -44.667 -180.333 -67 -291 -67c-91.333 0 -175.833 14.833 -253.5 44.5s-144.834 70.5 -201.501 122.5c-53.333 54 -95.5 118.5 -126.5 193.5s-46.5 156.167 -46.5 243.5c0 88.667 15 170 45 244
s72 138 126 192c58 51.333 126 91.833 204 121.5s162.333 44.5 253 44.5c53.333 0 104.666 -6 153.999 -18s95 -28.667 137 -50c50.667 -28 89.167 -62.333 115.5 -103s39.5 -87.334 39.5 -140.001c0 -76 -27.333 -138.333 -82 -187c-51.333 -49.333 -112.333 -74 -183 -74
c-69.333 0 -132 24 -188 72v-1c-54 48 -81 107.667 -81 179c0 102 26.333 168.667 79 200c-134.667 0 -241.334 -48 -320.001 -144c-77.333 -96 -116 -208 -116 -336c0 -63.333 9.5 -123 28.5 -179s48.167 -108.333 87.5 -157c79.333 -96.667 183 -145 311 -145
c-4.66699 4.66699 -10.334 12.667 -17.001 24l-24 41c-9.33301 17.333 -16.5 36.166 -21.5 56.499s-7.5 41.166 -7.5 62.499c0 78.667 27 143 81 193v-1c56.667 47.333 119.334 71 188.001 71s129.667 -24 183 -72c54.667 -48.667 82 -111.667 82 -189zM996.003 1041
c-25.333 0 -47.499 -5.16797 -66.499 -15.501s-34.167 -24.166 -45.5 -41.499c-10.667 -17.333 -18.334 -34 -23.001 -50s-7 -30.667 -7 -44c0 -10 0.833008 -19.167 2.5 -27.5s3.83398 -15.5 6.50098 -21.5c2 -6.66699 5.5 -13.5 10.5 -20.5s10.167 -13.167 15.5 -18.5
c25.333 -27.333 56.666 -41 93.999 -41c38 0 68.667 14.667 92 44s35 60 35 92s-13 64 -39 96s-51 48 -75 48zM996.004 172.003c28 0 53.667 15.6689 77 47.002c24.667 31.333 37 62.666 37 93.999c0 29.333 -11.667 60.333 -35 93c-22.667 31.333 -53 47 -91 47
c-39.333 0 -71 -14 -95 -42c-22.667 -28 -34 -58 -34 -90c0 -32.667 10 -63.334 30 -92.001h-1c22.667 -38 60 -57 112 -57z" />
    <glyph glyph-name="ml_aikaar" unicode="&#xd48;" horiz-adv-x="2923" 
d="M382.5 338c8.33301 -37.333 19.832 -70.3311 34.499 -98.998c18.667 -36.667 42.167 -65.167 70.5 -85.5s61.833 -31.5 100.5 -33.5c78 0.666992 134.667 32.667 170 96c34.667 61.333 52 136.666 52 225.999c-0.666992 47.333 -5.66699 89.5 -15 126.5
s-22.666 70.167 -39.999 99.5c-36.667 57.333 -91.667 87.666 -165 90.999h-5c-143.333 0.666992 -215 -99 -215 -299c0 -44 4.16699 -84.667 12.5 -122zM787.999 1094c-106 0 -190.665 -25.3311 -253.998 -75.998c-64.667 -50.667 -111.667 -114.667 -141 -192
c59.333 35.333 138.666 53 237.999 53c100 0 186.333 -41 259 -123c72 -82 108 -184.667 108 -308c0 -60.667 -9.5 -117.334 -28.5 -170.001s-45.5 -100 -79.5 -142c-36.667 -42 -80.334 -73.833 -131.001 -95.5s-107.667 -32.5 -171 -32.5
c-129.333 0 -231.333 51.667 -306 155c-71.333 110 -107 226 -107 348c0 122.667 10.333 218 31 286c37.333 127.333 111.333 227.666 222 300.999c110.667 74.667 235.334 112 374.001 112c210 -6 373.667 -68 491 -186c118.667 -120 178 -271.333 178 -454
c0 -233.333 -91 -426.333 -273 -579l-39 -30l-74 122l28 25c119.333 112.667 179 264 179 454c0 150 -42.833 274.833 -128.5 374.5s-210.834 152.167 -375.501 157.5zM1819.5 338.004c8.33301 -37.333 19.832 -70.3311 34.499 -98.998
c18.667 -36.667 42.167 -65.167 70.5 -85.5s61.833 -31.5 100.5 -33.5c78 0.666992 134.667 32.667 170 96c34.667 61.333 52 136.666 52 225.999c-0.666992 47.333 -5.66699 89.5 -15 126.5s-22.666 70.167 -39.999 99.5c-36.667 57.333 -91.667 87.666 -165 90.999h-5
c-143.333 0.666992 -215 -99 -215 -299c0 -44 4.16699 -84.667 12.5 -122zM2225 1094.01c-106 0 -190.666 -25.3311 -253.999 -75.998c-64.667 -50.667 -111.667 -114.667 -141 -192c59.333 35.333 138.666 53 237.999 53c100 0 186.333 -41 259 -123
c72 -82 108 -184.667 108 -308c0 -60.667 -9.5 -117.334 -28.5 -170.001s-45.5 -100 -79.5 -142c-36.667 -42 -80.334 -73.833 -131.001 -95.5s-107.667 -32.5 -171 -32.5c-129.333 0 -231.333 51.667 -306 155c-71.333 110 -107 226 -107 348c0 122.667 10.333 218 31 286
c37.333 127.333 111.333 227.666 222 300.999c110.667 74.667 235.334 112 374.001 112c210 -6 373.667 -68 491 -186c118.667 -120 178 -271.333 178 -454c0 -233.333 -91 -426.333 -273 -579l-39 -30l-74 122l28 25c119.333 112.667 179 264 179 454
c0 150 -42.833 274.833 -128.5 374.5s-210.834 152.167 -375.5 157.5z" />
    <glyph glyph-name="uni0D49" unicode="&#xd49;" horiz-adv-x="1310" 
d="M950.298 671.436c-26.0596 -23.7607 -51.7393 -45.9863 -77.0332 -66.6816c-62.8506 -51.3545 -94.2764 -104.625 -94.2764 -159.812v-95.4268h-125.319v103.475c0 68.2168 29.8926 129.535 89.6777 183.955v-1.14941l40.8154 33.3418l39.665 35.6416v-1.15039
c61.3184 52.1201 91.9775 106.924 91.9775 164.41c0 56.7197 -17.2461 100.025 -51.7373 129.918c-35.2588 30.6592 -85.4629 45.9893 -150.613 45.9893c-65.917 0 -113.056 -19.1621 -141.415 -57.4863c-28.3604 -38.3242 -42.54 -93.8936 -42.54 -166.709h-117.271
c0.766602 108.84 27.7852 191.428 81.0557 247.765c53.2705 56.3359 130.11 84.5039 230.52 84.5039c98.876 0 176.674 -24.9102 233.394 -74.7314c57.4863 -50.5879 86.2295 -116.122 86.2295 -196.603c0 -81.2471 -31.043 -150.997 -93.1279 -209.25zM778.987 267.887
v-147.164h-125.319v147.164h125.319zM1296.36 1527.98v-1756.77h-1120.98v1756.77h1120.98zM304.153 1388.86v-1487.74h869.188v1487.74h-869.188z" />
    <glyph glyph-name="ml_okaar" unicode="&#xd4a;" horiz-adv-x="3251" 
d="M382.5 338c8.33301 -37.333 19.832 -70.3311 34.499 -98.998c18.667 -36.667 42.167 -65.167 70.5 -85.5s61.833 -31.5 100.5 -33.5c78 0.666992 134.667 32.667 170 96c34.667 61.333 52 136.666 52 225.999c-0.666992 47.333 -5.66699 89.5 -15 126.5
s-22.666 70.167 -39.999 99.5c-36.667 57.333 -91.667 87.666 -165 90.999h-5c-143.333 0.666992 -215 -99 -215 -299c0 -44 4.16699 -84.667 12.5 -122zM787.999 1094c-106 0 -190.665 -25.3311 -253.998 -75.998c-64.667 -50.667 -111.667 -114.667 -141 -192
c59.333 35.333 138.666 53 237.999 53c100 0 186.333 -41 259 -123c72 -82 108 -184.667 108 -308c0 -60.667 -9.5 -117.334 -28.5 -170.001s-45.5 -100 -79.5 -142c-36.667 -42 -80.334 -73.833 -131.001 -95.5s-107.667 -32.5 -171 -32.5
c-129.333 0 -231.333 51.667 -306 155c-71.333 110 -107 226 -107 348c0 122.667 10.333 218 31 286c37.333 127.333 111.333 227.666 222 300.999c110.667 74.667 235.334 112 374.001 112c210 -6 373.667 -68 491 -186c118.667 -120 178 -271.333 178 -454
c0 -233.333 -91 -426.333 -273 -579l-39 -30l-74 122l28 25c119.333 112.667 179 264 179 454c0 150 -42.833 274.833 -128.5 374.5s-210.834 152.167 -375.501 157.5zM2456 305.004c16 -33.333 35.999 -61.335 59.999 -84.002c29.333 -28.667 63 -51 101 -67
s79.667 -24 125 -24c198 0 297 159.333 297 478s-97.667 478 -293 478c-104.667 0 -185 -40 -241 -120c-26.667 -40 -48 -84.667 -64 -134c-4 -12 -7.66699 -24 -11 -36l-150 66c7.33301 22.667 15.666 45.334 25 68.001c26 61.333 61.333 112 106 152
c94.667 84.667 206.334 127 335 127c163.333 0 290.666 -65 382 -195c78.667 -107.333 118 -242 118 -404c0 -160.667 -36.667 -293.667 -110 -399c-91.333 -136 -222.666 -204 -393.999 -204c-140 0 -257 42.667 -351 128c-55.333 48.667 -94.333 103.334 -117 164.001
l156 75c6 -24 14.667 -47 26 -69z" />
    <glyph glyph-name="ml_ookaar" unicode="&#xd4b;" horiz-adv-x="3024" 
d="M1249 312c0 -106.667 -51.6641 -187.33 -154.997 -241.997c-83.333 -44.667 -180.333 -67 -291 -67c-91.333 0 -175.833 14.833 -253.5 44.5s-144.834 70.5 -201.501 122.5c-53.333 54 -95.5 118.5 -126.5 193.5s-46.5 156.167 -46.5 243.5c0 88.667 15 170 45 244
s72 138 126 192c58 51.333 126 91.833 204 121.5s162.333 44.5 253 44.5c53.333 0 104.666 -6 153.999 -18s95 -28.667 137 -50c50.667 -28 89.167 -62.333 115.5 -103s39.5 -87.334 39.5 -140.001c0 -76 -27.333 -138.333 -82 -187c-51.333 -49.333 -112.333 -74 -183 -74
c-69.333 0 -132 24 -188 72v-1c-54 48 -81 107.667 -81 179c0 102 26.333 168.667 79 200c-134.667 0 -241.334 -48 -320.001 -144c-77.333 -96 -116 -208 -116 -336c0 -63.333 9.5 -123 28.5 -179s48.167 -108.333 87.5 -157c79.333 -96.667 183 -145 311 -145
c-4.66699 4.66699 -10.334 12.667 -17.001 24l-24 41c-9.33301 17.333 -16.5 36.166 -21.5 56.499s-7.5 41.166 -7.5 62.499c0 78.667 27 143 81 193v-1c56.667 47.333 119.334 71 188.001 71s129.667 -24 183 -72c54.667 -48.667 82 -111.667 82 -189zM996.003 1041
c-25.333 0 -47.499 -5.16797 -66.499 -15.501s-34.167 -24.166 -45.5 -41.499c-10.667 -17.333 -18.334 -34 -23.001 -50s-7 -30.667 -7 -44c0 -10 0.833008 -19.167 2.5 -27.5s3.83398 -15.5 6.50098 -21.5c2 -6.66699 5.5 -13.5 10.5 -20.5s10.167 -13.167 15.5 -18.5
c25.333 -27.333 56.666 -41 93.999 -41c38 0 68.667 14.667 92 44s35 60 35 92s-13 64 -39 96s-51 48 -75 48zM996.004 172.003c28 0 53.667 15.6689 77 47.002c24.667 31.333 37 62.666 37 93.999c0 29.333 -11.667 60.333 -35 93c-22.667 31.333 -53 47 -91 47
c-39.333 0 -71 -14 -95 -42c-22.667 -28 -34 -58 -34 -90c0 -32.667 10 -63.334 30 -92.001h-1c22.667 -38 60 -57 112 -57zM2229 305.005c16 -33.333 36 -61.335 60 -84.002c29.333 -28.667 63 -51 101 -67s79.667 -24 125 -24c198 0 297 159.333 297 478
s-97.667 478 -293 478c-104.667 0 -185 -40 -241 -120c-26.667 -40 -48 -84.667 -64 -134c-4 -12 -7.66699 -24 -11 -36l-150 66c7.33301 22.667 15.666 45.334 25 68.001c26 61.333 61.333 112 106 152c94.667 84.667 206.334 127 335 127c163.333 0 290.666 -65 382 -195
c78.667 -107.333 118 -242 118 -404c0 -160.667 -36.667 -293.667 -110 -399c-91.333 -136 -222.666 -204 -394 -204c-140 0 -257 42.667 -351 128c-55.333 48.667 -94.333 103.334 -117 164.001l156 75c6 -24 14.667 -47 26 -69z" />
    <glyph glyph-name="ml_aukaar" unicode="&#xd4c;" horiz-adv-x="3869" 
d="M382.5 338c8.33301 -37.333 19.832 -70.3311 34.499 -98.998c18.667 -36.667 42.167 -65.167 70.5 -85.5s61.833 -31.5 100.5 -33.5c78 0.666992 134.667 32.667 170 96c34.667 61.333 52 136.666 52 225.999c-0.666992 47.333 -5.66699 89.5 -15 126.5
s-22.666 70.167 -39.999 99.5c-36.667 57.333 -91.667 87.666 -165 90.999h-5c-143.333 0.666992 -215 -99 -215 -299c0 -44 4.16699 -84.667 12.5 -122zM787.999 1094c-106 0 -190.665 -25.3311 -253.998 -75.998c-64.667 -50.667 -111.667 -114.667 -141 -192
c59.333 35.333 138.666 53 237.999 53c100 0 186.333 -41 259 -123c72 -82 108 -184.667 108 -308c0 -60.667 -9.5 -117.334 -28.5 -170.001s-45.5 -100 -79.5 -142c-36.667 -42 -80.334 -73.833 -131.001 -95.5s-107.667 -32.5 -171 -32.5
c-129.333 0 -231.333 51.667 -306 155c-71.333 110 -107 226 -107 348c0 122.667 10.333 218 31 286c37.333 127.333 111.333 227.666 222 300.999c110.667 74.667 235.334 112 374.001 112c210 -6 373.667 -68 491 -186c118.667 -120 178 -271.333 178 -454
c0 -233.333 -91 -426.333 -273 -579l-39 -30l-74 122l28 25c119.333 112.667 179 264 179 454c0 150 -42.833 274.833 -128.5 374.5s-210.834 152.167 -375.501 157.5zM3065 1054c85.333 104.667 186.334 156.999 303.001 156.999c73.333 0 140.833 -15 202.5 -45
s115.5 -72 161.5 -126c39.333 -52 69.5 -110.167 90.5 -174.5s31.5 -132.833 31.5 -205.5c0 -196 -58 -354 -174 -474c-114.667 -120 -253.667 -180 -417 -180c-52.667 0 -104.167 6 -154.5 18s-98.5 28.667 -144.5 50c-19.333 11.333 -39 25.166 -59 41.499
s-39 34.833 -57 55.5c-18.667 20.667 -35 41.334 -49 62.001s-26.333 42 -37 64l63.5 34l64.5 34c39.333 -79.333 90.166 -138.666 152.5 -177.999c62.333 -39.333 135.833 -59 220.5 -59c62.667 0 119 12.667 169 38s94.667 63.666 134 114.999
c75.333 101.333 113 227.666 113 378.999c0 121.333 -23 222 -69 302c-55.333 84 -136 126 -242 126c-70 0 -124 -22.667 -162 -68c-37.333 -45.333 -56 -90.666 -56 -135.999v-314h-174v301c0 46 -21.333 94 -64 144c-23.333 24 -47.833 42.167 -73.5 54.5
s-53.834 18.5 -84.501 18.5c-143.333 0 -215 -101 -215 -303c0 -41.333 3 -82.666 9 -123.999s15.667 -82.666 29 -123.999l-62.5 -25l-62.5 -25c-58.667 95.333 -88 194.666 -88 297.999c0 130.667 35.333 234 106 310c36 38 78 66.833 126 86.5s102.333 29.5 163 29.5
c120.667 0 221.667 -52.333 303 -157h3z" />
    <glyph glyph-name="ml_chand" unicode="&#xd4d;" horiz-adv-x="2" 
d="M-393 1675l-0.00390625 43l203 -6l-5 -42v-38c0 -72 13.5 -126.5 40.5 -163.5s82.833 -55.5 167.5 -55.5c118 3.33301 177 76.333 177 219v38l-5 42l203 6v-43c-1.33301 -38 -5.16602 -73.5 -11.499 -106.5s-18.166 -66.333 -35.499 -100s-40.333 -62.834 -69 -87.501
s-66.167 -44.667 -112.5 -60s-100.166 -23.666 -161.499 -24.999c-39.333 0.666992 -76.166 4.16699 -110.499 10.5s-69 18.166 -104 35.499s-64.833 39.833 -89.5 67.5s-45 63.834 -61 108.501s-24.667 97 -26 157z" />
    <glyph glyph-name="ml_reph" unicode="&#xd4e;" horiz-adv-x="46" 
d="M1135 1810c47.333 0 90.001 -17.333 128.001 -52c36 -35.333 54 -79.666 54 -132.999c0 -54.667 -18 -99 -54 -133c-36.667 -34.667 -79.334 -52 -128.001 -52s-90.667 17.333 -126 52c-36.667 34.667 -55 79 -55 133c0 53.333 18.333 97.666 55 132.999
c36.667 34.667 78.667 52 126 52z" />
    <glyph glyph-name="uni0D4F" unicode="&#xd4f;" horiz-adv-x="1334" 
d="M978.298 671.436c-26.0596 -23.7607 -51.7393 -45.9863 -77.0332 -66.6816c-62.8506 -51.3545 -94.2764 -104.625 -94.2764 -159.812v-95.4268h-125.319v103.475c0 68.2168 29.8926 129.535 89.6777 183.955v-1.14941l40.8154 33.3418l39.665 35.6416v-1.15039
c61.3184 52.1201 91.9775 106.924 91.9775 164.41c0 56.7197 -17.2461 100.025 -51.7373 129.918c-35.2588 30.6592 -85.4629 45.9893 -150.613 45.9893c-65.917 0 -113.056 -19.1621 -141.415 -57.4863c-28.3604 -38.3242 -42.54 -93.8936 -42.54 -166.709h-117.271
c0.766602 108.84 27.7852 191.428 81.0557 247.765c53.2705 56.3359 130.11 84.5039 230.52 84.5039c98.876 0 176.674 -24.9102 233.394 -74.7314c57.4863 -50.5879 86.2295 -116.122 86.2295 -196.603c0 -81.2471 -31.043 -150.997 -93.1279 -209.25zM806.987 267.887
v-147.164h-125.319v147.164h125.319zM1324.36 1527.98v-1756.77h-1120.98v1756.77h1120.98zM332.153 1388.86v-1487.74h869.188v1487.74h-869.188z" />
    <glyph glyph-name="uni0D50" unicode="&#xd50;" horiz-adv-x="1334" 
d="M978.298 671.436c-26.0596 -23.7607 -51.7393 -45.9863 -77.0332 -66.6816c-62.8506 -51.3545 -94.2764 -104.625 -94.2764 -159.812v-95.4268h-125.319v103.475c0 68.2168 29.8926 129.535 89.6777 183.955v-1.14941l40.8154 33.3418l39.665 35.6416v-1.15039
c61.3184 52.1201 91.9775 106.924 91.9775 164.41c0 56.7197 -17.2461 100.025 -51.7373 129.918c-35.2588 30.6592 -85.4629 45.9893 -150.613 45.9893c-65.917 0 -113.056 -19.1621 -141.415 -57.4863c-28.3604 -38.3242 -42.54 -93.8936 -42.54 -166.709h-117.271
c0.766602 108.84 27.7852 191.428 81.0557 247.765c53.2705 56.3359 130.11 84.5039 230.52 84.5039c98.876 0 176.674 -24.9102 233.394 -74.7314c57.4863 -50.5879 86.2295 -116.122 86.2295 -196.603c0 -81.2471 -31.043 -150.997 -93.1279 -209.25zM806.987 267.887
v-147.164h-125.319v147.164h125.319zM1324.36 1527.98v-1756.77h-1120.98v1756.77h1120.98zM332.153 1388.86v-1487.74h869.188v1487.74h-869.188z" />
    <glyph glyph-name="uni0D51" unicode="&#xd51;" horiz-adv-x="1334" 
d="M978.298 671.436c-26.0596 -23.7607 -51.7393 -45.9863 -77.0332 -66.6816c-62.8506 -51.3545 -94.2764 -104.625 -94.2764 -159.812v-95.4268h-125.319v103.475c0 68.2168 29.8926 129.535 89.6777 183.955v-1.14941l40.8154 33.3418l39.665 35.6416v-1.15039
c61.3184 52.1201 91.9775 106.924 91.9775 164.41c0 56.7197 -17.2461 100.025 -51.7373 129.918c-35.2588 30.6592 -85.4629 45.9893 -150.613 45.9893c-65.917 0 -113.056 -19.1621 -141.415 -57.4863c-28.3604 -38.3242 -42.54 -93.8936 -42.54 -166.709h-117.271
c0.766602 108.84 27.7852 191.428 81.0557 247.765c53.2705 56.3359 130.11 84.5039 230.52 84.5039c98.876 0 176.674 -24.9102 233.394 -74.7314c57.4863 -50.5879 86.2295 -116.122 86.2295 -196.603c0 -81.2471 -31.043 -150.997 -93.1279 -209.25zM806.987 267.887
v-147.164h-125.319v147.164h125.319zM1324.36 1527.98v-1756.77h-1120.98v1756.77h1120.98zM332.153 1388.86v-1487.74h869.188v1487.74h-869.188z" />
    <glyph glyph-name="uni0D52" unicode="&#xd52;" horiz-adv-x="1334" 
d="M978.298 671.436c-26.0596 -23.7607 -51.7393 -45.9863 -77.0332 -66.6816c-62.8506 -51.3545 -94.2764 -104.625 -94.2764 -159.812v-95.4268h-125.319v103.475c0 68.2168 29.8926 129.535 89.6777 183.955v-1.14941l40.8154 33.3418l39.665 35.6416v-1.15039
c61.3184 52.1201 91.9775 106.924 91.9775 164.41c0 56.7197 -17.2461 100.025 -51.7373 129.918c-35.2588 30.6592 -85.4629 45.9893 -150.613 45.9893c-65.917 0 -113.056 -19.1621 -141.415 -57.4863c-28.3604 -38.3242 -42.54 -93.8936 -42.54 -166.709h-117.271
c0.766602 108.84 27.7852 191.428 81.0557 247.765c53.2705 56.3359 130.11 84.5039 230.52 84.5039c98.876 0 176.674 -24.9102 233.394 -74.7314c57.4863 -50.5879 86.2295 -116.122 86.2295 -196.603c0 -81.2471 -31.043 -150.997 -93.1279 -209.25zM806.987 267.887
v-147.164h-125.319v147.164h125.319zM1324.36 1527.98v-1756.77h-1120.98v1756.77h1120.98zM332.153 1388.86v-1487.74h869.188v1487.74h-869.188z" />
    <glyph glyph-name="uni0D53" unicode="&#xd53;" horiz-adv-x="1334" 
d="M978.298 671.436c-26.0596 -23.7607 -51.7393 -45.9863 -77.0332 -66.6816c-62.8506 -51.3545 -94.2764 -104.625 -94.2764 -159.812v-95.4268h-125.319v103.475c0 68.2168 29.8926 129.535 89.6777 183.955v-1.14941l40.8154 33.3418l39.665 35.6416v-1.15039
c61.3184 52.1201 91.9775 106.924 91.9775 164.41c0 56.7197 -17.2461 100.025 -51.7373 129.918c-35.2588 30.6592 -85.4629 45.9893 -150.613 45.9893c-65.917 0 -113.056 -19.1621 -141.415 -57.4863c-28.3604 -38.3242 -42.54 -93.8936 -42.54 -166.709h-117.271
c0.766602 108.84 27.7852 191.428 81.0557 247.765c53.2705 56.3359 130.11 84.5039 230.52 84.5039c98.876 0 176.674 -24.9102 233.394 -74.7314c57.4863 -50.5879 86.2295 -116.122 86.2295 -196.603c0 -81.2471 -31.043 -150.997 -93.1279 -209.25zM806.987 267.887
v-147.164h-125.319v147.164h125.319zM1324.36 1527.98v-1756.77h-1120.98v1756.77h1120.98zM332.153 1388.86v-1487.74h869.188v1487.74h-869.188z" />
    <glyph glyph-name="uni0D54" unicode="&#xd54;" horiz-adv-x="1334" 
d="M978.298 671.436c-26.0596 -23.7607 -51.7393 -45.9863 -77.0332 -66.6816c-62.8506 -51.3545 -94.2764 -104.625 -94.2764 -159.812v-95.4268h-125.319v103.475c0 68.2168 29.8926 129.535 89.6777 183.955v-1.14941l40.8154 33.3418l39.665 35.6416v-1.15039
c61.3184 52.1201 91.9775 106.924 91.9775 164.41c0 56.7197 -17.2461 100.025 -51.7373 129.918c-35.2588 30.6592 -85.4629 45.9893 -150.613 45.9893c-65.917 0 -113.056 -19.1621 -141.415 -57.4863c-28.3604 -38.3242 -42.54 -93.8936 -42.54 -166.709h-117.271
c0.766602 108.84 27.7852 191.428 81.0557 247.765c53.2705 56.3359 130.11 84.5039 230.52 84.5039c98.876 0 176.674 -24.9102 233.394 -74.7314c57.4863 -50.5879 86.2295 -116.122 86.2295 -196.603c0 -81.2471 -31.043 -150.997 -93.1279 -209.25zM806.987 267.887
v-147.164h-125.319v147.164h125.319zM1324.36 1527.98v-1756.77h-1120.98v1756.77h1120.98zM332.153 1388.86v-1487.74h869.188v1487.74h-869.188z" />
    <glyph glyph-name="uni0D55" unicode="&#xd55;" horiz-adv-x="1334" 
d="M978.298 671.436c-26.0596 -23.7607 -51.7393 -45.9863 -77.0332 -66.6816c-62.8506 -51.3545 -94.2764 -104.625 -94.2764 -159.812v-95.4268h-125.319v103.475c0 68.2168 29.8926 129.535 89.6777 183.955v-1.14941l40.8154 33.3418l39.665 35.6416v-1.15039
c61.3184 52.1201 91.9775 106.924 91.9775 164.41c0 56.7197 -17.2461 100.025 -51.7373 129.918c-35.2588 30.6592 -85.4629 45.9893 -150.613 45.9893c-65.917 0 -113.056 -19.1621 -141.415 -57.4863c-28.3604 -38.3242 -42.54 -93.8936 -42.54 -166.709h-117.271
c0.766602 108.84 27.7852 191.428 81.0557 247.765c53.2705 56.3359 130.11 84.5039 230.52 84.5039c98.876 0 176.674 -24.9102 233.394 -74.7314c57.4863 -50.5879 86.2295 -116.122 86.2295 -196.603c0 -81.2471 -31.043 -150.997 -93.1279 -209.25zM806.987 267.887
v-147.164h-125.319v147.164h125.319zM1324.36 1527.98v-1756.77h-1120.98v1756.77h1120.98zM332.153 1388.86v-1487.74h869.188v1487.74h-869.188z" />
    <glyph glyph-name="uni0D56" unicode="&#xd56;" horiz-adv-x="1334" 
d="M978.298 671.436c-26.0596 -23.7607 -51.7393 -45.9863 -77.0332 -66.6816c-62.8506 -51.3545 -94.2764 -104.625 -94.2764 -159.812v-95.4268h-125.319v103.475c0 68.2168 29.8926 129.535 89.6777 183.955v-1.14941l40.8154 33.3418l39.665 35.6416v-1.15039
c61.3184 52.1201 91.9775 106.924 91.9775 164.41c0 56.7197 -17.2461 100.025 -51.7373 129.918c-35.2588 30.6592 -85.4629 45.9893 -150.613 45.9893c-65.917 0 -113.056 -19.1621 -141.415 -57.4863c-28.3604 -38.3242 -42.54 -93.8936 -42.54 -166.709h-117.271
c0.766602 108.84 27.7852 191.428 81.0557 247.765c53.2705 56.3359 130.11 84.5039 230.52 84.5039c98.876 0 176.674 -24.9102 233.394 -74.7314c57.4863 -50.5879 86.2295 -116.122 86.2295 -196.603c0 -81.2471 -31.043 -150.997 -93.1279 -209.25zM806.987 267.887
v-147.164h-125.319v147.164h125.319zM1324.36 1527.98v-1756.77h-1120.98v1756.77h1120.98zM332.153 1388.86v-1487.74h869.188v1487.74h-869.188z" />
    </font>
</defs>
</svg>
